999
dxfrw 0.6.3
  0
SECTION
  2
HEADER
  9
$ACADVER
  1
AC1021
  9
$DWGCODEPAGE
  3
ANSI_1252
  9
$INSBASE
 10
0
 20
0
 30
0
  9
$EXTMIN
 10
0.090159
 20
0.09016
 30
0
  9
$EXTMAX
 10
276.706053
 20
215.90002
 30
0
  9
$LIMMIN
 10
0
 20
0
  9
$LIMMAX
 10
420
 20
297
  9
$ORTHOMODE
 70
    0
  9
$REGENMODE
 70
    1
  9
$FILLMODE
 70
    1
  9
$QTEXTMODE
 70
    0
  9
$MIRRTEXT
 70
    0
  9
$LTSCALE
 40
1
  9
$ATTMODE
 70
    0
  9
$TEXTSIZE
 40
2.5
  9
$TRACEWID
 40
15.68
  9
$TEXTSTYLE
  7
STANDARD
  9
$CLAYER
  8
dim
  9
$CELTYPE
  6
BYLAYER
  9
$CECOLOR
 62
  256
  9
$CELTSCALE
 40
1
  9
$DISPSILH
 70
    0
  9
$DIMSCALE
 40
2.5
  9
$DIMASZ
 40
0.35
  9
$DIMEXO
 40
0.2
  9
$DIMDLI
 40
3.75
  9
$DIMRND
 40
0
  9
$DIMDLE
 40
0
  9
$DIMEXE
 40
0.65
  9
$DIMTP
 40
0
  9
$DIMTM
 40
0
  9
$DIMTXT
 40
0.35
  9
$DIMCEN
 40
2.5
  9
$DIMTSZ
 40
0
  9
$DIMTOL
 70
    0
  9
$DIMLIM
 70
    0
  9
$DIMTIH
 70
    0
  9
$DIMTOH
 70
    0
  9
$DIMSE1
 70
    0
  9
$DIMSE2
 70
    0
  9
$DIMTAD
 70
    1
  9
$DIMZIN
 70
    8
  9
$DIMBLK
  1

  9
$DIMASO
 70
    1
  9
$DIMSHO
 70
    1
  9
$DIMPOST
  1

  9
$DIMAPOST
  1

  9
$DIMALT
 70
    0
  9
$DIMALTD
 70
    3
  9
$DIMALTF
 40
0.03937
  9
$DIMLFAC
 40
1
  9
$DIMTOFL
 70
    1
  9
$DIMTVP
 40
0
  9
$DIMTIX
 70
    0
  9
$DIMSOXD
 70
    0
  9
$DIMSAH
 70
    0
  9
$DIMBLK1
  1

  9
$DIMBLK2
  1

  9
$DIMSTYLE
  2
Standard
  9
$DIMCLRD
 70
    0
  9
$DIMCLRE
 70
    0
  9
$DIMCLRT
 70
    0
  9
$DIMTFAC
 40
1
  9
$DIMGAP
 40
0.2
  9
$DIMJUST
 70
    0
  9
$DIMSD1
 70
    0
  9
$DIMSD2
 70
    0
  9
$DIMTOLJ
 70
    0
  9
$DIMTZIN
 70
    8
  9
$DIMALTZ
 70
    0
  9
$DIMALTTZ
 70
    0
  9
$DIMUPT
 70
    0
  9
$DIMDEC
 70
    1
  9
$DIMTDEC
 70
    2
  9
$DIMALTU
 70
    2
  9
$DIMALTTD
 70
    3
  9
$DIMTXSTY
  7
cursive
  9
$DIMAUNIT
 70
    0
  9
$DIMADEC
 70
    0
  9
$DIMALTRND
 40
0
  9
$DIMAZIN
 70
    0
  9
$DIMDSEP
 70
    0
  9
$DIMATFIT
 70
    3
  9
$DIMFRAC
 70
    0
  9
$DIMLDRBLK
  1
STANDARD
  9
$DIMLUNIT
 70
    2
  9
$DIMLWD
 70
   -2
  9
$DIMLWE
 70
   -2
  9
$DIMTMOVE
 70
    0
  9
$DIMFXL
 40
1
  9
$DIMFXLON
 70
    0
  9
$DIMJOGANG
 40
0.7854
  9
$DIMTFILL
 70
    0
  9
$DIMTFILLCLR
 70
    0
  9
$DIMARCSYM
 70
    0
  9
$DIMLTYPE
  6

  9
$DIMLTEX1
  6

  9
$DIMLTEX2
  6

  9
$LUNITS
 70
    2
  9
$LUPREC
 70
    1
  9
$SKETCHINC
 40
1
  9
$FILLETRAD
 40
0
  9
$AUNITS
 70
    0
  9
$AUPREC
 70
    1
  9
$MENU
  1
.
  9
$ELEVATION
 40
0
  9
$PELEVATION
 40
0
  9
$THICKNESS
 40
0
  9
$LIMCHECK
 70
    0
  9
$CHAMFERA
 40
0
  9
$CHAMFERB
 40
0
  9
$CHAMFERC
 40
0
  9
$CHAMFERD
 40
0
  9
$SKPOLY
 70
    0
  9
$USRTIMER
 70
    1
  9
$ANGBASE
 50
0
  9
$ANGDIR
 70
    0
  9
$PDMODE
 70
   34
  9
$PDSIZE
 40
0
  9
$PLINEWID
 40
0
  9
$SPLFRAME
 70
    0
  9
$SPLINETYPE
 70
    2
  9
$SPLINESEGS
 70
    8
  9
$HANDSEED
  5
20000
  9
$SURFTAB1
 70
    6
  9
$SURFTAB2
 70
    6
  9
$SURFTYPE
 70
    6
  9
$SURFU
 70
    6
  9
$SURFV
 70
    6
  9
$UCSBASE
  2

  9
$UCSNAME
  2

  9
$UCSORG
 10
0
 20
0
 30
0
  9
$UCSXDIR
 10
1
 20
0
 30
0
  9
$UCSYDIR
 10
0
 20
1
 30
0
  9
$UCSORTHOREF
  2

  9
$UCSORTHOVIEW
 70
    0
  9
$UCSORGTOP
 10
0
 20
0
 30
0
  9
$UCSORGBOTTOM
 10
0
 20
0
 30
0
  9
$UCSORGLEFT
 10
0
 20
0
 30
0
  9
$UCSORGRIGHT
 10
0
 20
0
 30
0
  9
$UCSORGFRONT
 10
0
 20
0
 30
0
  9
$UCSORGBACK
 10
0
 20
0
 30
0
  9
$PUCSBASE
  2

  9
$PUCSNAME
  2

  9
$PUCSORG
 10
0
 20
0
 30
0
  9
$PUCSXDIR
 10
1
 20
0
 30
0
  9
$PUCSYDIR
 10
0
 20
1
 30
0
  9
$PUCSORTHOREF
  2

  9
$PUCSORTHOVIEW
 70
    0
  9
$PUCSORGTOP
 10
0
 20
0
 30
0
  9
$PUCSORGBOTTOM
 10
0
 20
0
 30
0
  9
$PUCSORGLEFT
 10
0
 20
0
 30
0
  9
$PUCSORGRIGHT
 10
0
 20
0
 30
0
  9
$PUCSORGFRONT
 10
0
 20
0
 30
0
  9
$PUCSORGBACK
 10
0
 20
0
 30
0
  9
$USERI1
 70
    0
  9
$USERI2
 70
    0
  9
$USERI3
 70
    0
  9
$USERI4
 70
    0
  9
$USERI5
 70
    0
  9
$USERR1
 40
0
  9
$USERR2
 40
0
  9
$USERR3
 40
0
  9
$USERR4
 40
0
  9
$USERR5
 40
0
  9
$WORLDVIEW
 70
    1
  9
$SHADEDGE
 70
    3
  9
$SHADEDIF
 70
   70
  9
$TILEMODE
 70
    1
  9
$MAXACTVP
 70
   64
  9
$PINSBASE
 10
0
 20
0
 30
0
  9
$PLIMCHECK
 70
    0
  9
$PEXTMIN
 10
0
 20
0
 30
0
  9
$PEXTMAX
 10
0
 20
0
 30
0
  9
$GRIDMODE
 70
    1
  9
$SNAPSTYLE
 70
    0
  9
$GRIDUNIT
 10
0.001
 20
0.001
  9
$PLIMMIN
 10
0
 20
0
  9
$PLIMMAX
 10
279.4
 20
215.9
  9
$UNITMODE
 70
    0
  9
$VISRETAIN
 70
    1
  9
$PLINEGEN
 70
    0
  9
$PSLTSCALE
 70
    1
  9
$TREEDEPTH
 70
 3020
  9
$CMLSTYLE
  2
Standard
  9
$CMLJUST
 70
    0
  9
$CMLSCALE
 40
20
  9
$PROXYGRAPHICS
 70
    1
  9
$MEASUREMENT
 70
    1
  9
$CELWEIGHT
370
   -1
  9
$ENDCAPS
280
    0
  9
$JOINSTYLE
280
    0
  9
$LWDISPLAY
290
    0
  9
$INSUNITS
 70
    4
  9
$HYPERLINKBASE
  1

  9
$STYLESHEET
  1

  9
$XEDIT
290
    1
  9
$CEPSNTYPE
380
    0
  9
$PSTYLEMODE
290
    1
  9
$EXTNAMES
290
    1
  9
$PSVPSCALE
 40
1
  9
$OLESTARTUP
290
    0
  9
$SORTENTS
280
  127
  9
$INDEXCTL
280
    0
  9
$HIDETEXT
280
    1
  9
$XCLIPFRAME
290
    0
  9
$HALOGAP
280
    0
  9
$OBSCOLOR
 70
  257
  9
$OBSLTYPE
280
    0
  9
$INTERSECTIONDISPLAY
280
    0
  9
$INTERSECTIONCOLOR
 70
  257
  9
$DIMASSOC
280
    1
  9
$PROJECTNAME
  1

  9
$CAMERADISPLAY
290
    0
  9
$LENSLENGTH
 40
50
  9
$CAMERAHEIGHT
 40
0
  9
$STEPSPERSEC
 40
2
  9
$STEPSIZE
 40
50
  9
$3DDWFPREC
 40
2
  9
$PSOLWIDTH
 40
5
  9
$PSOLHEIGHT
 40
80
  9
$LOFTANG1
 40
1.570796326794897
  9
$LOFTANG2
 40
1.570796326794897
  9
$LOFTMAG1
 40
0
  9
$LOFTMAG2
 40
0
  9
$LOFTPARAM
 70
    7
  9
$LOFTNORMALS
280
    1
  9
$LATITUDE
 40
1
  9
$LONGITUDE
 40
1
  9
$NORTHDIRECTION
 40
0
  9
$TIMEZONE
 70
-8000
  9
$LIGHTGLYPHDISPLAY
280
    1
  9
$TILEMODELIGHTSYNCH
280
    1
  9
$SOLIDHIST
280
    1
  9
$SHOWHIST
280
    1
  9
$DWFFRAME
280
    2
  9
$DGNFRAME
280
    0
  9
$REALWORLDSCALE
290
    1
  9
$INTERFERECOLOR
 62
    1
  9
$CSHADOW
280
    0
  9
$SHADOWPLANELOCATION
 40
0
  0
ENDSEC
  0
SECTION
  2
CLASSES
  0
ENDSEC
  0
SECTION
  2
TABLES
  0
TABLE
  2
VPORT
  5
8
330
0
100
AcDbSymbolTable
 70
    1
  0
VPORT
  5
31
330
2
100
AcDbSymbolTableRecord
100
AcDbViewportTableRecord
  2
*ACTIVE
 70
    0
 10
0
 20
0
 11
1
 21
1
 12
147.4026310987245
 22
45.94450023498506
 13
0
 23
0
 14
10
 24
10
 15
0.001
 25
0.001
 16
0
 26
0
 36
1
 17
0
 27
0
 37
0
 40
107.7319315854822
 41
1.637647058823529
 42
50
 43
0
 44
0
 50
0
 51
0
 71
    0
 72
  100
 73
    1
 74
    3
 75
    0
 76
    1
 77
    0
 78
    0
281
    0
 65
    1
110
0
120
0
130
0
111
1
121
0
131
0
112
0
122
1
132
0
 79
    0
146
0
348
10020
 60
    3
 61
    5
292
1
282
    1
141
0
142
0
 63
  250
421
3358443
  0
ENDTAB
  0
TABLE
  2
LTYPE
  5
5
330
0
100
AcDbSymbolTable
 70
    4
  0
LTYPE
  5
14
330
5
100
AcDbSymbolTableRecord
100
AcDbLinetypeTableRecord
  2
ByBlock
 70
    0
  3

 72
   65
 73
    0
 40
0
  0
LTYPE
  5
15
330
5
100
AcDbSymbolTableRecord
100
AcDbLinetypeTableRecord
  2
ByLayer
 70
    0
  3

 72
   65
 73
    0
 40
0
  0
LTYPE
  5
16
330
5
100
AcDbSymbolTableRecord
100
AcDbLinetypeTableRecord
  2
Continuous
 70
    0
  3
Solid line
 72
   65
 73
    0
 40
0
  0
LTYPE
  5
32
330
5
100
AcDbSymbolTableRecord
100
AcDbLinetypeTableRecord
  2
DOT
 70
    0
  3
Dot . . . . . . . . . . . . . . . . . . . . . .
 72
   65
 73
    2
 40
6.35
 49
0
 74
    0
 49
-6.35
 74
    0
  0
LTYPE
  5
33
330
5
100
AcDbSymbolTableRecord
100
AcDbLinetypeTableRecord
  2
DOTTINY
 70
    0
  3
Dot (.15x) .....................................
 72
   65
 73
    2
 40
0.9525
 49
0
 74
    0
 49
-0.9525
 74
    0
  0
LTYPE
  5
34
330
5
100
AcDbSymbolTableRecord
100
AcDbLinetypeTableRecord
  2
DOT2
 70
    0
  3
Dot (.5x) .....................................
 72
   65
 73
    2
 40
3.175
 49
0
 74
    0
 49
-3.175
 74
    0
  0
LTYPE
  5
35
330
5
100
AcDbSymbolTableRecord
100
AcDbLinetypeTableRecord
  2
DOTX2
 70
    0
  3
Dot (2x) .  .  .  .  .  .  .  .  .  .  .  .  .
 72
   65
 73
    2
 40
12.7
 49
0
 74
    0
 49
-12.7
 74
    0
  0
LTYPE
  5
36
330
5
100
AcDbSymbolTableRecord
100
AcDbLinetypeTableRecord
  2
DASHED
 70
    0
  3
Dashed _ _ _ _ _ _ _ _ _ _ _ _ _ _ _ _ _
 72
   65
 73
    2
 40
19.05
 49
12.7
 74
    0
 49
-6.35
 74
    0
  0
LTYPE
  5
37
330
5
100
AcDbSymbolTableRecord
100
AcDbLinetypeTableRecord
  2
DASHEDTINY
 70
    0
  3
Dashed (.15x) _ _ _ _ _ _ _ _ _ _ _ _ _ _ _ _ _
 72
   65
 73
    2
 40
2.8575
 49
1.905
 74
    0
 49
-0.9525
 74
    0
  0
LTYPE
  5
38
330
5
100
AcDbSymbolTableRecord
100
AcDbLinetypeTableRecord
  2
DASHED2
 70
    0
  3
Dashed (.5x) _ _ _ _ _ _ _ _ _ _ _ _ _ _ _ _ _
 72
   65
 73
    2
 40
9.524999999999999
 49
6.35
 74
    0
 49
-3.175
 74
    0
  0
LTYPE
  5
39
330
5
100
AcDbSymbolTableRecord
100
AcDbLinetypeTableRecord
  2
DASHEDX2
 70
    0
  3
Dashed (2x) ____  ____  ____  ____  ____  ___
 72
   65
 73
    2
 40
38.09999999999999
 49
25.4
 74
    0
 49
-12.7
 74
    0
  0
LTYPE
  5
3A
330
5
100
AcDbSymbolTableRecord
100
AcDbLinetypeTableRecord
  2
DASHDOT
 70
    0
  3
Dash dot __ . __ . __ . __ . __ . __ . __ . __
 72
   65
 73
    4
 40
25.4
 49
12.7
 74
    0
 49
-6.35
 74
    0
 49
0
 74
    0
 49
-6.35
 74
    0
  0
LTYPE
  5
3B
330
5
100
AcDbSymbolTableRecord
100
AcDbLinetypeTableRecord
  2
DASHDOTTINY
 70
    0
  3
Dash dot (.15x) _._._._._._._._._._._._._._._.
 72
   65
 73
    4
 40
3.81
 49
1.905
 74
    0
 49
-0.9525
 74
    0
 49
0
 74
    0
 49
-0.9525
 74
    0
  0
LTYPE
  5
3C
330
5
100
AcDbSymbolTableRecord
100
AcDbLinetypeTableRecord
  2
DASHDOT2
 70
    0
  3
Dash dot (.5x) _._._._._._._._._._._._._._._.
 72
   65
 73
    4
 40
12.7
 49
6.35
 74
    0
 49
-3.175
 74
    0
 49
0
 74
    0
 49
-3.175
 74
    0
  0
LTYPE
  5
3D
330
5
100
AcDbSymbolTableRecord
100
AcDbLinetypeTableRecord
  2
DASHDOTX2
 70
    0
  3
Dash dot (2x) ____  .  ____  .  ____  .  ___
 72
   65
 73
    4
 40
50.8
 49
25.4
 74
    0
 49
-12.7
 74
    0
 49
0
 74
    0
 49
-12.7
 74
    0
  0
LTYPE
  5
3E
330
5
100
AcDbSymbolTableRecord
100
AcDbLinetypeTableRecord
  2
DIVIDE
 70
    0
  3
Divide ____ . . ____ . . ____ . . ____ . . ____
 72
   65
 73
    6
 40
31.75
 49
12.7
 74
    0
 49
-6.35
 74
    0
 49
0
 74
    0
 49
-6.35
 74
    0
 49
0
 74
    0
 49
-6.35
 74
    0
  0
LTYPE
  5
3F
330
5
100
AcDbSymbolTableRecord
100
AcDbLinetypeTableRecord
  2
DIVIDETINY
 70
    0
  3
Divide (.15x) __..__..__..__..__..__..__..__.._
 72
   65
 73
    6
 40
4.7625
 49
1.905
 74
    0
 49
-0.9525
 74
    0
 49
0
 74
    0
 49
-0.9525
 74
    0
 49
0
 74
    0
 49
-0.9525
 74
    0
  0
LTYPE
  5
40
330
5
100
AcDbSymbolTableRecord
100
AcDbLinetypeTableRecord
  2
DIVIDE2
 70
    0
  3
Divide (.5x) __..__..__..__..__..__..__..__.._
 72
   65
 73
    6
 40
15.875
 49
6.35
 74
    0
 49
-3.175
 74
    0
 49
0
 74
    0
 49
-3.175
 74
    0
 49
0
 74
    0
 49
-3.175
 74
    0
  0
LTYPE
  5
41
330
5
100
AcDbSymbolTableRecord
100
AcDbLinetypeTableRecord
  2
DIVIDEX2
 70
    0
  3
Divide (2x) ________  .  .  ________  .  .  _
 72
   65
 73
    6
 40
63.5
 49
25.4
 74
    0
 49
-12.7
 74
    0
 49
0
 74
    0
 49
-12.7
 74
    0
 49
0
 74
    0
 49
-12.7
 74
    0
  0
LTYPE
  5
42
330
5
100
AcDbSymbolTableRecord
100
AcDbLinetypeTableRecord
  2
BORDER
 70
    0
  3
Border __ __ . __ __ . __ __ . __ __ . __ __ .
 72
   65
 73
    6
 40
44.45
 49
12.7
 74
    0
 49
-6.35
 74
    0
 49
12.7
 74
    0
 49
-6.35
 74
    0
 49
0
 74
    0
 49
-6.35
 74
    0
  0
LTYPE
  5
43
330
5
100
AcDbSymbolTableRecord
100
AcDbLinetypeTableRecord
  2
BORDERTINY
 70
    0
  3
Border (.15x) __.__.__.__.__.__.__.__.__.__.__.
 72
   65
 73
    6
 40
6.6675
 49
1.905
 74
    0
 49
-0.9525
 74
    0
 49
1.905
 74
    0
 49
-0.9525
 74
    0
 49
0
 74
    0
 49
-0.9525
 74
    0
  0
LTYPE
  5
44
330
5
100
AcDbSymbolTableRecord
100
AcDbLinetypeTableRecord
  2
BORDER2
 70
    0
  3
Border (.5x) __.__.__.__.__.__.__.__.__.__.__.
 72
   65
 73
    6
 40
22.225
 49
6.35
 74
    0
 49
-3.175
 74
    0
 49
6.35
 74
    0
 49
-3.175
 74
    0
 49
0
 74
    0
 49
-3.175
 74
    0
  0
LTYPE
  5
45
330
5
100
AcDbSymbolTableRecord
100
AcDbLinetypeTableRecord
  2
BORDERX2
 70
    0
  3
Border (2x) ____  ____  .  ____  ____  .  ___
 72
   65
 73
    6
 40
88.89999999999999
 49
25.4
 74
    0
 49
-12.7
 74
    0
 49
25.4
 74
    0
 49
-12.7
 74
    0
 49
0
 74
    0
 49
-12.7
 74
    0
  0
LTYPE
  5
46
330
5
100
AcDbSymbolTableRecord
100
AcDbLinetypeTableRecord
  2
CENTER
 70
    0
  3
Center ____ _ ____ _ ____ _ ____ _ ____ _ ____
 72
   65
 73
    4
 40
50.8
 49
31.75
 74
    0
 49
-6.35
 74
    0
 49
6.35
 74
    0
 49
-6.35
 74
    0
  0
LTYPE
  5
47
330
5
100
AcDbSymbolTableRecord
100
AcDbLinetypeTableRecord
  2
CENTERTINY
 70
    0
  3
Center (.15x) ___ _ ___ _ ___ _ ___ _ ___ _ ___
 72
   65
 73
    4
 40
7.619999999999999
 49
4.7625
 74
    0
 49
-0.9525
 74
    0
 49
0.9525
 74
    0
 49
-0.9525
 74
    0
  0
LTYPE
  5
48
330
5
100
AcDbSymbolTableRecord
100
AcDbLinetypeTableRecord
  2
CENTER2
 70
    0
  3
Center (.5x) ___ _ ___ _ ___ _ ___ _ ___ _ ___
 72
   65
 73
    4
 40
28.575
 49
19.05
 74
    0
 49
-3.175
 74
    0
 49
3.175
 74
    0
 49
-3.175
 74
    0
  0
LTYPE
  5
49
330
5
100
AcDbSymbolTableRecord
100
AcDbLinetypeTableRecord
  2
CENTERX2
 70
    0
  3
Center (2x) ________  __  ________  __  _____
 72
   65
 73
    4
 40
101.6
 49
63.5
 74
    0
 49
-12.7
 74
    0
 49
12.7
 74
    0
 49
-12.7
 74
    0
  0
ENDTAB
  0
TABLE
  2
LAYER
  5
2
330
0
100
AcDbSymbolTable
 70
    1
  0
LAYER
  5
10
330
2
100
AcDbSymbolTableRecord
100
AcDbLayerTableRecord
  2
0
 70
    0
 62
    7
  6
CONTINUOUS
370
    9
390
F
  0
LAYER
  5
4A
330
2
100
AcDbSymbolTableRecord
100
AcDbLayerTableRecord
  2
ProjItem
 70
    0
 62
    7
  6
CONTINUOUS
370
    9
390
F
  0
LAYER
  5
4B
330
2
100
AcDbSymbolTableRecord
100
AcDbLayerTableRecord
  2
ProjItem001
 70
    0
 62
    7
  6
CONTINUOUS
370
    9
390
F
  0
LAYER
  5
4C
330
2
100
AcDbSymbolTableRecord
100
AcDbLayerTableRecord
  2
ProjItem002
 70
    0
 62
    7
  6
CONTINUOUS
370
    9
390
F
  0
LAYER
  5
4D
330
2
100
AcDbSymbolTableRecord
100
AcDbLayerTableRecord
  2
dim
 70
    0
 62
    7
  6
CONTINUOUS
370
    9
390
F
  0
LAYER
  5
4E
330
2
100
AcDbSymbolTableRecord
100
AcDbLayerTableRecord
  2
leader
 70
    0
 62
    7
  6
DASHDOTTINY
370
    5
390
F
  0
ENDTAB
  0
TABLE
  2
STYLE
  5
3
330
0
100
AcDbSymbolTable
 70
    3
  0
STYLE
  5
4F
330
2
100
AcDbSymbolTableRecord
100
AcDbTextStyleTableRecord
  2
standard
 70
    0
 40
0
 41
1
 50
0
 71
    0
 42
1
  3
standard
  4

  0
ENDTAB
  0
TABLE
  2
VIEW
  5
6
330
0
100
AcDbSymbolTable
 70
    0
  0
ENDTAB
  0
TABLE
  2
UCS
  5
7
330
0
100
AcDbSymbolTable
 70
    0
  0
ENDTAB
  0
TABLE
  2
APPID
  5
9
330
0
100
AcDbSymbolTable
 70
    1
  0
APPID
  5
12
330
9
100
AcDbSymbolTableRecord
100
AcDbRegAppTableRecord
  2
ACAD
 70
    0
  0
APPID
  5
50
330
9
100
AcDbSymbolTableRecord
100
AcDbRegAppTableRecord
  2
LibreCad
 70
    0
  0
ENDTAB
  0
TABLE
  2
DIMSTYLE
  5
A
330
0
100
AcDbSymbolTable
 70
    1
100
AcDbDimStyleTable
 71
    1
  0
DIMSTYLE
105
51
330
A
100
AcDbSymbolTableRecord
100
AcDbDimStyleTableRecord
  2
Standard
 70
    0
 40
2.5
 41
0.35
 42
0.2
 43
0.38
 44
0.65
 45
0
 46
0
 47
0
 48
0
 49
1
140
0.35
141
0.09
142
0
143
25.4
144
1
145
0
146
1
147
0.2
148
0
 71
    0
 72
    0
 73
    0
 74
    1
 75
    0
 76
    0
 77
    0
 78
    8
 79
    0
170
    0
171
    2
172
    0
173
    0
174
    0
175
    0
176
    0
177
    0
178
    0
179
    0
271
    1
272
    4
273
    2
274
    2
275
    0
276
    0
277
    2
278
    0
279
    0
280
    0
281
    0
282
    0
283
    1
284
    0
285
    0
286
    0
288
    0
289
    3
340
cursive
341

371
   -2
372
   -2
  0
ENDTAB
  0
TABLE
  2
BLOCK_RECORD
  5
1
330
0
100
AcDbSymbolTable
 70
    2
  0
BLOCK_RECORD
  5
1F
330
1
100
AcDbSymbolTableRecord
100
AcDbBlockTableRecord
  2
*Model_Space
 70
    0
280
    1
281
    0
  0
BLOCK_RECORD
  5
1E
330
1
100
AcDbSymbolTableRecord
100
AcDbBlockTableRecord
  2
*Paper_Space
 70
    0
280
    1
281
    0
  0
BLOCK_RECORD
  5
52
330
1
100
AcDbSymbolTableRecord
100
AcDbBlockTableRecord
  2
*D3
 70
    0
280
    1
281
    0
  0
BLOCK_RECORD
  5
55
330
1
100
AcDbSymbolTableRecord
100
AcDbBlockTableRecord
  2
*D5
 70
    0
280
    1
281
    0
  0
BLOCK_RECORD
  5
58
330
1
100
AcDbSymbolTableRecord
100
AcDbBlockTableRecord
  2
*D1
 70
    0
280
    1
281
    0
  0
BLOCK_RECORD
  5
5B
330
1
100
AcDbSymbolTableRecord
100
AcDbBlockTableRecord
  2
*D9
 70
    0
280
    1
281
    0
  0
BLOCK_RECORD
  5
5E
330
1
100
AcDbSymbolTableRecord
100
AcDbBlockTableRecord
  2
*D8
 70
    0
280
    1
281
    0
  0
BLOCK_RECORD
  5
61
330
1
100
AcDbSymbolTableRecord
100
AcDbBlockTableRecord
  2
*D11
 70
    0
280
    1
281
    0
  0
BLOCK_RECORD
  5
64
330
1
100
AcDbSymbolTableRecord
100
AcDbBlockTableRecord
  2
*D2
 70
    0
280
    1
281
    0
  0
BLOCK_RECORD
  5
67
330
1
100
AcDbSymbolTableRecord
100
AcDbBlockTableRecord
  2
*D7
 70
    0
280
    1
281
    0
  0
BLOCK_RECORD
  5
6A
330
1
100
AcDbSymbolTableRecord
100
AcDbBlockTableRecord
  2
*D4
 70
    0
280
    1
281
    0
  0
BLOCK_RECORD
  5
6D
330
1
100
AcDbSymbolTableRecord
100
AcDbBlockTableRecord
  2
*D6
 70
    0
280
    1
281
    0
  0
BLOCK_RECORD
  5
70
330
1
100
AcDbSymbolTableRecord
100
AcDbBlockTableRecord
  2
*D10
 70
    0
280
    1
281
    0
  0
BLOCK_RECORD
  5
73
330
1
100
AcDbSymbolTableRecord
100
AcDbBlockTableRecord
  2
Wireling_Accelerometer_AST1001_REV1-DETAILED_DRAWING-DXF
 70
    0
280
    1
281
    0
  0
BLOCK_RECORD
  5
76
330
1
100
AcDbSymbolTableRecord
100
AcDbBlockTableRecord
  2
TinyLily_SWITCH_ASL1101_REV2-DETAILED_DRAWING-DXF
 70
    0
280
    1
281
    0
  0
ENDTAB
  0
ENDSEC
  0
SECTION
  2
BLOCKS
  0
BLOCK
  5
20
330
1F
100
AcDbEntity
  8
0
100
AcDbBlockBegin
  2
*Model_Space
 70
    0
 10
0
 20
0
 30
0
  3
*Model_Space
  1

  0
ENDBLK
  5
21
330
1F
100
AcDbEntity
  8
0
100
AcDbBlockEnd
  0
BLOCK
  5
1C
330
1B
100
AcDbEntity
  8
0
100
AcDbBlockBegin
  2
*Paper_Space
 70
    0
 10
0
 20
0
 30
0
  3
*Paper_Space
  1

  0
ENDBLK
  5
1D
330
1F
100
AcDbEntity
  8
0
100
AcDbBlockEnd
  0
BLOCK
  5
53
330
52
100
AcDbEntity
  8
0
100
AcDbBlockBegin
  2
*D3
 70
    1
 10
0
 20
0
  3
*D3
  1

  0
LINE
  5
79
100
AcDbEntity
  8
dim
  6
ByBlock
 62
    0
370
   -2
100
AcDbLine
 10
135.6511702088891
 20
103
 11
139.7511702088891
 21
103
  0
MTEXT
  5
7A
100
AcDbEntity
  8
dim
  6
CONTINUOUS
 62
    0
370
   -2
100
AcDbMText
 10
139.2543123143977
 20
103.9375
 30
0
 40
0.875
 41
1.506284211017288
 71
    5
 72
    1
  1
0.6
  7
cursive
210
0
220
0
230
1
 50
0
 73
    2
 44
1
  0
SOLID
  5
7B
100
AcDbEntity
  8
dim
  6
ByBlock
 62
    0
370
   -2
100
AcDbTrace
 10
137.4011702088891
 20
103
 30
0
 11
136.5261702088891
 21
102.8543003697795
 31
0
 12
136.5261702088891
 22
103.1456996302205
 32
0
 13
136.5261702088891
 23
103.1456996302205
 33
0
  0
SOLID
  5
7C
100
AcDbEntity
  8
dim
  6
ByBlock
 62
    0
370
   -2
100
AcDbTrace
 10
138.0011702088891
 20
103
 30
0
 11
138.8761702088891
 21
103.1456996302205
 31
0
 12
138.8761702088891
 22
102.8543003697795
 32
0
 13
138.8761702088891
 23
102.8543003697795
 33
0
  0
LINE
  5
7D
100
AcDbEntity
  8
dim
  6
ByBlock
 62
    0
370
   -2
100
AcDbLine
 10
137.4011702088891
 20
103.85
 11
137.4011702088891
 21
101.375
  0
LINE
  5
7E
100
AcDbEntity
  8
dim
  6
ByBlock
 62
    0
370
   -2
100
AcDbLine
 10
138.0011702088891
 20
103.85
 11
138.0011702088891
 21
101.375
  0
ENDBLK
  5
54
330
52
100
AcDbEntity
  8
0
100
AcDbBlockEnd
  0
BLOCK
  5
56
330
55
100
AcDbEntity
  8
0
100
AcDbBlockBegin
  2
*D5
 70
    1
 10
0
 20
0
  3
*D5
  1

  0
LINE
  5
7F
100
AcDbEntity
  8
dim
  6
ByBlock
 62
    0
370
   -2
100
AcDbLine
 10
124.3399511751014
 20
109.25
 11
124.3399511751014
 21
106.65
  0
MTEXT
  5
80
100
AcDbEntity
  8
dim
  6
CONTINUOUS
 62
    0
370
   -2
100
AcDbMText
 10
123.4024511751014
 20
107.95
 30
0
 40
0.875
 41
1.646687797979816
 71
    5
 72
    1
  1
2.6
  7
cursive
210
0
220
0
230
1
 50
90
 73
    2
 44
1
  0
SOLID
  5
81
100
AcDbEntity
  8
dim
  6
ByBlock
 62
    0
370
   -2
100
AcDbTrace
 10
124.3399511751014
 20
109.25
 30
0
 11
124.4856508053219
 21
108.375
 31
0
 12
124.1942515448809
 22
108.375
 32
0
 13
124.1942515448809
 23
108.375
 33
0
  0
SOLID
  5
82
100
AcDbEntity
  8
dim
  6
ByBlock
 62
    0
370
   -2
100
AcDbTrace
 10
124.3399511751014
 20
106.65
 30
0
 11
124.1942515448809
 21
107.525
 31
0
 12
124.4856508053219
 22
107.525
 32
0
 13
124.4856508053219
 23
107.525
 33
0
  0
LINE
  5
83
100
AcDbEntity
  8
dim
  6
ByBlock
 62
    0
370
   -2
100
AcDbLine
 10
126.0399511751014
 20
109.25
 11
122.7149511751014
 21
109.25
  0
LINE
  5
84
100
AcDbEntity
  8
dim
  6
ByBlock
 62
    0
370
   -2
100
AcDbLine
 10
126.0399511751014
 20
106.65
 11
122.7149511751014
 21
106.65
  0
ENDBLK
  5
57
330
55
100
AcDbEntity
  8
0
100
AcDbBlockEnd
  0
BLOCK
  5
59
330
58
100
AcDbEntity
  8
0
100
AcDbBlockBegin
  2
*D1
 70
    1
 10
0
 20
0
  3
*D1
  1

  0
LINE
  5
85
100
AcDbEntity
  8
dim
  6
ByBlock
 62
    0
370
   -2
100
AcDbLine
 10
136
 20
111.55
 11
136
 21
107.95
  0
MTEXT
  5
86
100
AcDbEntity
  8
dim
  6
CONTINUOUS
 62
    0
370
   -2
100
AcDbMText
 10
135.0625
 20
109.75
 30
0
 40
0.875
 41
1.645077676372928
 71
    5
 72
    1
  1
3.6
  7
cursive
210
0
220
0
230
1
 50
90
 73
    2
 44
1
  0
SOLID
  5
87
100
AcDbEntity
  8
dim
  6
ByBlock
 62
    0
370
   -2
100
AcDbTrace
 10
136
 20
111.55
 30
0
 11
136.1456996302205
 21
110.675
 31
0
 12
135.8543003697795
 22
110.675
 32
0
 13
135.8543003697795
 23
110.675
 33
0
  0
SOLID
  5
88
100
AcDbEntity
  8
dim
  6
ByBlock
 62
    0
370
   -2
100
AcDbTrace
 10
136
 20
107.95
 30
0
 11
135.8543003697795
 21
108.825
 31
0
 12
136.1456996302205
 22
108.825
 32
0
 13
136.1456996302205
 23
108.825
 33
0
  0
LINE
  5
89
100
AcDbEntity
  8
dim
  6
ByBlock
 62
    0
370
   -2
100
AcDbLine
 10
137.5011702088891
 20
111.55
 11
134.375
 21
111.55
  0
LINE
  5
8A
100
AcDbEntity
  8
dim
  6
ByBlock
 62
    0
370
   -2
100
AcDbLine
 10
138.1311702088891
 20
107.95
 11
134.375
 21
107.95
  0
ENDBLK
  5
5A
330
58
100
AcDbEntity
  8
0
100
AcDbBlockEnd
  0
BLOCK
  5
5C
330
5B
100
AcDbEntity
  8
0
100
AcDbBlockBegin
  2
*D9
 70
    1
 10
0
 20
0
  3
*D9
  1

  0
LINE
  5
8B
100
AcDbEntity
  8
dim
  6
ByBlock
 62
    0
370
   -2
100
AcDbLine
 10
155
 20
111.55
 11
155
 21
104.35
  0
MTEXT
  5
8C
100
AcDbEntity
  8
dim
  6
CONTINUOUS
 62
    0
370
   -2
100
AcDbMText
 10
154.0625
 20
107.95
 30
0
 40
0.875
 41
1.604407797979816
 71
    5
 72
    1
  1
7.2
  7
cursive
210
0
220
0
230
1
 50
90
 73
    2
 44
1
  0
SOLID
  5
8D
100
AcDbEntity
  8
dim
  6
ByBlock
 62
    0
370
   -2
100
AcDbTrace
 10
155
 20
111.55
 30
0
 11
155.1456996302205
 21
110.675
 31
0
 12
154.8543003697795
 22
110.675
 32
0
 13
154.8543003697795
 23
110.675
 33
0
  0
SOLID
  5
8E
100
AcDbEntity
  8
dim
  6
ByBlock
 62
    0
370
   -2
100
AcDbTrace
 10
155
 20
104.35
 30
0
 11
154.8543003697795
 21
105.225
 31
0
 12
155.1456996302205
 22
105.225
 32
0
 13
155.1456996302205
 23
105.225
 33
0
  0
LINE
  5
8F
100
AcDbEntity
  8
dim
  6
ByBlock
 62
    0
370
   -2
100
AcDbLine
 10
148.815
 20
111.55
 11
156.625
 21
111.55
  0
LINE
  5
90
100
AcDbEntity
  8
dim
  6
ByBlock
 62
    0
370
   -2
100
AcDbLine
 10
148.815
 20
104.35
 11
156.625
 21
104.35
  0
ENDBLK
  5
5D
330
5B
100
AcDbEntity
  8
0
100
AcDbBlockEnd
  0
BLOCK
  5
5F
330
5E
100
AcDbEntity
  8
0
100
AcDbBlockBegin
  2
*D8
 70
    1
 10
0
 20
0
  3
*D8
  1

  0
LINE
  5
91
100
AcDbEntity
  8
dim
  6
ByBlock
 62
    0
370
   -2
100
AcDbLine
 10
152
 20
110.45
 11
152
 21
105.45
  0
MTEXT
  5
92
100
AcDbEntity
  8
dim
  6
CONTINUOUS
 62
    0
370
   -2
100
AcDbMText
 10
151.0625
 20
107.95
 30
0
 40
0.875
 41
0.6234861111111112
 71
    5
 72
    1
  1
5
  7
cursive
210
0
220
0
230
1
 50
90
 73
    2
 44
1
  0
SOLID
  5
93
100
AcDbEntity
  8
dim
  6
ByBlock
 62
    0
370
   -2
100
AcDbTrace
 10
152
 20
110.45
 30
0
 11
152.1456996302205
 21
109.575
 31
0
 12
151.8543003697795
 22
109.575
 32
0
 13
151.8543003697795
 23
109.575
 33
0
  0
SOLID
  5
94
100
AcDbEntity
  8
dim
  6
ByBlock
 62
    0
370
   -2
100
AcDbTrace
 10
152
 20
105.45
 30
0
 11
151.8543003697795
 21
106.325
 31
0
 12
152.1456996302205
 22
106.325
 32
0
 13
152.1456996302205
 23
106.325
 33
0
  0
LINE
  5
95
100
AcDbEntity
  8
dim
  6
ByBlock
 62
    0
370
   -2
100
AcDbLine
 10
148.815
 20
110.45
 11
153.625
 21
110.45
  0
LINE
  5
96
100
AcDbEntity
  8
dim
  6
ByBlock
 62
    0
370
   -2
100
AcDbLine
 10
148.815
 20
105.45
 11
153.625
 21
105.45
  0
ENDBLK
  5
60
330
5E
100
AcDbEntity
  8
0
100
AcDbBlockEnd
  0
BLOCK
  5
62
330
61
100
AcDbEntity
  8
0
100
AcDbBlockBegin
  2
*D11
 70
    1
 10
0
 20
0
  3
*D11
  1

  0
LINE
  5
97
100
AcDbEntity
  8
dim
  6
ByBlock
 62
    0
370
   -2
100
AcDbLine
 10
145
 20
113.3
 11
145
 21
108.7
  0
MTEXT
  5
98
100
AcDbEntity
  8
dim
  6
CONTINUOUS
 62
    0
370
   -2
100
AcDbMText
 10
144
 20
109
 30
0
 40
0.875
 41
1.089450833333333
 71
    5
 72
    1
  1
1.1
  7
cursive
210
0
220
0
230
1
 50
90
 73
    2
 44
1
  0
SOLID
  5
99
100
AcDbEntity
  8
dim
  6
ByBlock
 62
    0
370
   -2
100
AcDbTrace
 10
145
 20
111.55
 30
0
 11
144.8543003697795
 21
112.425
 31
0
 12
145.1456996302205
 22
112.425
 32
0
 13
145.1456996302205
 23
112.425
 33
0
  0
SOLID
  5
9A
100
AcDbEntity
  8
dim
  6
ByBlock
 62
    0
370
   -2
100
AcDbTrace
 10
145
 20
110.45
 30
0
 11
145.1456996302205
 21
109.575
 31
0
 12
144.8543003697795
 22
109.575
 32
0
 13
144.8543003697795
 23
109.575
 33
0
  0
LINE
  5
9B
100
AcDbEntity
  8
dim
  6
ByBlock
 62
    0
370
   -2
100
AcDbLine
 10
147.815
 20
111.55
 11
143.375
 21
111.55
  0
LINE
  5
9C
100
AcDbEntity
  8
dim
  6
ByBlock
 62
    0
370
   -2
100
AcDbLine
 10
147.815
 20
110.45
 11
143.375
 21
110.45
  0
ENDBLK
  5
63
330
61
100
AcDbEntity
  8
0
100
AcDbBlockEnd
  0
BLOCK
  5
65
330
64
100
AcDbEntity
  8
0
100
AcDbBlockBegin
  2
*D2
 70
    1
 10
0
 20
0
  3
*D2
  1

  0
LINE
  5
9D
100
AcDbEntity
  8
dim
  6
ByBlock
 62
    0
370
   -2
100
AcDbLine
 10
135.6511702088891
 20
113
 11
140.3811702088891
 21
113
  0
MTEXT
  5
9E
100
AcDbEntity
  8
dim
  6
CONTINUOUS
 62
    0
370
   -2
100
AcDbMText
 10
139.8422000801012
 20
113.9375
 30
0
 40
0.875
 41
1.42205974242426
 71
    5
 72
    1
  1
1.2
  7
cursive
210
0
220
0
230
1
 50
0
 73
    2
 44
1
  0
SOLID
  5
9F
100
AcDbEntity
  8
dim
  6
ByBlock
 62
    0
370
   -2
100
AcDbTrace
 10
137.4011702088891
 20
113
 30
0
 11
136.5261702088891
 21
112.8543003697795
 31
0
 12
136.5261702088891
 22
113.1456996302205
 32
0
 13
136.5261702088891
 23
113.1456996302205
 33
0
  0
SOLID
  5
A0
100
AcDbEntity
  8
dim
  6
ByBlock
 62
    0
370
   -2
100
AcDbTrace
 10
138.6311702088891
 20
113
 30
0
 11
139.5061702088891
 21
113.1456996302205
 31
0
 12
139.5061702088891
 22
112.8543003697795
 32
0
 13
139.5061702088891
 23
112.8543003697795
 33
0
  0
LINE
  5
A1
100
AcDbEntity
  8
dim
  6
ByBlock
 62
    0
370
   -2
100
AcDbLine
 10
137.4011702088891
 20
112.05
 11
137.4011702088891
 21
114.625
  0
LINE
  5
A2
100
AcDbEntity
  8
dim
  6
ByBlock
 62
    0
370
   -2
100
AcDbLine
 10
138.6311702088891
 20
108.45
 11
138.6311702088891
 21
114.625
  0
ENDBLK
  5
66
330
64
100
AcDbEntity
  8
0
100
AcDbBlockEnd
  0
BLOCK
  5
68
330
67
100
AcDbEntity
  8
0
100
AcDbBlockBegin
  2
*D7
 70
    1
 10
0
 20
0
  3
*D7
  1

  0
LINE
  5
A3
100
AcDbEntity
  8
dim
  6
ByBlock
 62
    0
370
   -2
100
AcDbLine
 10
144.565
 20
113
 11
150.065
 21
113
  0
MTEXT
  5
A4
100
AcDbEntity
  8
dim
  6
CONTINUOUS
 62
    0
370
   -2
100
AcDbMText
 10
147.315
 20
113.9375
 30
0
 40
0.875
 41
0.5791615479798157
 71
    5
 72
    1
  1
2
  7
cursive
210
0
220
0
230
1
 50
0
 73
    2
 44
1
  0
SOLID
  5
A5
100
AcDbEntity
  8
dim
  6
ByBlock
 62
    0
370
   -2
100
AcDbTrace
 10
146.315
 20
113
 30
0
 11
145.44
 21
112.8543003697795
 31
0
 12
145.44
 22
113.1456996302205
 32
0
 13
145.44
 23
113.1456996302205
 33
0
  0
SOLID
  5
A6
100
AcDbEntity
  8
dim
  6
ByBlock
 62
    0
370
   -2
100
AcDbTrace
 10
148.315
 20
113
 30
0
 11
149.19
 21
113.1456996302205
 31
0
 12
149.19
 22
112.8543003697795
 32
0
 13
149.19
 23
112.8543003697795
 33
0
  0
LINE
  5
A7
100
AcDbEntity
  8
dim
  6
ByBlock
 62
    0
370
   -2
100
AcDbLine
 10
146.315
 20
110.05
 11
146.315
 21
114.625
  0
LINE
  5
A8
100
AcDbEntity
  8
dim
  6
ByBlock
 62
    0
370
   -2
100
AcDbLine
 10
148.315
 20
112.05
 11
148.315
 21
114.625
  0
ENDBLK
  5
69
330
67
100
AcDbEntity
  8
0
100
AcDbBlockEnd
  0
BLOCK
  5
6B
330
6A
100
AcDbEntity
  8
0
100
AcDbBlockBegin
  2
*D4
 70
    1
 10
0
 20
0
  3
*D4
  1

  0
LINE
  5
A9
100
AcDbEntity
  8
dim
  6
ByBlock
 62
    0
370
   -2
100
AcDbLine
 10
124.2899511751014
 20
113
 11
129.7899511751014
 21
113
  0
MTEXT
  5
AA
100
AcDbEntity
  8
dim
  6
CONTINUOUS
 62
    0
370
   -2
100
AcDbMText
 10
127.0399511751014
 20
113.9375
 30
0
 40
0.875
 41
0.5791615479798157
 71
    5
 72
    1
  1
2
  7
cursive
210
0
220
0
230
1
 50
0
 73
    2
 44
1
  0
SOLID
  5
AB
100
AcDbEntity
  8
dim
  6
ByBlock
 62
    0
370
   -2
100
AcDbTrace
 10
126.0399511751014
 20
113
 30
0
 11
125.1649511751014
 21
112.8543003697795
 31
0
 12
125.1649511751014
 22
113.1456996302205
 32
0
 13
125.1649511751014
 23
113.1456996302205
 33
0
  0
SOLID
  5
AC
100
AcDbEntity
  8
dim
  6
ByBlock
 62
    0
370
   -2
100
AcDbTrace
 10
128.0399511751014
 20
113
 30
0
 11
128.9149511751014
 21
113.1456996302205
 31
0
 12
128.9149511751014
 22
112.8543003697795
 32
0
 13
128.9149511751014
 23
112.8543003697795
 33
0
  0
LINE
  5
AD
100
AcDbEntity
  8
dim
  6
ByBlock
 62
    0
370
   -2
100
AcDbLine
 10
126.0399511751014
 20
110.05
 11
126.0399511751014
 21
114.625
  0
LINE
  5
AE
100
AcDbEntity
  8
dim
  6
ByBlock
 62
    0
370
   -2
100
AcDbLine
 10
128.0399511751014
 20
109.75
 11
128.0399511751014
 21
114.625
  0
ENDBLK
  5
6C
330
6A
100
AcDbEntity
  8
0
100
AcDbBlockEnd
  0
BLOCK
  5
6E
330
6D
100
AcDbEntity
  8
0
100
AcDbBlockBegin
  2
*D6
 70
    1
 10
0
 20
0
  3
*D6
  1

  0
LINE
  5
AF
100
AcDbEntity
  8
dim
  6
ByBlock
 62
    0
370
   -2
100
AcDbLine
 10
126.5399511751014
 20
102
 11
129.5399511751014
 21
102
  0
MTEXT
  5
B0
100
AcDbEntity
  8
dim
  6
CONTINUOUS
 62
    0
370
   -2
100
AcDbMText
 10
128.0399511751014
 20
102.9375
 30
0
 40
0.875
 41
0.5775514263729283
 71
    5
 72
    1
  1
3
  7
cursive
210
0
220
0
230
1
 50
0
 73
    2
 44
1
  0
SOLID
  5
B1
100
AcDbEntity
  8
dim
  6
ByBlock
 62
    0
370
   -2
100
AcDbTrace
 10
126.5399511751014
 20
102
 30
0
 11
127.4149511751014
 21
102.1456996302205
 31
0
 12
127.4149511751014
 22
101.8543003697795
 32
0
 13
127.4149511751014
 23
101.8543003697795
 33
0
  0
SOLID
  5
B2
100
AcDbEntity
  8
dim
  6
ByBlock
 62
    0
370
   -2
100
AcDbTrace
 10
129.5399511751014
 20
102
 30
0
 11
128.6649511751014
 21
101.8543003697795
 31
0
 12
128.6649511751014
 22
102.1456996302205
 32
0
 13
128.6649511751014
 23
102.1456996302205
 33
0
  0
LINE
  5
B3
100
AcDbEntity
  8
dim
  6
ByBlock
 62
    0
370
   -2
100
AcDbLine
 10
126.5399511751014
 20
106.15
 11
126.5399511751014
 21
100.375
  0
LINE
  5
B4
100
AcDbEntity
  8
dim
  6
ByBlock
 62
    0
370
   -2
100
AcDbLine
 10
129.5399511751014
 20
106.15
 11
129.5399511751014
 21
100.375
  0
ENDBLK
  5
6F
330
6D
100
AcDbEntity
  8
0
100
AcDbBlockEnd
  0
BLOCK
  5
71
330
70
100
AcDbEntity
  8
0
100
AcDbBlockBegin
  2
*D10
 70
    1
 10
0
 20
0
  3
*D10
  1

  0
LINE
  5
B5
100
AcDbEntity
  8
dim
  6
ByBlock
 62
    0
370
   -2
100
AcDbLine
 10
146.315
 20
102
 11
150.315
 21
102
  0
MTEXT
  5
B6
100
AcDbEntity
  8
dim
  6
CONTINUOUS
 62
    0
370
   -2
100
AcDbMText
 10
148.315
 20
102.9375
 30
0
 40
0.875
 41
0.4861111111111111
 71
    5
 72
    1
  1
4
  7
cursive
210
0
220
0
230
1
 50
0
 73
    2
 44
1
  0
SOLID
  5
B7
100
AcDbEntity
  8
dim
  6
ByBlock
 62
    0
370
   -2
100
AcDbTrace
 10
146.315
 20
102
 30
0
 11
147.19
 21
102.1456996302205
 31
0
 12
147.19
 22
101.8543003697795
 32
0
 13
147.19
 23
101.8543003697795
 33
0
  0
SOLID
  5
B8
100
AcDbEntity
  8
dim
  6
ByBlock
 62
    0
370
   -2
100
AcDbTrace
 10
150.315
 20
102
 30
0
 11
149.44
 21
101.8543003697795
 31
0
 12
149.44
 22
102.1456996302205
 32
0
 13
149.44
 23
102.1456996302205
 33
0
  0
LINE
  5
B9
100
AcDbEntity
  8
dim
  6
ByBlock
 62
    0
370
   -2
100
AcDbLine
 10
146.315
 20
105.85
 11
146.315
 21
100.375
  0
LINE
  5
BA
100
AcDbEntity
  8
dim
  6
ByBlock
 62
    0
370
   -2
100
AcDbLine
 10
150.315
 20
105.85
 11
150.315
 21
100.375
  0
ENDBLK
  5
72
330
70
100
AcDbEntity
  8
0
100
AcDbBlockEnd
  0
BLOCK
  5
74
330
73
100
AcDbEntity
  8
0
100
AcDbBlockBegin
  2
Wireling_Accelerometer_AST1001_REV1-DETAILED_DRAWING-DXF
 70
    0
 10
0
 20
0
  3
Wireling_Accelerometer_AST1001_REV1-DETAILED_DRAWING-DXF
  1

  0
ENDBLK
  5
75
330
73
100
AcDbEntity
  8
0
100
AcDbBlockEnd
  0
BLOCK
  5
77
330
76
100
AcDbEntity
  8
0
100
AcDbBlockBegin
  2
TinyLily_SWITCH_ASL1101_REV2-DETAILED_DRAWING-DXF
 70
    0
 10
0
 20
0
  3
TinyLily_SWITCH_ASL1101_REV2-DETAILED_DRAWING-DXF
  1

  0
LINE
  5
BB
100
AcDbEntity
  8
ProjItem
  6
ByLayer
 62
  256
370
   -1
100
AcDbLine
 10
131.2
 20
106.65
 11
128.2
 21
106.65
  0
LINE
  5
BC
100
AcDbEntity
  8
ProjItem
  6
ByLayer
 62
  256
370
   -1
100
AcDbLine
 10
131.2
 20
109.25
 11
131.2
 21
106.65
  0
LINE
  5
BD
100
AcDbEntity
  8
ProjItem
  6
ByLayer
 62
  256
370
   -1
100
AcDbLine
 10
128.2
 20
106.65
 11
128.2
 21
109.25
  0
LINE
  5
BE
100
AcDbEntity
  8
ProjItem
  6
ByLayer
 62
  256
370
   -1
100
AcDbLine
 10
128.2
 20
109.25
 11
131.2
 21
109.25
  0
CIRCLE
  5
BF
100
AcDbEntity
  8
ProjItem
  6
ByLayer
 62
  256
370
   -1
100
AcDbCircle
 10
129.7
 20
107.95
 40
1.05
  0
LINE
  5
C0
100
AcDbEntity
  8
ProjItem
  6
ByLayer
 62
  256
370
   -1
100
AcDbLine
 10
131.2
 20
109.15
 11
131.4
 21
109.15
  0
LINE
  5
C1
100
AcDbEntity
  8
ProjItem
  6
ByLayer
 62
  256
370
   -1
100
AcDbLine
 10
131.4
 20
109.15
 11
131.446
 21
109.15
  0
LINE
  5
C2
100
AcDbEntity
  8
ProjItem
  6
ByLayer
 62
  256
370
   -1
100
AcDbLine
 10
131.2
 20
108.65
 11
131.4
 21
108.65
  0
LINE
  5
C3
100
AcDbEntity
  8
ProjItem
  6
ByLayer
 62
  256
370
   -1
100
AcDbLine
 10
131.4
 20
109.15
 11
131.4
 21
108.65
  0
LINE
  5
C4
100
AcDbEntity
  8
ProjItem
  6
ByLayer
 62
  256
370
   -1
100
AcDbLine
 10
131.4
 20
108.65
 11
131.446
 21
108.65
  0
LINE
  5
C5
100
AcDbEntity
  8
ProjItem
  6
ByLayer
 62
  256
370
   -1
100
AcDbLine
 10
131.2
 20
107.25
 11
131.4
 21
107.25
  0
LINE
  5
C6
100
AcDbEntity
  8
ProjItem
  6
ByLayer
 62
  256
370
   -1
100
AcDbLine
 10
131.4
 20
107.25
 11
131.446
 21
107.25
  0
LINE
  5
C7
100
AcDbEntity
  8
ProjItem
  6
ByLayer
 62
  256
370
   -1
100
AcDbLine
 10
131.4
 20
106.75
 11
131.4
 21
107.25
  0
LINE
  5
C8
100
AcDbEntity
  8
ProjItem
  6
ByLayer
 62
  256
370
   -1
100
AcDbLine
 10
131.2
 20
106.75
 11
131.4
 21
106.75
  0
LINE
  5
C9
100
AcDbEntity
  8
ProjItem
  6
ByLayer
 62
  256
370
   -1
100
AcDbLine
 10
131.4
 20
106.75
 11
131.446
 21
106.75
  0
LINE
  5
CA
100
AcDbEntity
  8
ProjItem
  6
ByLayer
 62
  256
370
   -1
100
AcDbLine
 10
128.2
 20
106.75
 11
128
 21
106.75
  0
LINE
  5
CB
100
AcDbEntity
  8
ProjItem
  6
ByLayer
 62
  256
370
   -1
100
AcDbLine
 10
128
 20
106.75
 11
127.954
 21
106.75
  0
LINE
  5
CC
100
AcDbEntity
  8
ProjItem
  6
ByLayer
 62
  256
370
   -1
100
AcDbLine
 10
128.2
 20
107.25
 11
128
 21
107.25
  0
LINE
  5
CD
100
AcDbEntity
  8
ProjItem
  6
ByLayer
 62
  256
370
   -1
100
AcDbLine
 10
128
 20
106.75
 11
128
 21
107.25
  0
LINE
  5
CE
100
AcDbEntity
  8
ProjItem
  6
ByLayer
 62
  256
370
   -1
100
AcDbLine
 10
128
 20
107.25
 11
127.954
 21
107.25
  0
LINE
  5
CF
100
AcDbEntity
  8
ProjItem
  6
ByLayer
 62
  256
370
   -1
100
AcDbLine
 10
128.2
 20
108.65
 11
128
 21
108.65
  0
LINE
  5
D0
100
AcDbEntity
  8
ProjItem
  6
ByLayer
 62
  256
370
   -1
100
AcDbLine
 10
128
 20
108.65
 11
127.954
 21
108.65
  0
LINE
  5
D1
100
AcDbEntity
  8
ProjItem
  6
ByLayer
 62
  256
370
   -1
100
AcDbLine
 10
128
 20
109.15
 11
128
 21
108.65
  0
LINE
  5
D2
100
AcDbEntity
  8
ProjItem
  6
ByLayer
 62
  256
370
   -1
100
AcDbLine
 10
128.2
 20
109.15
 11
128
 21
109.15
  0
LINE
  5
D3
100
AcDbEntity
  8
ProjItem
  6
ByLayer
 62
  256
370
   -1
100
AcDbLine
 10
128
 20
109.15
 11
127.954
 21
109.15
  0
CIRCLE
  5
D4
100
AcDbEntity
  8
ProjItem
  6
ByLayer
 62
  256
370
   -1
100
AcDbCircle
 10
129.7
 20
107.95
 40
0.41
  0
LINE
  5
D5
100
AcDbEntity
  8
ProjItem
  6
ByLayer
 62
  256
370
   -1
100
AcDbLine
 10
131.446
 20
109.15
 11
131.446
 21
108.65
  0
LINE
  5
D6
100
AcDbEntity
  8
ProjItem
  6
ByLayer
 62
  256
370
   -1
100
AcDbLine
 10
131.446
 20
106.75
 11
131.446
 21
107.25
  0
LINE
  5
D7
100
AcDbEntity
  8
ProjItem
  6
ByLayer
 62
  256
370
   -1
100
AcDbLine
 10
127.954
 20
106.75
 11
127.954
 21
107.25
  0
LINE
  5
D8
100
AcDbEntity
  8
ProjItem
  6
ByLayer
 62
  256
370
   -1
100
AcDbLine
 10
127.954
 20
109.15
 11
127.954
 21
108.65
  0
CIRCLE
  5
D9
100
AcDbEntity
  8
ProjItem
  6
ByLayer
 62
  256
370
   -1
100
AcDbCircle
 10
129.7
 20
105.45
 40
0.93345
  0
CIRCLE
  5
DA
100
AcDbEntity
  8
ProjItem
  6
ByLayer
 62
  256
370
   -1
100
AcDbCircle
 10
129.7
 20
105.45
 40
0.601
  0
CIRCLE
  5
DB
100
AcDbEntity
  8
ProjItem
  6
ByLayer
 62
  256
370
   -1
100
AcDbCircle
 10
129.7
 20
110.45
 40
0.93345
  0
CIRCLE
  5
DC
100
AcDbEntity
  8
ProjItem
  6
ByLayer
 62
  256
370
   -1
100
AcDbCircle
 10
129.7
 20
110.45
 40
0.601
  0
LINE
  5
DD
100
AcDbEntity
  8
ProjItem
  6
ByLayer
 62
  256
370
   -1
100
AcDbLine
 10
131.451
 20
107.35
 11
131.2
 21
107.35
  0
LINE
  5
DE
100
AcDbEntity
  8
ProjItem
  6
ByLayer
 62
  256
370
   -1
100
AcDbLine
 10
131.2
 20
106.65
 11
131.451
 21
106.65
  0
ARC
  5
DF
100
AcDbEntity
  8
ProjItem
  6
ByLayer
 62
  256
370
   -1
100
AcDbCircle
 10
131.451
 20
106.699
 40
0.04875
100
AcDbArc
 50
-90
 51
0
  0
LINE
  5
E0
100
AcDbEntity
  8
ProjItem
  6
ByLayer
 62
  256
370
   -1
100
AcDbLine
 10
131.5
 20
106.699
 11
131.5
 21
107.301
  0
ARC
  5
E1
100
AcDbEntity
  8
ProjItem
  6
ByLayer
 62
  256
370
   -1
100
AcDbCircle
 10
131.451
 20
107.301
 40
0.04875
100
AcDbArc
 50
1.6702e-11
 51
90
  0
LINE
  5
E2
100
AcDbEntity
  8
ProjItem
  6
ByLayer
 62
  256
370
   -1
100
AcDbLine
 10
128.2
 20
107.35
 11
127.949
 21
107.35
  0
ARC
  5
E3
100
AcDbEntity
  8
ProjItem
  6
ByLayer
 62
  256
370
   -1
100
AcDbCircle
 10
127.949
 20
107.301
 40
0.04875
100
AcDbArc
 50
90
 51
180
  0
LINE
  5
E4
100
AcDbEntity
  8
ProjItem
  6
ByLayer
 62
  256
370
   -1
100
AcDbLine
 10
127.9
 20
107.301
 11
127.9
 21
106.699
  0
ARC
  5
E5
100
AcDbEntity
  8
ProjItem
  6
ByLayer
 62
  256
370
   -1
100
AcDbCircle
 10
127.949
 20
106.699
 40
0.04875
100
AcDbArc
 50
180
 51
-90
  0
LINE
  5
E6
100
AcDbEntity
  8
ProjItem
  6
ByLayer
 62
  256
370
   -1
100
AcDbLine
 10
127.949
 20
106.65
 11
128.2
 21
106.65
  0
LINE
  5
E7
100
AcDbEntity
  8
ProjItem
  6
ByLayer
 62
  256
370
   -1
100
AcDbLine
 10
131.451
 20
109.25
 11
131.2
 21
109.25
  0
LINE
  5
E8
100
AcDbEntity
  8
ProjItem
  6
ByLayer
 62
  256
370
   -1
100
AcDbLine
 10
131.2
 20
108.55
 11
131.451
 21
108.55
  0
ARC
  5
E9
100
AcDbEntity
  8
ProjItem
  6
ByLayer
 62
  256
370
   -1
100
AcDbCircle
 10
131.451
 20
108.599
 40
0.04875
100
AcDbArc
 50
-90
 51
0
  0
LINE
  5
EA
100
AcDbEntity
  8
ProjItem
  6
ByLayer
 62
  256
370
   -1
100
AcDbLine
 10
131.5
 20
108.599
 11
131.5
 21
109.201
  0
ARC
  5
EB
100
AcDbEntity
  8
ProjItem
  6
ByLayer
 62
  256
370
   -1
100
AcDbCircle
 10
131.451
 20
109.201
 40
0.04875
100
AcDbArc
 50
0
 51
90
  0
LINE
  5
EC
100
AcDbEntity
  8
ProjItem
  6
ByLayer
 62
  256
370
   -1
100
AcDbLine
 10
128.2
 20
109.25
 11
127.949
 21
109.25
  0
ARC
  5
ED
100
AcDbEntity
  8
ProjItem
  6
ByLayer
 62
  256
370
   -1
100
AcDbCircle
 10
127.949
 20
109.201
 40
0.04875
100
AcDbArc
 50
90
 51
180
  0
LINE
  5
EE
100
AcDbEntity
  8
ProjItem
  6
ByLayer
 62
  256
370
   -1
100
AcDbLine
 10
127.9
 20
109.201
 11
127.9
 21
108.599
  0
ARC
  5
EF
100
AcDbEntity
  8
ProjItem
  6
ByLayer
 62
  256
370
   -1
100
AcDbCircle
 10
127.949
 20
108.599
 40
0.04875
100
AcDbArc
 50
-180
 51
-90
  0
LINE
  5
F0
100
AcDbEntity
  8
ProjItem
  6
ByLayer
 62
  256
370
   -1
100
AcDbLine
 10
127.949
 20
108.55
 11
128.2
 21
108.55
  0
CIRCLE
  5
F1
100
AcDbEntity
  8
ProjItem
  6
ByLayer
 62
  256
370
   -1
100
AcDbCircle
 10
129.7
 20
105.45
 40
0.93345
  0
CIRCLE
  5
F2
100
AcDbEntity
  8
ProjItem
  6
ByLayer
 62
  256
370
   -1
100
AcDbCircle
 10
129.7
 20
105.45
 40
0.601
  0
CIRCLE
  5
F3
100
AcDbEntity
  8
ProjItem
  6
ByLayer
 62
  256
370
   -1
100
AcDbCircle
 10
129.7
 20
110.45
 40
0.93345
  0
CIRCLE
  5
F4
100
AcDbEntity
  8
ProjItem
  6
ByLayer
 62
  256
370
   -1
100
AcDbCircle
 10
129.7
 20
110.45
 40
0.601
  0
LINE
  5
F5
100
AcDbEntity
  8
ProjItem
  6
ByLayer
 62
  256
370
   -1
100
AcDbLine
 10
131.451
 20
107.35
 11
131.2
 21
107.35
  0
LINE
  5
F6
100
AcDbEntity
  8
ProjItem
  6
ByLayer
 62
  256
370
   -1
100
AcDbLine
 10
131.2
 20
106.65
 11
131.451
 21
106.65
  0
ARC
  5
F7
100
AcDbEntity
  8
ProjItem
  6
ByLayer
 62
  256
370
   -1
100
AcDbCircle
 10
131.451
 20
106.699
 40
0.04875
100
AcDbArc
 50
-90
 51
0
  0
LINE
  5
F8
100
AcDbEntity
  8
ProjItem
  6
ByLayer
 62
  256
370
   -1
100
AcDbLine
 10
131.5
 20
106.699
 11
131.5
 21
107.301
  0
ARC
  5
F9
100
AcDbEntity
  8
ProjItem
  6
ByLayer
 62
  256
370
   -1
100
AcDbCircle
 10
131.451
 20
107.301
 40
0.04875
100
AcDbArc
 50
1.6702e-11
 51
90
  0
LINE
  5
FA
100
AcDbEntity
  8
ProjItem
  6
ByLayer
 62
  256
370
   -1
100
AcDbLine
 10
128.2
 20
107.35
 11
127.949
 21
107.35
  0
ARC
  5
FB
100
AcDbEntity
  8
ProjItem
  6
ByLayer
 62
  256
370
   -1
100
AcDbCircle
 10
127.949
 20
107.301
 40
0.04875
100
AcDbArc
 50
90
 51
180
  0
LINE
  5
FC
100
AcDbEntity
  8
ProjItem
  6
ByLayer
 62
  256
370
   -1
100
AcDbLine
 10
127.9
 20
107.301
 11
127.9
 21
106.699
  0
ARC
  5
FD
100
AcDbEntity
  8
ProjItem
  6
ByLayer
 62
  256
370
   -1
100
AcDbCircle
 10
127.949
 20
106.699
 40
0.04875
100
AcDbArc
 50
180
 51
-90
  0
LINE
  5
FE
100
AcDbEntity
  8
ProjItem
  6
ByLayer
 62
  256
370
   -1
100
AcDbLine
 10
127.949
 20
106.65
 11
128.2
 21
106.65
  0
LINE
  5
FF
100
AcDbEntity
  8
ProjItem
  6
ByLayer
 62
  256
370
   -1
100
AcDbLine
 10
131.451
 20
109.25
 11
131.2
 21
109.25
  0
LINE
  5
100
100
AcDbEntity
  8
ProjItem
  6
ByLayer
 62
  256
370
   -1
100
AcDbLine
 10
131.2
 20
108.55
 11
131.451
 21
108.55
  0
ARC
  5
101
100
AcDbEntity
  8
ProjItem
  6
ByLayer
 62
  256
370
   -1
100
AcDbCircle
 10
131.451
 20
108.599
 40
0.04875
100
AcDbArc
 50
-90
 51
0
  0
LINE
  5
102
100
AcDbEntity
  8
ProjItem
  6
ByLayer
 62
  256
370
   -1
100
AcDbLine
 10
131.5
 20
108.599
 11
131.5
 21
109.201
  0
ARC
  5
103
100
AcDbEntity
  8
ProjItem
  6
ByLayer
 62
  256
370
   -1
100
AcDbCircle
 10
131.451
 20
109.201
 40
0.04875
100
AcDbArc
 50
0
 51
90
  0
LINE
  5
104
100
AcDbEntity
  8
ProjItem
  6
ByLayer
 62
  256
370
   -1
100
AcDbLine
 10
128.2
 20
109.25
 11
127.949
 21
109.25
  0
ARC
  5
105
100
AcDbEntity
  8
ProjItem
  6
ByLayer
 62
  256
370
   -1
100
AcDbCircle
 10
127.949
 20
109.201
 40
0.04875
100
AcDbArc
 50
90
 51
180
  0
LINE
  5
106
100
AcDbEntity
  8
ProjItem
  6
ByLayer
 62
  256
370
   -1
100
AcDbLine
 10
127.9
 20
109.201
 11
127.9
 21
108.599
  0
ARC
  5
107
100
AcDbEntity
  8
ProjItem
  6
ByLayer
 62
  256
370
   -1
100
AcDbCircle
 10
127.949
 20
108.599
 40
0.04875
100
AcDbArc
 50
-180
 51
-90
  0
LINE
  5
108
100
AcDbEntity
  8
ProjItem
  6
ByLayer
 62
  256
370
   -1
100
AcDbLine
 10
127.949
 20
108.55
 11
128.2
 21
108.55
  0
LINE
  5
109
100
AcDbEntity
  8
ProjItem
  6
ByLayer
 62
  256
370
   -1
100
AcDbLine
 10
131.7
 20
109.55
 11
131.7
 21
106.35
  0
ARC
  5
10A
100
AcDbEntity
  8
ProjItem
  6
ByLayer
 62
  256
370
   -1
100
AcDbCircle
 10
129.7
 20
109.55
 40
2
100
AcDbArc
 50
4.07111e-13
 51
180
  0
ARC
  5
10B
100
AcDbEntity
  8
ProjItem
  6
ByLayer
 62
  256
370
   -1
100
AcDbCircle
 10
129.7
 20
106.35
 40
2
100
AcDbArc
 50
-180
 51
0
  0
LINE
  5
10C
100
AcDbEntity
  8
ProjItem
  6
ByLayer
 62
  256
370
   -1
100
AcDbLine
 10
127.7
 20
106.35
 11
127.7
 21
109.55
  0
LINE
  5
10D
100
AcDbEntity
  8
ProjItem
  6
ByLayer
 62
  256
370
   -1
100
AcDbLine
 10
131.7
 20
109.55
 11
131.7
 21
106.35
  0
ARC
  5
10E
100
AcDbEntity
  8
ProjItem
  6
ByLayer
 62
  256
370
   -1
100
AcDbCircle
 10
129.7
 20
109.55
 40
2
100
AcDbArc
 50
4.07111e-13
 51
180
  0
ARC
  5
10F
100
AcDbEntity
  8
ProjItem
  6
ByLayer
 62
  256
370
   -1
100
AcDbCircle
 10
129.7
 20
106.35
 40
2
100
AcDbArc
 50
-180
 51
0
  0
LINE
  5
110
100
AcDbEntity
  8
ProjItem
  6
ByLayer
 62
  256
370
   -1
100
AcDbLine
 10
127.7
 20
106.35
 11
127.7
 21
109.55
  0
SPLINE
  5
111
100
AcDbEntity
  8
ProjItem
  6
ByLayer
 62
  256
370
   -1
100
AcDbSpline
210
0
220
0
230
0
 70
    8
 71
    1
 72
    4
 73
    2
 74
    0
 42
1e-07
 43
1e-07
 40
0
 40
0
 40
1
 40
1
 10
128.65
 20
107.95
 30
0
 10
129.29
 20
107.95
 30
0
  0
LINE
  5
112
100
AcDbEntity
  8
ProjItem001
  6
ByLayer
 62
  256
370
   -1
100
AcDbLine
 10
137.3
 20
106.65
 11
137.3
 21
106.65
  0
LINE
  5
113
100
AcDbEntity
  8
ProjItem001
  6
ByLayer
 62
  256
370
   -1
100
AcDbLine
 10
137.3
 20
106.65
 11
137.76
 21
106.65
  0
LINE
  5
114
100
AcDbEntity
  8
ProjItem001
  6
ByLayer
 62
  256
370
   -1
100
AcDbLine
 10
137.76
 20
106.65
 11
137.76
 21
109.25
  0
LINE
  5
115
100
AcDbEntity
  8
ProjItem001
  6
ByLayer
 62
  256
370
   -1
100
AcDbLine
 10
137.3
 20
109.25
 11
137.3
 21
109.25
  0
LINE
  5
116
100
AcDbEntity
  8
ProjItem001
  6
ByLayer
 62
  256
370
   -1
100
AcDbLine
 10
137.3
 20
109.25
 11
137.76
 21
109.25
  0
LINE
  5
117
100
AcDbEntity
  8
ProjItem001
  6
ByLayer
 62
  256
370
   -1
100
AcDbLine
 10
137.6
 20
106.75
 11
137.562
 21
106.75
  0
LINE
  5
118
100
AcDbEntity
  8
ProjItem001
  6
ByLayer
 62
  256
370
   -1
100
AcDbLine
 10
137.562
 20
106.75
 11
137.322
 21
106.75
  0
SPLINE
  5
119
100
AcDbEntity
  8
ProjItem001
  6
ByLayer
 62
  256
370
   -1
100
AcDbSpline
210
0
220
0
230
0
 70
    8
 71
    1
 72
    4
 73
    2
 74
    0
 42
1e-07
 43
1e-07
 40
4.71239
 40
4.71239
 40
4.71816
 40
4.71816
 10
137.3
 20
106.75
 30
0
 10
137.3
 20
106.75
 30
0
  0
SPLINE
  5
11A
100
AcDbEntity
  8
ProjItem001
  6
ByLayer
 62
  256
370
   -1
100
AcDbSpline
210
0
220
0
230
0
 70
    8
 71
    2
 72
    6
 73
    3
 74
    0
 42
1e-07
 43
1e-07
 40
0
 40
0
 40
0
 40
1
 40
1
 40
1
 10
137.3
 20
106.75
 30
0
 10
137.303
 20
106.75
 30
0
 10
137.322
 20
106.75
 30
0
  0
LINE
  5
11B
100
AcDbEntity
  8
ProjItem001
  6
ByLayer
 62
  256
370
   -1
100
AcDbLine
 10
137.6
 20
106.75
 11
137.6
 21
107.25
  0
LINE
  5
11C
100
AcDbEntity
  8
ProjItem001
  6
ByLayer
 62
  256
370
   -1
100
AcDbLine
 10
137.6
 20
107.25
 11
137.562
 21
107.25
  0
LINE
  5
11D
100
AcDbEntity
  8
ProjItem001
  6
ByLayer
 62
  256
370
   -1
100
AcDbLine
 10
137.562
 20
107.25
 11
137.322
 21
107.25
  0
SPLINE
  5
11E
100
AcDbEntity
  8
ProjItem001
  6
ByLayer
 62
  256
370
   -1
100
AcDbSpline
210
0
220
0
230
0
 70
    8
 71
    1
 72
    4
 73
    2
 74
    0
 42
1e-07
 43
1e-07
 40
4.71239
 40
4.71239
 40
4.71816
 40
4.71816
 10
137.3
 20
107.25
 30
0
 10
137.3
 20
107.25
 30
0
  0
SPLINE
  5
11F
100
AcDbEntity
  8
ProjItem001
  6
ByLayer
 62
  256
370
   -1
100
AcDbSpline
210
0
220
0
230
0
 70
    8
 71
    2
 72
    6
 73
    3
 74
    0
 42
1e-07
 43
1e-07
 40
0
 40
0
 40
0
 40
1
 40
1
 40
1
 10
137.3
 20
107.25
 30
0
 10
137.303
 20
107.25
 30
0
 10
137.322
 20
107.25
 30
0
  0
LINE
  5
120
100
AcDbEntity
  8
ProjItem001
  6
ByLayer
 62
  256
370
   -1
100
AcDbLine
 10
137.6
 20
108.65
 11
137.562
 21
108.65
  0
LINE
  5
121
100
AcDbEntity
  8
ProjItem001
  6
ByLayer
 62
  256
370
   -1
100
AcDbLine
 10
137.562
 20
108.65
 11
137.322
 21
108.65
  0
SPLINE
  5
122
100
AcDbEntity
  8
ProjItem001
  6
ByLayer
 62
  256
370
   -1
100
AcDbSpline
210
0
220
0
230
0
 70
    8
 71
    1
 72
    4
 73
    2
 74
    0
 42
1e-07
 43
1e-07
 40
4.71239
 40
4.71239
 40
4.71816
 40
4.71816
 10
137.3
 20
108.65
 30
0
 10
137.3
 20
108.65
 30
0
  0
SPLINE
  5
123
100
AcDbEntity
  8
ProjItem001
  6
ByLayer
 62
  256
370
   -1
100
AcDbSpline
210
0
220
0
230
0
 70
    8
 71
    2
 72
    6
 73
    3
 74
    0
 42
1e-07
 43
1e-07
 40
0
 40
0
 40
0
 40
1
 40
1
 40
1
 10
137.3
 20
108.65
 30
0
 10
137.303
 20
108.65
 30
0
 10
137.322
 20
108.65
 30
0
  0
LINE
  5
124
100
AcDbEntity
  8
ProjItem001
  6
ByLayer
 62
  256
370
   -1
100
AcDbLine
 10
137.6
 20
109.15
 11
137.6
 21
108.65
  0
LINE
  5
125
100
AcDbEntity
  8
ProjItem001
  6
ByLayer
 62
  256
370
   -1
100
AcDbLine
 10
137.6
 20
109.15
 11
137.562
 21
109.15
  0
LINE
  5
126
100
AcDbEntity
  8
ProjItem001
  6
ByLayer
 62
  256
370
   -1
100
AcDbLine
 10
137.562
 20
109.15
 11
137.322
 21
109.15
  0
SPLINE
  5
127
100
AcDbEntity
  8
ProjItem001
  6
ByLayer
 62
  256
370
   -1
100
AcDbSpline
210
0
220
0
230
0
 70
    8
 71
    1
 72
    4
 73
    2
 74
    0
 42
1e-07
 43
1e-07
 40
4.71239
 40
4.71239
 40
4.71816
 40
4.71816
 10
137.3
 20
109.15
 30
0
 10
137.3
 20
109.15
 30
0
  0
SPLINE
  5
128
100
AcDbEntity
  8
ProjItem001
  6
ByLayer
 62
  256
370
   -1
100
AcDbSpline
210
0
220
0
230
0
 70
    8
 71
    2
 72
    6
 73
    3
 74
    0
 42
1e-07
 43
1e-07
 40
0
 40
0
 40
0
 40
1
 40
1
 40
1
 10
137.3
 20
109.15
 30
0
 10
137.303
 20
109.15
 30
0
 10
137.322
 20
109.15
 30
0
  0
SPLINE
  5
129
100
AcDbEntity
  8
ProjItem001
  6
ByLayer
 62
  256
370
   -1
100
AcDbSpline
210
0
220
0
230
0
 70
    8
 71
    3
 72
   11
 73
    7
 74
    0
 42
1e-07
 43
1e-07
 40
0
 40
0
 40
0
 40
0
 40
0.785398
 40
0.785398
 40
0.785398
 40
1.5708
 40
1.5708
 40
1.5708
 40
1.5708
 10
137.93
 20
107.95
 30
0
 10
137.93
 20
107.842
 30
0
 10
137.93
 20
107.736
 30
0
 10
137.93
 20
107.66
 30
0
 10
137.93
 20
107.584
 30
0
 10
137.93
 20
107.54
 30
0
 10
137.93
 20
107.54
 30
0
  0
SPLINE
  5
12A
100
AcDbEntity
  8
ProjItem001
  6
ByLayer
 62
  256
370
   -1
100
AcDbSpline
210
0
220
0
230
0
 70
    8
 71
    3
 72
   11
 73
    7
 74
    0
 42
1e-07
 43
1e-07
 40
4.71239
 40
4.71239
 40
4.71239
 40
4.71239
 40
5.49779
 40
5.49779
 40
5.49779
 40
6.28319
 40
6.28319
 40
6.28319
 40
6.28319
 10
137.93
 20
108.36
 30
0
 10
137.93
 20
108.36
 30
0
 10
137.93
 20
108.316
 30
0
 10
137.93
 20
108.24
 30
0
 10
137.93
 20
108.164
 30
0
 10
137.93
 20
108.058
 30
0
 10
137.93
 20
107.95
 30
0
  0
LINE
  5
12B
100
AcDbEntity
  8
ProjItem001
  6
ByLayer
 62
  256
370
   -1
100
AcDbLine
 10
137.562
 20
106.75
 11
137.562
 21
107.25
  0
LINE
  5
12C
100
AcDbEntity
  8
ProjItem001
  6
ByLayer
 62
  256
370
   -1
100
AcDbLine
 10
137.562
 20
109.15
 11
137.562
 21
108.65
  0
LINE
  5
12D
100
AcDbEntity
  8
ProjItem001
  6
ByLayer
 62
  256
370
   -1
100
AcDbLine
 10
137.3
 20
106.383
 11
137.3
 21
106.383
  0
SPLINE
  5
12E
100
AcDbEntity
  8
ProjItem001
  6
ByLayer
 62
  256
370
   -1
100
AcDbSpline
210
0
220
0
230
0
 70
    8
 71
    1
 72
   17
 73
   15
 74
    0
 42
1e-07
 43
1e-07
 40
3.14159
 40
3.14159
 40
3.36599
 40
3.59039
 40
3.81479
 40
4.03919
 40
4.26359
 40
4.48799
 40
4.71239
 40
4.93679
 40
5.16119
 40
5.38559
 40
5.60999
 40
5.83439
 40
6.05879
 40
6.28319
 40
6.28319
 10
137.3
 20
104.517
 30
0
 10
137.3
 20
104.54
 30
0
 10
137.3
 20
104.609
 30
0
 10
137.3
 20
104.72
 30
0
 10
137.3
 20
104.868
 30
0
 10
137.3
 20
105.045
 30
0
 10
137.3
 20
105.242
 30
0
 10
137.3
 20
105.45
 30
0
 10
137.3
 20
105.658
 30
0
 10
137.3
 20
105.855
 30
0
 10
137.3
 20
106.032
 30
0
 10
137.3
 20
106.18
 30
0
 10
137.3
 20
106.291
 30
0
 10
137.3
 20
106.36
 30
0
 10
137.3
 20
106.383
 30
0
  0
SPLINE
  5
12F
100
AcDbEntity
  8
ProjItem001
  6
ByLayer
 62
  256
370
   -1
100
AcDbSpline
210
0
220
0
230
0
 70
    8
 71
    1
 72
   17
 73
   15
 74
    0
 42
1e-07
 43
1e-07
 40
3.14159
 40
3.14159
 40
3.36599
 40
3.59039
 40
3.81479
 40
4.03919
 40
4.26359
 40
4.48799
 40
4.71239
 40
4.93679
 40
5.16119
 40
5.38559
 40
5.60999
 40
5.83439
 40
6.05879
 40
6.28319
 40
6.28319
 10
137.3
 20
104.517
 30
0
 10
137.3
 20
104.54
 30
0
 10
137.3
 20
104.609
 30
0
 10
137.3
 20
104.72
 30
0
 10
137.3
 20
104.868
 30
0
 10
137.3
 20
105.045
 30
0
 10
137.3
 20
105.242
 30
0
 10
137.3
 20
105.45
 30
0
 10
137.3
 20
105.658
 30
0
 10
137.3
 20
105.855
 30
0
 10
137.3
 20
106.032
 30
0
 10
137.3
 20
106.18
 30
0
 10
137.3
 20
106.291
 30
0
 10
137.3
 20
106.36
 30
0
 10
137.3
 20
106.383
 30
0
  0
LINE
  5
130
100
AcDbEntity
  8
ProjItem001
  6
ByLayer
 62
  256
370
   -1
100
AcDbLine
 10
137.3
 20
109.517
 11
137.3
 21
109.517
  0
SPLINE
  5
131
100
AcDbEntity
  8
ProjItem001
  6
ByLayer
 62
  256
370
   -1
100
AcDbSpline
210
0
220
0
230
0
 70
    8
 71
    1
 72
   17
 73
   15
 74
    0
 42
1e-07
 43
1e-07
 40
0
 40
0
 40
0.224399
 40
0.448799
 40
0.673198
 40
0.897598
 40
1.122
 40
1.3464
 40
1.5708
 40
1.7952
 40
2.0196
 40
2.24399
 40
2.46839
 40
2.69279
 40
2.91719
 40
3.14159
 40
3.14159
 10
137.3
 20
109.517
 30
0
 10
137.3
 20
109.54
 30
0
 10
137.3
 20
109.609
 30
0
 10
137.3
 20
109.72
 30
0
 10
137.3
 20
109.868
 30
0
 10
137.3
 20
110.045
 30
0
 10
137.3
 20
110.242
 30
0
 10
137.3
 20
110.45
 30
0
 10
137.3
 20
110.658
 30
0
 10
137.3
 20
110.855
 30
0
 10
137.3
 20
111.032
 30
0
 10
137.3
 20
111.18
 30
0
 10
137.3
 20
111.291
 30
0
 10
137.3
 20
111.36
 30
0
 10
137.3
 20
111.383
 30
0
  0
SPLINE
  5
132
100
AcDbEntity
  8
ProjItem001
  6
ByLayer
 62
  256
370
   -1
100
AcDbSpline
210
0
220
0
230
0
 70
    8
 71
    1
 72
   17
 73
   15
 74
    0
 42
1e-07
 43
1e-07
 40
0
 40
0
 40
0.224399
 40
0.448799
 40
0.673198
 40
0.897598
 40
1.122
 40
1.3464
 40
1.5708
 40
1.7952
 40
2.0196
 40
2.24399
 40
2.46839
 40
2.69279
 40
2.91719
 40
3.14159
 40
3.14159
 10
137.3
 20
109.517
 30
0
 10
137.3
 20
109.54
 30
0
 10
137.3
 20
109.609
 30
0
 10
137.3
 20
109.72
 30
0
 10
137.3
 20
109.868
 30
0
 10
137.3
 20
110.045
 30
0
 10
137.3
 20
110.242
 30
0
 10
137.3
 20
110.45
 30
0
 10
137.3
 20
110.658
 30
0
 10
137.3
 20
110.855
 30
0
 10
137.3
 20
111.032
 30
0
 10
137.3
 20
111.18
 30
0
 10
137.3
 20
111.291
 30
0
 10
137.3
 20
111.36
 30
0
 10
137.3
 20
111.383
 30
0
  0
LINE
  5
133
100
AcDbEntity
  8
ProjItem001
  6
ByLayer
 62
  256
370
   -1
100
AcDbLine
 10
137.3
 20
107.35
 11
137.3
 21
107.35
  0
SPLINE
  5
134
100
AcDbEntity
  8
ProjItem001
  6
ByLayer
 62
  256
370
   -1
100
AcDbSpline
210
0
220
0
230
0
 70
    8
 71
    3
 72
    8
 73
    4
 74
    0
 42
1e-07
 43
1e-07
 40
0
 40
0
 40
0
 40
0
 40
1.5708
 40
1.5708
 40
1.5708
 40
1.5708
 10
137.3
 20
107.35
 30
0
 10
137.3
 20
107.351
 30
0
 10
137.3
 20
107.327
 30
0
 10
137.3
 20
107.301
 30
0
  0
SPLINE
  5
135
100
AcDbEntity
  8
ProjItem001
  6
ByLayer
 62
  256
370
   -1
100
AcDbSpline
210
0
220
0
230
0
 70
    8
 71
    3
 72
    8
 73
    4
 74
    0
 42
1e-07
 43
1e-07
 40
0
 40
0
 40
0
 40
0
 40
1.5708
 40
1.5708
 40
1.5708
 40
1.5708
 10
137.3
 20
107.35
 30
0
 10
137.3
 20
107.351
 30
0
 10
137.3
 20
107.327
 30
0
 10
137.3
 20
107.301
 30
0
  0
LINE
  5
136
100
AcDbEntity
  8
ProjItem001
  6
ByLayer
 62
  256
370
   -1
100
AcDbLine
 10
137.3
 20
107.301
 11
137.3
 21
106.699
  0
LINE
  5
137
100
AcDbEntity
  8
ProjItem001
  6
ByLayer
 62
  256
370
   -1
100
AcDbLine
 10
137.3
 20
107.301
 11
137.3
 21
106.699
  0
SPLINE
  5
138
100
AcDbEntity
  8
ProjItem001
  6
ByLayer
 62
  256
370
   -1
100
AcDbSpline
210
0
220
0
230
0
 70
    8
 71
    3
 72
    8
 73
    4
 74
    0
 42
1e-07
 43
1e-07
 40
0
 40
0
 40
0
 40
0
 40
1.5708
 40
1.5708
 40
1.5708
 40
1.5708
 10
137.3
 20
106.699
 30
0
 10
137.3
 20
106.673
 30
0
 10
137.3
 20
106.649
 30
0
 10
137.3
 20
106.65
 30
0
  0
LINE
  5
139
100
AcDbEntity
  8
ProjItem001
  6
ByLayer
 62
  256
370
   -1
100
AcDbLine
 10
137.3
 20
106.65
 11
137.3
 21
106.65
  0
SPLINE
  5
13A
100
AcDbEntity
  8
ProjItem001
  6
ByLayer
 62
  256
370
   -1
100
AcDbSpline
210
0
220
0
230
0
 70
    8
 71
    3
 72
    8
 73
    4
 74
    0
 42
1e-07
 43
1e-07
 40
0
 40
0
 40
0
 40
0
 40
1.5708
 40
1.5708
 40
1.5708
 40
1.5708
 10
137.3
 20
106.699
 30
0
 10
137.3
 20
106.673
 30
0
 10
137.3
 20
106.649
 30
0
 10
137.3
 20
106.65
 30
0
  0
LINE
  5
13B
100
AcDbEntity
  8
ProjItem001
  6
ByLayer
 62
  256
370
   -1
100
AcDbLine
 10
137.3
 20
109.25
 11
137.3
 21
109.25
  0
SPLINE
  5
13C
100
AcDbEntity
  8
ProjItem001
  6
ByLayer
 62
  256
370
   -1
100
AcDbSpline
210
0
220
0
230
0
 70
    8
 71
    3
 72
    8
 73
    4
 74
    0
 42
1e-07
 43
1e-07
 40
0
 40
0
 40
0
 40
0
 40
1.5708
 40
1.5708
 40
1.5708
 40
1.5708
 10
137.3
 20
109.25
 30
0
 10
137.3
 20
109.251
 30
0
 10
137.3
 20
109.227
 30
0
 10
137.3
 20
109.201
 30
0
  0
SPLINE
  5
13D
100
AcDbEntity
  8
ProjItem001
  6
ByLayer
 62
  256
370
   -1
100
AcDbSpline
210
0
220
0
230
0
 70
    8
 71
    3
 72
    8
 73
    4
 74
    0
 42
1e-07
 43
1e-07
 40
0
 40
0
 40
0
 40
0
 40
1.5708
 40
1.5708
 40
1.5708
 40
1.5708
 10
137.3
 20
109.25
 30
0
 10
137.3
 20
109.251
 30
0
 10
137.3
 20
109.227
 30
0
 10
137.3
 20
109.201
 30
0
  0
LINE
  5
13E
100
AcDbEntity
  8
ProjItem001
  6
ByLayer
 62
  256
370
   -1
100
AcDbLine
 10
137.3
 20
109.201
 11
137.3
 21
108.599
  0
LINE
  5
13F
100
AcDbEntity
  8
ProjItem001
  6
ByLayer
 62
  256
370
   -1
100
AcDbLine
 10
137.3
 20
109.201
 11
137.3
 21
108.599
  0
SPLINE
  5
140
100
AcDbEntity
  8
ProjItem001
  6
ByLayer
 62
  256
370
   -1
100
AcDbSpline
210
0
220
0
230
0
 70
    8
 71
    3
 72
    8
 73
    4
 74
    0
 42
1e-07
 43
1e-07
 40
0
 40
0
 40
0
 40
0
 40
1.5708
 40
1.5708
 40
1.5708
 40
1.5708
 10
137.3
 20
108.599
 30
0
 10
137.3
 20
108.573
 30
0
 10
137.3
 20
108.549
 30
0
 10
137.3
 20
108.55
 30
0
  0
LINE
  5
141
100
AcDbEntity
  8
ProjItem001
  6
ByLayer
 62
  256
370
   -1
100
AcDbLine
 10
137.3
 20
108.55
 11
137.3
 21
108.55
  0
SPLINE
  5
142
100
AcDbEntity
  8
ProjItem001
  6
ByLayer
 62
  256
370
   -1
100
AcDbSpline
210
0
220
0
230
0
 70
    8
 71
    3
 72
    8
 73
    4
 74
    0
 42
1e-07
 43
1e-07
 40
0
 40
0
 40
0
 40
0
 40
1.5708
 40
1.5708
 40
1.5708
 40
1.5708
 10
137.3
 20
108.599
 30
0
 10
137.3
 20
108.573
 30
0
 10
137.3
 20
108.549
 30
0
 10
137.3
 20
108.55
 30
0
  0
SPLINE
  5
143
100
AcDbEntity
  8
ProjItem001
  6
ByLayer
 62
  256
370
   -1
100
AcDbSpline
210
0
220
0
230
0
 70
    8
 71
    1
 72
   17
 73
   15
 74
    0
 42
1e-07
 43
1e-07
 40
3.14159
 40
3.14159
 40
3.36599
 40
3.59039
 40
3.81479
 40
4.03919
 40
4.26359
 40
4.48799
 40
4.71239
 40
4.93679
 40
5.16119
 40
5.38559
 40
5.60999
 40
5.83439
 40
6.05879
 40
6.28319
 40
6.28319
 10
136.7
 20
104.517
 30
0
 10
136.7
 20
104.54
 30
0
 10
136.7
 20
104.609
 30
0
 10
136.7
 20
104.72
 30
0
 10
136.7
 20
104.868
 30
0
 10
136.7
 20
105.045
 30
0
 10
136.7
 20
105.242
 30
0
 10
136.7
 20
105.45
 30
0
 10
136.7
 20
105.658
 30
0
 10
136.7
 20
105.855
 30
0
 10
136.7
 20
106.032
 30
0
 10
136.7
 20
106.18
 30
0
 10
136.7
 20
106.291
 30
0
 10
136.7
 20
106.36
 30
0
 10
136.7
 20
106.383
 30
0
  0
LINE
  5
144
100
AcDbEntity
  8
ProjItem001
  6
ByLayer
 62
  256
370
   -1
100
AcDbLine
 10
136.7
 20
106.383
 11
136.7
 21
106.383
  0
SPLINE
  5
145
100
AcDbEntity
  8
ProjItem001
  6
ByLayer
 62
  256
370
   -1
100
AcDbSpline
210
0
220
0
230
0
 70
    8
 71
    1
 72
   17
 73
   15
 74
    0
 42
1e-07
 43
1e-07
 40
3.14159
 40
3.14159
 40
3.36599
 40
3.59039
 40
3.81479
 40
4.03919
 40
4.26359
 40
4.48799
 40
4.71239
 40
4.93679
 40
5.16119
 40
5.38559
 40
5.60999
 40
5.83439
 40
6.05879
 40
6.28319
 40
6.28319
 10
136.7
 20
104.517
 30
0
 10
136.7
 20
104.54
 30
0
 10
136.7
 20
104.609
 30
0
 10
136.7
 20
104.72
 30
0
 10
136.7
 20
104.868
 30
0
 10
136.7
 20
105.045
 30
0
 10
136.7
 20
105.242
 30
0
 10
136.7
 20
105.45
 30
0
 10
136.7
 20
105.658
 30
0
 10
136.7
 20
105.855
 30
0
 10
136.7
 20
106.032
 30
0
 10
136.7
 20
106.18
 30
0
 10
136.7
 20
106.291
 30
0
 10
136.7
 20
106.36
 30
0
 10
136.7
 20
106.383
 30
0
  0
SPLINE
  5
146
100
AcDbEntity
  8
ProjItem001
  6
ByLayer
 62
  256
370
   -1
100
AcDbSpline
210
0
220
0
230
0
 70
    8
 71
    1
 72
   17
 73
   15
 74
    0
 42
1e-07
 43
1e-07
 40
0
 40
0
 40
0.224399
 40
0.448799
 40
0.673198
 40
0.897598
 40
1.122
 40
1.3464
 40
1.5708
 40
1.7952
 40
2.0196
 40
2.24399
 40
2.46839
 40
2.69279
 40
2.91719
 40
3.14159
 40
3.14159
 10
136.7
 20
109.517
 30
0
 10
136.7
 20
109.54
 30
0
 10
136.7
 20
109.609
 30
0
 10
136.7
 20
109.72
 30
0
 10
136.7
 20
109.868
 30
0
 10
136.7
 20
110.045
 30
0
 10
136.7
 20
110.242
 30
0
 10
136.7
 20
110.45
 30
0
 10
136.7
 20
110.658
 30
0
 10
136.7
 20
110.855
 30
0
 10
136.7
 20
111.032
 30
0
 10
136.7
 20
111.18
 30
0
 10
136.7
 20
111.291
 30
0
 10
136.7
 20
111.36
 30
0
 10
136.7
 20
111.383
 30
0
  0
LINE
  5
147
100
AcDbEntity
  8
ProjItem001
  6
ByLayer
 62
  256
370
   -1
100
AcDbLine
 10
136.7
 20
109.517
 11
136.7
 21
109.517
  0
SPLINE
  5
148
100
AcDbEntity
  8
ProjItem001
  6
ByLayer
 62
  256
370
   -1
100
AcDbSpline
210
0
220
0
230
0
 70
    8
 71
    1
 72
   17
 73
   15
 74
    0
 42
1e-07
 43
1e-07
 40
0
 40
0
 40
0.224399
 40
0.448799
 40
0.673198
 40
0.897598
 40
1.122
 40
1.3464
 40
1.5708
 40
1.7952
 40
2.0196
 40
2.24399
 40
2.46839
 40
2.69279
 40
2.91719
 40
3.14159
 40
3.14159
 10
136.7
 20
109.517
 30
0
 10
136.7
 20
109.54
 30
0
 10
136.7
 20
109.609
 30
0
 10
136.7
 20
109.72
 30
0
 10
136.7
 20
109.868
 30
0
 10
136.7
 20
110.045
 30
0
 10
136.7
 20
110.242
 30
0
 10
136.7
 20
110.45
 30
0
 10
136.7
 20
110.658
 30
0
 10
136.7
 20
110.855
 30
0
 10
136.7
 20
111.032
 30
0
 10
136.7
 20
111.18
 30
0
 10
136.7
 20
111.291
 30
0
 10
136.7
 20
111.36
 30
0
 10
136.7
 20
111.383
 30
0
  0
LINE
  5
149
100
AcDbEntity
  8
ProjItem001
  6
ByLayer
 62
  256
370
   -1
100
AcDbLine
 10
137.3
 20
106.383
 11
137.3
 21
106.383
  0
SPLINE
  5
14A
100
AcDbEntity
  8
ProjItem001
  6
ByLayer
 62
  256
370
   -1
100
AcDbSpline
210
0
220
0
230
0
 70
    8
 71
    1
 72
   17
 73
   15
 74
    0
 42
1e-07
 43
1e-07
 40
3.14159
 40
3.14159
 40
3.36599
 40
3.59039
 40
3.81479
 40
4.03919
 40
4.26359
 40
4.48799
 40
4.71239
 40
4.93679
 40
5.16119
 40
5.38559
 40
5.60999
 40
5.83439
 40
6.05879
 40
6.28319
 40
6.28319
 10
137.3
 20
104.517
 30
0
 10
137.3
 20
104.54
 30
0
 10
137.3
 20
104.609
 30
0
 10
137.3
 20
104.72
 30
0
 10
137.3
 20
104.868
 30
0
 10
137.3
 20
105.045
 30
0
 10
137.3
 20
105.242
 30
0
 10
137.3
 20
105.45
 30
0
 10
137.3
 20
105.658
 30
0
 10
137.3
 20
105.855
 30
0
 10
137.3
 20
106.032
 30
0
 10
137.3
 20
106.18
 30
0
 10
137.3
 20
106.291
 30
0
 10
137.3
 20
106.36
 30
0
 10
137.3
 20
106.383
 30
0
  0
SPLINE
  5
14B
100
AcDbEntity
  8
ProjItem001
  6
ByLayer
 62
  256
370
   -1
100
AcDbSpline
210
0
220
0
230
0
 70
    8
 71
    1
 72
   17
 73
   15
 74
    0
 42
1e-07
 43
1e-07
 40
3.14159
 40
3.14159
 40
3.36599
 40
3.59039
 40
3.81479
 40
4.03919
 40
4.26359
 40
4.48799
 40
4.71239
 40
4.93679
 40
5.16119
 40
5.38559
 40
5.60999
 40
5.83439
 40
6.05879
 40
6.28319
 40
6.28319
 10
137.3
 20
104.517
 30
0
 10
137.3
 20
104.54
 30
0
 10
137.3
 20
104.609
 30
0
 10
137.3
 20
104.72
 30
0
 10
137.3
 20
104.868
 30
0
 10
137.3
 20
105.045
 30
0
 10
137.3
 20
105.242
 30
0
 10
137.3
 20
105.45
 30
0
 10
137.3
 20
105.658
 30
0
 10
137.3
 20
105.855
 30
0
 10
137.3
 20
106.032
 30
0
 10
137.3
 20
106.18
 30
0
 10
137.3
 20
106.291
 30
0
 10
137.3
 20
106.36
 30
0
 10
137.3
 20
106.383
 30
0
  0
LINE
  5
14C
100
AcDbEntity
  8
ProjItem001
  6
ByLayer
 62
  256
370
   -1
100
AcDbLine
 10
137.3
 20
109.517
 11
137.3
 21
109.517
  0
SPLINE
  5
14D
100
AcDbEntity
  8
ProjItem001
  6
ByLayer
 62
  256
370
   -1
100
AcDbSpline
210
0
220
0
230
0
 70
    8
 71
    1
 72
   17
 73
   15
 74
    0
 42
1e-07
 43
1e-07
 40
0
 40
0
 40
0.224399
 40
0.448799
 40
0.673198
 40
0.897598
 40
1.122
 40
1.3464
 40
1.5708
 40
1.7952
 40
2.0196
 40
2.24399
 40
2.46839
 40
2.69279
 40
2.91719
 40
3.14159
 40
3.14159
 10
137.3
 20
109.517
 30
0
 10
137.3
 20
109.54
 30
0
 10
137.3
 20
109.609
 30
0
 10
137.3
 20
109.72
 30
0
 10
137.3
 20
109.868
 30
0
 10
137.3
 20
110.045
 30
0
 10
137.3
 20
110.242
 30
0
 10
137.3
 20
110.45
 30
0
 10
137.3
 20
110.658
 30
0
 10
137.3
 20
110.855
 30
0
 10
137.3
 20
111.032
 30
0
 10
137.3
 20
111.18
 30
0
 10
137.3
 20
111.291
 30
0
 10
137.3
 20
111.36
 30
0
 10
137.3
 20
111.383
 30
0
  0
SPLINE
  5
14E
100
AcDbEntity
  8
ProjItem001
  6
ByLayer
 62
  256
370
   -1
100
AcDbSpline
210
0
220
0
230
0
 70
    8
 71
    1
 72
   17
 73
   15
 74
    0
 42
1e-07
 43
1e-07
 40
0
 40
0
 40
0.224399
 40
0.448799
 40
0.673198
 40
0.897598
 40
1.122
 40
1.3464
 40
1.5708
 40
1.7952
 40
2.0196
 40
2.24399
 40
2.46839
 40
2.69279
 40
2.91719
 40
3.14159
 40
3.14159
 10
137.3
 20
109.517
 30
0
 10
137.3
 20
109.54
 30
0
 10
137.3
 20
109.609
 30
0
 10
137.3
 20
109.72
 30
0
 10
137.3
 20
109.868
 30
0
 10
137.3
 20
110.045
 30
0
 10
137.3
 20
110.242
 30
0
 10
137.3
 20
110.45
 30
0
 10
137.3
 20
110.658
 30
0
 10
137.3
 20
110.855
 30
0
 10
137.3
 20
111.032
 30
0
 10
137.3
 20
111.18
 30
0
 10
137.3
 20
111.291
 30
0
 10
137.3
 20
111.36
 30
0
 10
137.3
 20
111.383
 30
0
  0
LINE
  5
14F
100
AcDbEntity
  8
ProjItem001
  6
ByLayer
 62
  256
370
   -1
100
AcDbLine
 10
137.3
 20
107.35
 11
137.3
 21
107.35
  0
SPLINE
  5
150
100
AcDbEntity
  8
ProjItem001
  6
ByLayer
 62
  256
370
   -1
100
AcDbSpline
210
0
220
0
230
0
 70
    8
 71
    3
 72
    8
 73
    4
 74
    0
 42
1e-07
 43
1e-07
 40
0
 40
0
 40
0
 40
0
 40
1.5708
 40
1.5708
 40
1.5708
 40
1.5708
 10
137.3
 20
107.35
 30
0
 10
137.3
 20
107.351
 30
0
 10
137.3
 20
107.327
 30
0
 10
137.3
 20
107.301
 30
0
  0
SPLINE
  5
151
100
AcDbEntity
  8
ProjItem001
  6
ByLayer
 62
  256
370
   -1
100
AcDbSpline
210
0
220
0
230
0
 70
    8
 71
    3
 72
    8
 73
    4
 74
    0
 42
1e-07
 43
1e-07
 40
0
 40
0
 40
0
 40
0
 40
1.5708
 40
1.5708
 40
1.5708
 40
1.5708
 10
137.3
 20
107.35
 30
0
 10
137.3
 20
107.351
 30
0
 10
137.3
 20
107.327
 30
0
 10
137.3
 20
107.301
 30
0
  0
LINE
  5
152
100
AcDbEntity
  8
ProjItem001
  6
ByLayer
 62
  256
370
   -1
100
AcDbLine
 10
137.3
 20
107.301
 11
137.3
 21
106.699
  0
LINE
  5
153
100
AcDbEntity
  8
ProjItem001
  6
ByLayer
 62
  256
370
   -1
100
AcDbLine
 10
137.3
 20
107.301
 11
137.3
 21
106.699
  0
SPLINE
  5
154
100
AcDbEntity
  8
ProjItem001
  6
ByLayer
 62
  256
370
   -1
100
AcDbSpline
210
0
220
0
230
0
 70
    8
 71
    3
 72
    8
 73
    4
 74
    0
 42
1e-07
 43
1e-07
 40
0
 40
0
 40
0
 40
0
 40
1.5708
 40
1.5708
 40
1.5708
 40
1.5708
 10
137.3
 20
106.699
 30
0
 10
137.3
 20
106.673
 30
0
 10
137.3
 20
106.649
 30
0
 10
137.3
 20
106.65
 30
0
  0
LINE
  5
155
100
AcDbEntity
  8
ProjItem001
  6
ByLayer
 62
  256
370
   -1
100
AcDbLine
 10
137.3
 20
106.65
 11
137.3
 21
106.65
  0
SPLINE
  5
156
100
AcDbEntity
  8
ProjItem001
  6
ByLayer
 62
  256
370
   -1
100
AcDbSpline
210
0
220
0
230
0
 70
    8
 71
    3
 72
    8
 73
    4
 74
    0
 42
1e-07
 43
1e-07
 40
0
 40
0
 40
0
 40
0
 40
1.5708
 40
1.5708
 40
1.5708
 40
1.5708
 10
137.3
 20
106.699
 30
0
 10
137.3
 20
106.673
 30
0
 10
137.3
 20
106.649
 30
0
 10
137.3
 20
106.65
 30
0
  0
LINE
  5
157
100
AcDbEntity
  8
ProjItem001
  6
ByLayer
 62
  256
370
   -1
100
AcDbLine
 10
137.3
 20
109.25
 11
137.3
 21
109.25
  0
SPLINE
  5
158
100
AcDbEntity
  8
ProjItem001
  6
ByLayer
 62
  256
370
   -1
100
AcDbSpline
210
0
220
0
230
0
 70
    8
 71
    3
 72
    8
 73
    4
 74
    0
 42
1e-07
 43
1e-07
 40
0
 40
0
 40
0
 40
0
 40
1.5708
 40
1.5708
 40
1.5708
 40
1.5708
 10
137.3
 20
109.25
 30
0
 10
137.3
 20
109.251
 30
0
 10
137.3
 20
109.227
 30
0
 10
137.3
 20
109.201
 30
0
  0
SPLINE
  5
159
100
AcDbEntity
  8
ProjItem001
  6
ByLayer
 62
  256
370
   -1
100
AcDbSpline
210
0
220
0
230
0
 70
    8
 71
    3
 72
    8
 73
    4
 74
    0
 42
1e-07
 43
1e-07
 40
0
 40
0
 40
0
 40
0
 40
1.5708
 40
1.5708
 40
1.5708
 40
1.5708
 10
137.3
 20
109.25
 30
0
 10
137.3
 20
109.251
 30
0
 10
137.3
 20
109.227
 30
0
 10
137.3
 20
109.201
 30
0
  0
LINE
  5
15A
100
AcDbEntity
  8
ProjItem001
  6
ByLayer
 62
  256
370
   -1
100
AcDbLine
 10
137.3
 20
109.201
 11
137.3
 21
108.599
  0
LINE
  5
15B
100
AcDbEntity
  8
ProjItem001
  6
ByLayer
 62
  256
370
   -1
100
AcDbLine
 10
137.3
 20
109.201
 11
137.3
 21
108.599
  0
SPLINE
  5
15C
100
AcDbEntity
  8
ProjItem001
  6
ByLayer
 62
  256
370
   -1
100
AcDbSpline
210
0
220
0
230
0
 70
    8
 71
    3
 72
    8
 73
    4
 74
    0
 42
1e-07
 43
1e-07
 40
0
 40
0
 40
0
 40
0
 40
1.5708
 40
1.5708
 40
1.5708
 40
1.5708
 10
137.3
 20
108.599
 30
0
 10
137.3
 20
108.573
 30
0
 10
137.3
 20
108.549
 30
0
 10
137.3
 20
108.55
 30
0
  0
LINE
  5
15D
100
AcDbEntity
  8
ProjItem001
  6
ByLayer
 62
  256
370
   -1
100
AcDbLine
 10
137.3
 20
108.55
 11
137.3
 21
108.55
  0
SPLINE
  5
15E
100
AcDbEntity
  8
ProjItem001
  6
ByLayer
 62
  256
370
   -1
100
AcDbSpline
210
0
220
0
230
0
 70
    8
 71
    3
 72
    8
 73
    4
 74
    0
 42
1e-07
 43
1e-07
 40
0
 40
0
 40
0
 40
0
 40
1.5708
 40
1.5708
 40
1.5708
 40
1.5708
 10
137.3
 20
108.599
 30
0
 10
137.3
 20
108.573
 30
0
 10
137.3
 20
108.549
 30
0
 10
137.3
 20
108.55
 30
0
  0
SPLINE
  5
15F
100
AcDbEntity
  8
ProjItem001
  6
ByLayer
 62
  256
370
   -1
100
AcDbSpline
210
0
220
0
230
0
 70
    8
 71
    1
 72
   17
 73
   15
 74
    0
 42
1e-07
 43
1e-07
 40
3.14159
 40
3.14159
 40
3.36599
 40
3.59039
 40
3.81479
 40
4.03919
 40
4.26359
 40
4.48799
 40
4.71239
 40
4.93679
 40
5.16119
 40
5.38559
 40
5.60999
 40
5.83439
 40
6.05879
 40
6.28319
 40
6.28319
 10
136.7
 20
104.517
 30
0
 10
136.7
 20
104.54
 30
0
 10
136.7
 20
104.609
 30
0
 10
136.7
 20
104.72
 30
0
 10
136.7
 20
104.868
 30
0
 10
136.7
 20
105.045
 30
0
 10
136.7
 20
105.242
 30
0
 10
136.7
 20
105.45
 30
0
 10
136.7
 20
105.658
 30
0
 10
136.7
 20
105.855
 30
0
 10
136.7
 20
106.032
 30
0
 10
136.7
 20
106.18
 30
0
 10
136.7
 20
106.291
 30
0
 10
136.7
 20
106.36
 30
0
 10
136.7
 20
106.383
 30
0
  0
LINE
  5
160
100
AcDbEntity
  8
ProjItem001
  6
ByLayer
 62
  256
370
   -1
100
AcDbLine
 10
136.7
 20
106.383
 11
136.7
 21
106.383
  0
SPLINE
  5
161
100
AcDbEntity
  8
ProjItem001
  6
ByLayer
 62
  256
370
   -1
100
AcDbSpline
210
0
220
0
230
0
 70
    8
 71
    1
 72
   17
 73
   15
 74
    0
 42
1e-07
 43
1e-07
 40
3.14159
 40
3.14159
 40
3.36599
 40
3.59039
 40
3.81479
 40
4.03919
 40
4.26359
 40
4.48799
 40
4.71239
 40
4.93679
 40
5.16119
 40
5.38559
 40
5.60999
 40
5.83439
 40
6.05879
 40
6.28319
 40
6.28319
 10
136.7
 20
104.517
 30
0
 10
136.7
 20
104.54
 30
0
 10
136.7
 20
104.609
 30
0
 10
136.7
 20
104.72
 30
0
 10
136.7
 20
104.868
 30
0
 10
136.7
 20
105.045
 30
0
 10
136.7
 20
105.242
 30
0
 10
136.7
 20
105.45
 30
0
 10
136.7
 20
105.658
 30
0
 10
136.7
 20
105.855
 30
0
 10
136.7
 20
106.032
 30
0
 10
136.7
 20
106.18
 30
0
 10
136.7
 20
106.291
 30
0
 10
136.7
 20
106.36
 30
0
 10
136.7
 20
106.383
 30
0
  0
SPLINE
  5
162
100
AcDbEntity
  8
ProjItem001
  6
ByLayer
 62
  256
370
   -1
100
AcDbSpline
210
0
220
0
230
0
 70
    8
 71
    1
 72
   17
 73
   15
 74
    0
 42
1e-07
 43
1e-07
 40
0
 40
0
 40
0.224399
 40
0.448799
 40
0.673198
 40
0.897598
 40
1.122
 40
1.3464
 40
1.5708
 40
1.7952
 40
2.0196
 40
2.24399
 40
2.46839
 40
2.69279
 40
2.91719
 40
3.14159
 40
3.14159
 10
136.7
 20
109.517
 30
0
 10
136.7
 20
109.54
 30
0
 10
136.7
 20
109.609
 30
0
 10
136.7
 20
109.72
 30
0
 10
136.7
 20
109.868
 30
0
 10
136.7
 20
110.045
 30
0
 10
136.7
 20
110.242
 30
0
 10
136.7
 20
110.45
 30
0
 10
136.7
 20
110.658
 30
0
 10
136.7
 20
110.855
 30
0
 10
136.7
 20
111.032
 30
0
 10
136.7
 20
111.18
 30
0
 10
136.7
 20
111.291
 30
0
 10
136.7
 20
111.36
 30
0
 10
136.7
 20
111.383
 30
0
  0
LINE
  5
163
100
AcDbEntity
  8
ProjItem001
  6
ByLayer
 62
  256
370
   -1
100
AcDbLine
 10
136.7
 20
109.517
 11
136.7
 21
109.517
  0
SPLINE
  5
164
100
AcDbEntity
  8
ProjItem001
  6
ByLayer
 62
  256
370
   -1
100
AcDbSpline
210
0
220
0
230
0
 70
    8
 71
    1
 72
   17
 73
   15
 74
    0
 42
1e-07
 43
1e-07
 40
0
 40
0
 40
0.224399
 40
0.448799
 40
0.673198
 40
0.897598
 40
1.122
 40
1.3464
 40
1.5708
 40
1.7952
 40
2.0196
 40
2.24399
 40
2.46839
 40
2.69279
 40
2.91719
 40
3.14159
 40
3.14159
 10
136.7
 20
109.517
 30
0
 10
136.7
 20
109.54
 30
0
 10
136.7
 20
109.609
 30
0
 10
136.7
 20
109.72
 30
0
 10
136.7
 20
109.868
 30
0
 10
136.7
 20
110.045
 30
0
 10
136.7
 20
110.242
 30
0
 10
136.7
 20
110.45
 30
0
 10
136.7
 20
110.658
 30
0
 10
136.7
 20
110.855
 30
0
 10
136.7
 20
111.032
 30
0
 10
136.7
 20
111.18
 30
0
 10
136.7
 20
111.291
 30
0
 10
136.7
 20
111.36
 30
0
 10
136.7
 20
111.383
 30
0
  0
SPLINE
  5
165
100
AcDbEntity
  8
ProjItem001
  6
ByLayer
 62
  256
370
   -1
100
AcDbSpline
210
0
220
0
230
0
 70
    8
 71
    3
 72
   41
 73
   37
 74
    0
 42
1e-07
 43
1e-07
 40
0
 40
0
 40
0
 40
0
 40
0.336599
 40
0.336599
 40
0.336599
 40
0.448799
 40
0.448799
 40
0.448799
 40
0.560999
 40
0.560999
 40
0.560999
 40
0.673198
 40
0.673198
 40
0.673198
 40
0.785398
 40
0.785398
 40
0.785398
 40
0.897598
 40
0.897598
 40
0.897598
 40
1.0098
 40
1.0098
 40
1.0098
 40
1.122
 40
1.122
 40
1.122
 40
1.2342
 40
1.2342
 40
1.2342
 40
1.3464
 40
1.3464
 40
1.3464
 40
1.4586
 40
1.4586
 40
1.4586
 40
1.5708
 40
1.5708
 40
1.5708
 40
1.5708
 10
137.3
 20
109.55
 30
0
 10
137.3
 20
109.775
 30
0
 10
137.3
 20
109.997
 30
0
 10
137.3
 20
110.211
 30
0
 10
137.3
 20
110.28
 30
0
 10
137.3
 20
110.349
 30
0
 10
137.3
 20
110.418
 30
0
 10
137.3
 20
110.483
 30
0
 10
137.3
 20
110.549
 30
0
 10
137.3
 20
110.614
 30
0
 10
137.3
 20
110.675
 30
0
 10
137.3
 20
110.736
 30
0
 10
137.3
 20
110.797
 30
0
 10
137.3
 20
110.853
 30
0
 10
137.3
 20
110.908
 30
0
 10
137.3
 20
110.964
 30
0
 10
137.3
 20
111.014
 30
0
 10
137.3
 20
111.064
 30
0
 10
137.3
 20
111.114
 30
0
 10
137.3
 20
111.157
 30
0
 10
137.3
 20
111.2
 30
0
 10
137.3
 20
111.243
 30
0
 10
137.3
 20
111.28
 30
0
 10
137.3
 20
111.316
 30
0
 10
137.3
 20
111.352
 30
0
 10
137.3
 20
111.381
 30
0
 10
137.3
 20
111.409
 30
0
 10
137.3
 20
111.438
 30
0
 10
137.3
 20
111.458
 30
0
 10
137.3
 20
111.479
 30
0
 10
137.3
 20
111.5
 30
0
 10
137.3
 20
111.512
 30
0
 10
137.3
 20
111.525
 30
0
 10
137.3
 20
111.537
 30
0
 10
137.3
 20
111.542
 30
0
 10
137.3
 20
111.546
 30
0
 10
137.3
 20
111.55
 30
0
  0
SPLINE
  5
166
100
AcDbEntity
  8
ProjItem001
  6
ByLayer
 62
  256
370
   -1
100
AcDbSpline
210
0
220
0
230
0
 70
    8
 71
    3
 72
   41
 73
   37
 74
    0
 42
1e-07
 43
1e-07
 40
0
 40
0
 40
0
 40
0
 40
0.336599
 40
0.336599
 40
0.336599
 40
0.448799
 40
0.448799
 40
0.448799
 40
0.560999
 40
0.560999
 40
0.560999
 40
0.673198
 40
0.673198
 40
0.673198
 40
0.785398
 40
0.785398
 40
0.785398
 40
0.897598
 40
0.897598
 40
0.897598
 40
1.0098
 40
1.0098
 40
1.0098
 40
1.122
 40
1.122
 40
1.122
 40
1.2342
 40
1.2342
 40
1.2342
 40
1.3464
 40
1.3464
 40
1.3464
 40
1.4586
 40
1.4586
 40
1.4586
 40
1.5708
 40
1.5708
 40
1.5708
 40
1.5708
 10
136.7
 20
109.55
 30
0
 10
136.7
 20
109.775
 30
0
 10
136.7
 20
109.997
 30
0
 10
136.7
 20
110.211
 30
0
 10
136.7
 20
110.28
 30
0
 10
136.7
 20
110.349
 30
0
 10
136.7
 20
110.418
 30
0
 10
136.7
 20
110.483
 30
0
 10
136.7
 20
110.549
 30
0
 10
136.7
 20
110.614
 30
0
 10
136.7
 20
110.675
 30
0
 10
136.7
 20
110.736
 30
0
 10
136.7
 20
110.797
 30
0
 10
136.7
 20
110.853
 30
0
 10
136.7
 20
110.908
 30
0
 10
136.7
 20
110.964
 30
0
 10
136.7
 20
111.014
 30
0
 10
136.7
 20
111.064
 30
0
 10
136.7
 20
111.114
 30
0
 10
136.7
 20
111.157
 30
0
 10
136.7
 20
111.2
 30
0
 10
136.7
 20
111.243
 30
0
 10
136.7
 20
111.28
 30
0
 10
136.7
 20
111.316
 30
0
 10
136.7
 20
111.352
 30
0
 10
136.7
 20
111.381
 30
0
 10
136.7
 20
111.409
 30
0
 10
136.7
 20
111.438
 30
0
 10
136.7
 20
111.458
 30
0
 10
136.7
 20
111.479
 30
0
 10
136.7
 20
111.5
 30
0
 10
136.7
 20
111.512
 30
0
 10
136.7
 20
111.525
 30
0
 10
136.7
 20
111.537
 30
0
 10
136.7
 20
111.542
 30
0
 10
136.7
 20
111.546
 30
0
 10
136.7
 20
111.55
 30
0
  0
SPLINE
  5
167
100
AcDbEntity
  8
ProjItem001
  6
ByLayer
 62
  256
370
   -1
100
AcDbSpline
210
0
220
0
230
0
 70
    8
 71
    2
 72
   30
 73
   27
 74
    0
 42
1e-07
 43
1e-07
 40
0
 40
0
 40
0
 40
0.04
 40
0.08
 40
0.12
 40
0.16
 40
0.2
 40
0.24
 40
0.28
 40
0.32
 40
0.36
 40
0.4
 40
0.44
 40
0.48
 40
0.52
 40
0.5600000000000001
 40
0.6
 40
0.64
 40
0.68
 40
0.72
 40
0.76
 40
0.8
 40
0.84
 40
0.88
 40
0.92
 40
0.96
 40
1
 40
1
 40
1
 10
137.3
 20
104.35
 30
0
 10
137.3
 20
104.356
 30
0
 10
137.3
 20
104.363
 30
0
 10
137.3
 20
104.381
 30
0
 10
137.3
 20
104.4
 30
0
 10
137.3
 20
104.431
 30
0
 10
137.3
 20
104.462
 30
0
 10
137.3
 20
104.505
 30
0
 10
137.3
 20
104.548
 30
0
 10
137.3
 20
104.602
 30
0
 10
137.3
 20
104.657
 30
0
 10
137.3
 20
104.721
 30
0
 10
137.3
 20
104.786
 30
0
 10
137.3
 20
104.861
 30
0
 10
137.3
 20
104.936
 30
0
 10
137.3
 20
105.019
 30
0
 10
137.3
 20
105.103
 30
0
 10
137.3
 20
105.194
 30
0
 10
137.3
 20
105.286
 30
0
 10
137.3
 20
105.384
 30
0
 10
137.3
 20
105.482
 30
0
 10
137.3
 20
105.586
 30
0
 10
137.3
 20
105.689
 30
0
 10
137.3
 20
105.797
 30
0
 10
137.3
 20
105.905
 30
0
 10
137.3
 20
106.125
 30
0
 10
137.3
 20
106.35
 30
0
  0
SPLINE
  5
168
100
AcDbEntity
  8
ProjItem001
  6
ByLayer
 62
  256
370
   -1
100
AcDbSpline
210
0
220
0
230
0
 70
    8
 71
    2
 72
   30
 73
   27
 74
    0
 42
1e-07
 43
1e-07
 40
0
 40
0
 40
0
 40
0.04
 40
0.08
 40
0.12
 40
0.16
 40
0.2
 40
0.24
 40
0.28
 40
0.32
 40
0.36
 40
0.4
 40
0.44
 40
0.48
 40
0.52
 40
0.5600000000000001
 40
0.6
 40
0.64
 40
0.68
 40
0.72
 40
0.76
 40
0.8
 40
0.84
 40
0.88
 40
0.92
 40
0.96
 40
1
 40
1
 40
1
 10
136.7
 20
104.35
 30
0
 10
136.7
 20
104.356
 30
0
 10
136.7
 20
104.363
 30
0
 10
136.7
 20
104.381
 30
0
 10
136.7
 20
104.4
 30
0
 10
136.7
 20
104.431
 30
0
 10
136.7
 20
104.462
 30
0
 10
136.7
 20
104.505
 30
0
 10
136.7
 20
104.548
 30
0
 10
136.7
 20
104.602
 30
0
 10
136.7
 20
104.657
 30
0
 10
136.7
 20
104.721
 30
0
 10
136.7
 20
104.786
 30
0
 10
136.7
 20
104.861
 30
0
 10
136.7
 20
104.936
 30
0
 10
136.7
 20
105.019
 30
0
 10
136.7
 20
105.103
 30
0
 10
136.7
 20
105.194
 30
0
 10
136.7
 20
105.286
 30
0
 10
136.7
 20
105.384
 30
0
 10
136.7
 20
105.482
 30
0
 10
136.7
 20
105.586
 30
0
 10
136.7
 20
105.689
 30
0
 10
136.7
 20
105.797
 30
0
 10
136.7
 20
105.905
 30
0
 10
136.7
 20
106.125
 30
0
 10
136.7
 20
106.35
 30
0
  0
LINE
  5
169
100
AcDbEntity
  8
ProjItem001
  6
ByLayer
 62
  256
370
   -1
100
AcDbLine
 10
137.3
 20
106.35
 11
137.3
 21
109.55
  0
LINE
  5
16A
100
AcDbEntity
  8
ProjItem001
  6
ByLayer
 62
  256
370
   -1
100
AcDbLine
 10
136.7
 20
106.35
 11
136.7
 21
109.55
  0
SPLINE
  5
16B
100
AcDbEntity
  8
ProjItem001
  6
ByLayer
 62
  256
370
   -1
100
AcDbSpline
210
0
220
0
230
0
 70
    8
 71
    3
 72
   41
 73
   37
 74
    0
 42
1e-07
 43
1e-07
 40
0
 40
0
 40
0
 40
0
 40
0.336599
 40
0.336599
 40
0.336599
 40
0.448799
 40
0.448799
 40
0.448799
 40
0.560999
 40
0.560999
 40
0.560999
 40
0.673198
 40
0.673198
 40
0.673198
 40
0.785398
 40
0.785398
 40
0.785398
 40
0.897598
 40
0.897598
 40
0.897598
 40
1.0098
 40
1.0098
 40
1.0098
 40
1.122
 40
1.122
 40
1.122
 40
1.2342
 40
1.2342
 40
1.2342
 40
1.3464
 40
1.3464
 40
1.3464
 40
1.4586
 40
1.4586
 40
1.4586
 40
1.5708
 40
1.5708
 40
1.5708
 40
1.5708
 10
137.3
 20
109.55
 30
0
 10
137.3
 20
109.775
 30
0
 10
137.3
 20
109.997
 30
0
 10
137.3
 20
110.211
 30
0
 10
137.3
 20
110.28
 30
0
 10
137.3
 20
110.349
 30
0
 10
137.3
 20
110.418
 30
0
 10
137.3
 20
110.483
 30
0
 10
137.3
 20
110.549
 30
0
 10
137.3
 20
110.614
 30
0
 10
137.3
 20
110.675
 30
0
 10
137.3
 20
110.736
 30
0
 10
137.3
 20
110.797
 30
0
 10
137.3
 20
110.853
 30
0
 10
137.3
 20
110.908
 30
0
 10
137.3
 20
110.964
 30
0
 10
137.3
 20
111.014
 30
0
 10
137.3
 20
111.064
 30
0
 10
137.3
 20
111.114
 30
0
 10
137.3
 20
111.157
 30
0
 10
137.3
 20
111.2
 30
0
 10
137.3
 20
111.243
 30
0
 10
137.3
 20
111.28
 30
0
 10
137.3
 20
111.316
 30
0
 10
137.3
 20
111.352
 30
0
 10
137.3
 20
111.381
 30
0
 10
137.3
 20
111.409
 30
0
 10
137.3
 20
111.438
 30
0
 10
137.3
 20
111.458
 30
0
 10
137.3
 20
111.479
 30
0
 10
137.3
 20
111.5
 30
0
 10
137.3
 20
111.512
 30
0
 10
137.3
 20
111.525
 30
0
 10
137.3
 20
111.537
 30
0
 10
137.3
 20
111.542
 30
0
 10
137.3
 20
111.546
 30
0
 10
137.3
 20
111.55
 30
0
  0
SPLINE
  5
16C
100
AcDbEntity
  8
ProjItem001
  6
ByLayer
 62
  256
370
   -1
100
AcDbSpline
210
0
220
0
230
0
 70
    8
 71
    3
 72
   41
 73
   37
 74
    0
 42
1e-07
 43
1e-07
 40
0
 40
0
 40
0
 40
0
 40
0.336599
 40
0.336599
 40
0.336599
 40
0.448799
 40
0.448799
 40
0.448799
 40
0.560999
 40
0.560999
 40
0.560999
 40
0.673198
 40
0.673198
 40
0.673198
 40
0.785398
 40
0.785398
 40
0.785398
 40
0.897598
 40
0.897598
 40
0.897598
 40
1.0098
 40
1.0098
 40
1.0098
 40
1.122
 40
1.122
 40
1.122
 40
1.2342
 40
1.2342
 40
1.2342
 40
1.3464
 40
1.3464
 40
1.3464
 40
1.4586
 40
1.4586
 40
1.4586
 40
1.5708
 40
1.5708
 40
1.5708
 40
1.5708
 10
136.7
 20
109.55
 30
0
 10
136.7
 20
109.775
 30
0
 10
136.7
 20
109.997
 30
0
 10
136.7
 20
110.211
 30
0
 10
136.7
 20
110.28
 30
0
 10
136.7
 20
110.349
 30
0
 10
136.7
 20
110.418
 30
0
 10
136.7
 20
110.483
 30
0
 10
136.7
 20
110.549
 30
0
 10
136.7
 20
110.614
 30
0
 10
136.7
 20
110.675
 30
0
 10
136.7
 20
110.736
 30
0
 10
136.7
 20
110.797
 30
0
 10
136.7
 20
110.853
 30
0
 10
136.7
 20
110.908
 30
0
 10
136.7
 20
110.964
 30
0
 10
136.7
 20
111.014
 30
0
 10
136.7
 20
111.064
 30
0
 10
136.7
 20
111.114
 30
0
 10
136.7
 20
111.157
 30
0
 10
136.7
 20
111.2
 30
0
 10
136.7
 20
111.243
 30
0
 10
136.7
 20
111.28
 30
0
 10
136.7
 20
111.316
 30
0
 10
136.7
 20
111.352
 30
0
 10
136.7
 20
111.381
 30
0
 10
136.7
 20
111.409
 30
0
 10
136.7
 20
111.438
 30
0
 10
136.7
 20
111.458
 30
0
 10
136.7
 20
111.479
 30
0
 10
136.7
 20
111.5
 30
0
 10
136.7
 20
111.512
 30
0
 10
136.7
 20
111.525
 30
0
 10
136.7
 20
111.537
 30
0
 10
136.7
 20
111.542
 30
0
 10
136.7
 20
111.546
 30
0
 10
136.7
 20
111.55
 30
0
  0
SPLINE
  5
16D
100
AcDbEntity
  8
ProjItem001
  6
ByLayer
 62
  256
370
   -1
100
AcDbSpline
210
0
220
0
230
0
 70
    8
 71
    2
 72
   30
 73
   27
 74
    0
 42
1e-07
 43
1e-07
 40
0
 40
0
 40
0
 40
0.04
 40
0.08
 40
0.12
 40
0.16
 40
0.2
 40
0.24
 40
0.28
 40
0.32
 40
0.36
 40
0.4
 40
0.44
 40
0.48
 40
0.52
 40
0.5600000000000001
 40
0.6
 40
0.64
 40
0.68
 40
0.72
 40
0.76
 40
0.8
 40
0.84
 40
0.88
 40
0.92
 40
0.96
 40
1
 40
1
 40
1
 10
137.3
 20
104.35
 30
0
 10
137.3
 20
104.356
 30
0
 10
137.3
 20
104.363
 30
0
 10
137.3
 20
104.381
 30
0
 10
137.3
 20
104.4
 30
0
 10
137.3
 20
104.431
 30
0
 10
137.3
 20
104.462
 30
0
 10
137.3
 20
104.505
 30
0
 10
137.3
 20
104.548
 30
0
 10
137.3
 20
104.602
 30
0
 10
137.3
 20
104.657
 30
0
 10
137.3
 20
104.721
 30
0
 10
137.3
 20
104.786
 30
0
 10
137.3
 20
104.861
 30
0
 10
137.3
 20
104.936
 30
0
 10
137.3
 20
105.019
 30
0
 10
137.3
 20
105.103
 30
0
 10
137.3
 20
105.194
 30
0
 10
137.3
 20
105.286
 30
0
 10
137.3
 20
105.384
 30
0
 10
137.3
 20
105.482
 30
0
 10
137.3
 20
105.586
 30
0
 10
137.3
 20
105.689
 30
0
 10
137.3
 20
105.797
 30
0
 10
137.3
 20
105.905
 30
0
 10
137.3
 20
106.125
 30
0
 10
137.3
 20
106.35
 30
0
  0
SPLINE
  5
16E
100
AcDbEntity
  8
ProjItem001
  6
ByLayer
 62
  256
370
   -1
100
AcDbSpline
210
0
220
0
230
0
 70
    8
 71
    2
 72
   30
 73
   27
 74
    0
 42
1e-07
 43
1e-07
 40
0
 40
0
 40
0
 40
0.04
 40
0.08
 40
0.12
 40
0.16
 40
0.2
 40
0.24
 40
0.28
 40
0.32
 40
0.36
 40
0.4
 40
0.44
 40
0.48
 40
0.52
 40
0.5600000000000001
 40
0.6
 40
0.64
 40
0.68
 40
0.72
 40
0.76
 40
0.8
 40
0.84
 40
0.88
 40
0.92
 40
0.96
 40
1
 40
1
 40
1
 10
136.7
 20
104.35
 30
0
 10
136.7
 20
104.356
 30
0
 10
136.7
 20
104.363
 30
0
 10
136.7
 20
104.381
 30
0
 10
136.7
 20
104.4
 30
0
 10
136.7
 20
104.431
 30
0
 10
136.7
 20
104.462
 30
0
 10
136.7
 20
104.505
 30
0
 10
136.7
 20
104.548
 30
0
 10
136.7
 20
104.602
 30
0
 10
136.7
 20
104.657
 30
0
 10
136.7
 20
104.721
 30
0
 10
136.7
 20
104.786
 30
0
 10
136.7
 20
104.861
 30
0
 10
136.7
 20
104.936
 30
0
 10
136.7
 20
105.019
 30
0
 10
136.7
 20
105.103
 30
0
 10
136.7
 20
105.194
 30
0
 10
136.7
 20
105.286
 30
0
 10
136.7
 20
105.384
 30
0
 10
136.7
 20
105.482
 30
0
 10
136.7
 20
105.586
 30
0
 10
136.7
 20
105.689
 30
0
 10
136.7
 20
105.797
 30
0
 10
136.7
 20
105.905
 30
0
 10
136.7
 20
106.125
 30
0
 10
136.7
 20
106.35
 30
0
  0
LINE
  5
16F
100
AcDbEntity
  8
ProjItem001
  6
ByLayer
 62
  256
370
   -1
100
AcDbLine
 10
137.3
 20
106.35
 11
137.3
 21
109.55
  0
LINE
  5
170
100
AcDbEntity
  8
ProjItem001
  6
ByLayer
 62
  256
370
   -1
100
AcDbLine
 10
136.7
 20
106.35
 11
136.7
 21
109.55
  0
LINE
  5
171
100
AcDbEntity
  8
ProjItem001
  6
ByLayer
 62
  256
370
   -1
100
AcDbLine
 10
137.93
 20
108.36
 11
137.76
 21
109
  0
LINE
  5
172
100
AcDbEntity
  8
ProjItem001
  6
ByLayer
 62
  256
370
   -1
100
AcDbLine
 10
137.93
 20
107.54
 11
137.76
 21
106.9
  0
LINE
  5
173
100
AcDbEntity
  8
ProjItem001
  6
ByLayer
 62
  256
370
   -1
100
AcDbLine
 10
137.3
 20
104.517
 11
137.3
 21
104.517
  0
LINE
  5
174
100
AcDbEntity
  8
ProjItem001
  6
ByLayer
 62
  256
370
   -1
100
AcDbLine
 10
137.3
 20
111.383
 11
137.3
 21
111.383
  0
LINE
  5
175
100
AcDbEntity
  8
ProjItem001
  6
ByLayer
 62
  256
370
   -1
100
AcDbLine
 10
136.7
 20
104.517
 11
136.7
 21
104.517
  0
LINE
  5
176
100
AcDbEntity
  8
ProjItem001
  6
ByLayer
 62
  256
370
   -1
100
AcDbLine
 10
136.7
 20
111.383
 11
136.7
 21
111.383
  0
LINE
  5
177
100
AcDbEntity
  8
ProjItem001
  6
ByLayer
 62
  256
370
   -1
100
AcDbLine
 10
137.3
 20
104.517
 11
137.3
 21
104.517
  0
LINE
  5
178
100
AcDbEntity
  8
ProjItem001
  6
ByLayer
 62
  256
370
   -1
100
AcDbLine
 10
137.3
 20
111.383
 11
137.3
 21
111.383
  0
LINE
  5
179
100
AcDbEntity
  8
ProjItem001
  6
ByLayer
 62
  256
370
   -1
100
AcDbLine
 10
136.7
 20
104.517
 11
136.7
 21
104.517
  0
LINE
  5
17A
100
AcDbEntity
  8
ProjItem001
  6
ByLayer
 62
  256
370
   -1
100
AcDbLine
 10
136.7
 20
111.383
 11
136.7
 21
111.383
  0
LINE
  5
17B
100
AcDbEntity
  8
ProjItem001
  6
ByLayer
 62
  256
370
   -1
100
AcDbLine
 10
137.3
 20
111.55
 11
136.7
 21
111.55
  0
LINE
  5
17C
100
AcDbEntity
  8
ProjItem001
  6
ByLayer
 62
  256
370
   -1
100
AcDbLine
 10
137.3
 20
104.35
 11
136.7
 21
104.35
  0
LINE
  5
17D
100
AcDbEntity
  8
ProjItem001
  6
ByLayer
 62
  256
370
   -1
100
AcDbLine
 10
137.3
 20
111.55
 11
136.7
 21
111.55
  0
LINE
  5
17E
100
AcDbEntity
  8
ProjItem001
  6
ByLayer
 62
  256
370
   -1
100
AcDbLine
 10
137.3
 20
104.35
 11
136.7
 21
104.35
  0
LINE
  5
17F
100
AcDbEntity
  8
ProjItem001
  6
ByLayer
 62
  256
370
   -1
100
AcDbLine
 10
137.322
 20
106.75
 11
137.322
 21
107.25
  0
LINE
  5
180
100
AcDbEntity
  8
ProjItem001
  6
ByLayer
 62
  256
370
   -1
100
AcDbLine
 10
137.322
 20
109.15
 11
137.322
 21
108.65
  0
LINE
  5
181
100
AcDbEntity
  8
ProjItem001
  6
ByLayer
 62
  256
370
   -1
100
AcDbLine
 10
137.3
 20
107.301
 11
137.3
 21
107.301
  0
LINE
  5
182
100
AcDbEntity
  8
ProjItem001
  6
ByLayer
 62
  256
370
   -1
100
AcDbLine
 10
137.3
 20
106.699
 11
137.3
 21
106.699
  0
LINE
  5
183
100
AcDbEntity
  8
ProjItem001
  6
ByLayer
 62
  256
370
   -1
100
AcDbLine
 10
137.3
 20
109.201
 11
137.3
 21
109.201
  0
LINE
  5
184
100
AcDbEntity
  8
ProjItem001
  6
ByLayer
 62
  256
370
   -1
100
AcDbLine
 10
137.3
 20
108.599
 11
137.3
 21
108.599
  0
LINE
  5
185
100
AcDbEntity
  8
ProjItem001
  6
ByLayer
 62
  256
370
   -1
100
AcDbLine
 10
137.3
 20
107.301
 11
137.3
 21
107.301
  0
LINE
  5
186
100
AcDbEntity
  8
ProjItem001
  6
ByLayer
 62
  256
370
   -1
100
AcDbLine
 10
137.3
 20
106.699
 11
137.3
 21
106.699
  0
LINE
  5
187
100
AcDbEntity
  8
ProjItem001
  6
ByLayer
 62
  256
370
   -1
100
AcDbLine
 10
137.3
 20
109.201
 11
137.3
 21
109.201
  0
LINE
  5
188
100
AcDbEntity
  8
ProjItem001
  6
ByLayer
 62
  256
370
   -1
100
AcDbLine
 10
137.3
 20
108.599
 11
137.3
 21
108.599
  0
LINE
  5
189
100
AcDbEntity
  8
ProjItem001
  6
ByLayer
 62
  256
370
   -1
100
AcDbLine
 10
136.7
 20
109.55
 11
137.3
 21
109.55
  0
LINE
  5
18A
100
AcDbEntity
  8
ProjItem001
  6
ByLayer
 62
  256
370
   -1
100
AcDbLine
 10
136.7
 20
106.35
 11
137.3
 21
106.35
  0
LINE
  5
18B
100
AcDbEntity
  8
ProjItem001
  6
ByLayer
 62
  256
370
   -1
100
AcDbLine
 10
136.7
 20
109.55
 11
137.3
 21
109.55
  0
LINE
  5
18C
100
AcDbEntity
  8
ProjItem001
  6
ByLayer
 62
  256
370
   -1
100
AcDbLine
 10
136.7
 20
106.35
 11
137.3
 21
106.35
  0
SPLINE
  5
18D
100
AcDbEntity
  8
ProjItem001
  6
ByLayer
 62
  256
370
   -1
100
AcDbSpline
210
0
220
0
230
0
 70
    8
 71
    1
 72
    4
 73
    2
 74
    0
 42
1e-07
 43
1e-07
 40
0
 40
0
 40
1
 40
1
 10
137.76
 20
107.95
 30
0
 10
137.93
 20
107.95
 30
0
  0
CIRCLE
  5
18E
100
AcDbEntity
  8
ProjItem002
  6
ByLayer
 62
  256
370
   -1
100
AcDbCircle
 10
146.315
 20
105.45
 40
0.93345
  0
CIRCLE
  5
18F
100
AcDbEntity
  8
ProjItem002
  6
ByLayer
 62
  256
370
   -1
100
AcDbCircle
 10
146.315
 20
105.45
 40
0.601
  0
CIRCLE
  5
190
100
AcDbEntity
  8
ProjItem002
  6
ByLayer
 62
  256
370
   -1
100
AcDbCircle
 10
146.315
 20
110.45
 40
0.93345
  0
CIRCLE
  5
191
100
AcDbEntity
  8
ProjItem002
  6
ByLayer
 62
  256
370
   -1
100
AcDbCircle
 10
146.315
 20
110.45
 40
0.601
  0
CIRCLE
  5
192
100
AcDbEntity
  8
ProjItem002
  6
ByLayer
 62
  256
370
   -1
100
AcDbCircle
 10
146.315
 20
105.45
 40
0.93345
  0
CIRCLE
  5
193
100
AcDbEntity
  8
ProjItem002
  6
ByLayer
 62
  256
370
   -1
100
AcDbCircle
 10
146.315
 20
105.45
 40
0.601
  0
CIRCLE
  5
194
100
AcDbEntity
  8
ProjItem002
  6
ByLayer
 62
  256
370
   -1
100
AcDbCircle
 10
146.315
 20
110.45
 40
0.93345
  0
CIRCLE
  5
195
100
AcDbEntity
  8
ProjItem002
  6
ByLayer
 62
  256
370
   -1
100
AcDbCircle
 10
146.315
 20
110.45
 40
0.601
  0
LINE
  5
196
100
AcDbEntity
  8
ProjItem002
  6
ByLayer
 62
  256
370
   -1
100
AcDbLine
 10
144.315
 20
109.55
 11
144.315
 21
106.35
  0
ARC
  5
197
100
AcDbEntity
  8
ProjItem002
  6
ByLayer
 62
  256
370
   -1
100
AcDbCircle
 10
146.315
 20
109.55
 40
2
100
AcDbArc
 50
0
 51
180
  0
ARC
  5
198
100
AcDbEntity
  8
ProjItem002
  6
ByLayer
 62
  256
370
   -1
100
AcDbCircle
 10
146.315
 20
106.35
 40
2
100
AcDbArc
 50
180
 51
-4.07111e-13
  0
LINE
  5
199
100
AcDbEntity
  8
ProjItem002
  6
ByLayer
 62
  256
370
   -1
100
AcDbLine
 10
148.315
 20
106.35
 11
148.315
 21
109.55
  0
LINE
  5
19A
100
AcDbEntity
  8
ProjItem002
  6
ByLayer
 62
  256
370
   -1
100
AcDbLine
 10
144.315
 20
109.55
 11
144.315
 21
106.35
  0
ARC
  5
19B
100
AcDbEntity
  8
ProjItem002
  6
ByLayer
 62
  256
370
   -1
100
AcDbCircle
 10
146.315
 20
109.55
 40
2
100
AcDbArc
 50
0
 51
180
  0
ARC
  5
19C
100
AcDbEntity
  8
ProjItem002
  6
ByLayer
 62
  256
370
   -1
100
AcDbCircle
 10
146.315
 20
106.35
 40
2
100
AcDbArc
 50
180
 51
-4.07111e-13
  0
LINE
  5
19D
100
AcDbEntity
  8
ProjItem002
  6
ByLayer
 62
  256
370
   -1
100
AcDbLine
 10
148.315
 20
106.35
 11
148.315
 21
109.55
  0
ENDBLK
  5
78
330
76
100
AcDbEntity
  8
0
100
AcDbBlockEnd
  0
ENDSEC
  0
SECTION
  2
ENTITIES
  0
LWPOLYLINE
  5
19E
100
AcDbEntity
  8
0
  6
ByLayer
 62
    7
370
   -1
100
AcDbPolyline
 90
    2
 70
    0
 43
0
 10
0.140079
 20
107.394775
 10
3.277269
 20
107.394775
  0
LWPOLYLINE
  5
19F
100
AcDbEntity
  8
0
  6
ByLayer
 62
    7
370
   -1
100
AcDbPolyline
 90
    2
 70
    0
 43
0
 10
138.983326
 20
213.302216
 10
138.983326
 20
215.90002
  0
LWPOLYLINE
  5
1A0
100
AcDbEntity
  8
0
  6
ByLayer
 62
    7
370
   -1
100
AcDbPolyline
 90
    2
 70
    0
 43
0
 10
273.511583
 20
107.394775
 10
276.706053
 20
107.394775
  0
LWPOLYLINE
  5
1A1
100
AcDbEntity
  8
0
  6
ByLayer
 62
    7
370
   -1
100
AcDbPolyline
 90
    4
 70
    1
 43
0
 10
0.090159
 20
215.80482
 10
276.706052
 20
215.80482
 10
276.706052
 20
0.09016
 10
0.090159
 20
0.09016
  0
LWPOLYLINE
  5
1A2
100
AcDbEntity
  8
0
  6
ByLayer
 62
    7
370
   -1
100
AcDbPolyline
 90
    4
 70
    1
 43
0
 10
3.283779
 20
213.314325
 10
273.512431
 20
213.314325
 10
273.512431
 20
2.580656
 10
3.283779
 20
2.580656
  0
SPLINE
  5
1A3
100
AcDbEntity
  8
0
  6
ByLayer
 62
    7
370
   -1
100
AcDbSpline
210
0
220
0
230
0
 70
    8
 71
    3
 72
    8
 73
    4
 74
    0
 42
1e-07
 43
1e-07
 40
0
 40
0
 40
0
 40
0
 40
1
 40
1
 40
1
 40
1
 10
195.113259
 20
40.583992
 30
0
 10
265.921022
 20
40.583992
 30
0
 10
265.921022
 20
40.806662
 30
0
 10
265.921022
 20
40.806662
 30
0
  0
LWPOLYLINE
  5
1A4
100
AcDbEntity
  8
0
  6
ByLayer
 62
    7
370
   -1
100
AcDbPolyline
 90
    2
 70
    0
 43
0
 10
138.983326
 20
0.09016
 10
138.983326
 20
2.68797
  0
LWPOLYLINE
  5
1A5
100
AcDbEntity
  8
0
  6
ByLayer
 62
    7
370
   -1
100
AcDbPolyline
 90
    4
 70
    1
 43
0
 10
191.654079
 20
60.356283
 10
269.539611
 20
60.356283
 10
269.539611
 20
6.548934
 10
191.654079
 20
6.548934
  0
SPLINE
  5
1A6
100
AcDbEntity
  8
0
  6
ByLayer
 62
    7
370
   -1
100
AcDbSpline
210
0
220
0
230
0
 70
    8
 71
    3
 72
    8
 73
    4
 74
    0
 42
1e-07
 43
1e-07
 40
0
 40
0
 40
0
 40
0
 40
1
 40
1
 40
1
 40
1
 10
195.113259
 20
15.13960281206198
 30
0
 10
265.921022
 20
15.13960281206198
 30
0
 10
265.921022
 20
15.36226281206198
 30
0
 10
265.921022
 20
15.36226281206198
 30
0
  0
MTEXT
  5
1A7
100
AcDbEntity
  8
0
  6
ByLayer
 62
  256
370
   -1
100
AcDbMText
 10
193.5315491999793
 20
12.30264751102634
 30
0
 40
3
 41
72.06666539465414
 71
    1
 72
    1
  1
*NOTE: DIMENSIONS UNTOLERANCED\P
  7
standard
210
0
220
0
230
1
 50
0
 73
    2
 44
1
  0
LINE
  5
1A8
100
AcDbEntity
  8
ProjItem001
  6
ByLayer
 62
  256
370
   -1
100
AcDbLine
 10
138.0011702088891
 20
106.65
 11
138.0011702088891
 21
106.65
  0
LINE
  5
1A9
100
AcDbEntity
  8
ProjItem001
  6
ByLayer
 62
  256
370
   -1
100
AcDbLine
 10
138.0011702088891
 20
106.65
 11
138.4611702088891
 21
106.65
  0
LINE
  5
1AA
100
AcDbEntity
  8
ProjItem001
  6
ByLayer
 62
  256
370
   -1
100
AcDbLine
 10
138.4611702088891
 20
106.65
 11
138.4611702088891
 21
109.25
  0
LINE
  5
1AB
100
AcDbEntity
  8
ProjItem001
  6
ByLayer
 62
  256
370
   -1
100
AcDbLine
 10
138.0011702088891
 20
109.25
 11
138.0011702088891
 21
109.25
  0
LINE
  5
1AC
100
AcDbEntity
  8
ProjItem001
  6
ByLayer
 62
  256
370
   -1
100
AcDbLine
 10
138.0011702088891
 20
109.25
 11
138.4611702088891
 21
109.25
  0
LINE
  5
1AD
100
AcDbEntity
  8
ProjItem001
  6
ByLayer
 62
  256
370
   -1
100
AcDbLine
 10
138.3011702088891
 20
106.75
 11
138.2631702088891
 21
106.75
  0
LINE
  5
1AE
100
AcDbEntity
  8
ProjItem001
  6
ByLayer
 62
  256
370
   -1
100
AcDbLine
 10
138.2631702088891
 20
106.75
 11
138.0231702088891
 21
106.75
  0
SPLINE
  5
1AF
100
AcDbEntity
  8
ProjItem001
  6
ByLayer
 62
  256
370
   -1
100
AcDbSpline
210
0
220
0
230
0
 70
    8
 71
    1
 72
    4
 73
    2
 74
    0
 42
1e-07
 43
1e-07
 40
4.71239
 40
4.71239
 40
4.71816
 40
4.71816
 10
138.0011702088891
 20
106.75
 30
0
 10
138.0011702088891
 20
106.75
 30
0
  0
SPLINE
  5
1B0
100
AcDbEntity
  8
ProjItem001
  6
ByLayer
 62
  256
370
   -1
100
AcDbSpline
210
0
220
0
230
0
 70
    8
 71
    2
 72
    6
 73
    3
 74
    0
 42
1e-07
 43
1e-07
 40
0
 40
0
 40
0
 40
1
 40
1
 40
1
 10
138.0011702088891
 20
106.75
 30
0
 10
138.0041702088891
 20
106.75
 30
0
 10
138.0231702088891
 20
106.75
 30
0
  0
LINE
  5
1B1
100
AcDbEntity
  8
ProjItem001
  6
ByLayer
 62
  256
370
   -1
100
AcDbLine
 10
138.3011702088891
 20
106.75
 11
138.3011702088891
 21
107.25
  0
LINE
  5
1B2
100
AcDbEntity
  8
ProjItem001
  6
ByLayer
 62
  256
370
   -1
100
AcDbLine
 10
138.3011702088891
 20
107.25
 11
138.2631702088891
 21
107.25
  0
LINE
  5
1B3
100
AcDbEntity
  8
ProjItem001
  6
ByLayer
 62
  256
370
   -1
100
AcDbLine
 10
138.2631702088891
 20
107.25
 11
138.0231702088891
 21
107.25
  0
SPLINE
  5
1B4
100
AcDbEntity
  8
ProjItem001
  6
ByLayer
 62
  256
370
   -1
100
AcDbSpline
210
0
220
0
230
0
 70
    8
 71
    1
 72
    4
 73
    2
 74
    0
 42
1e-07
 43
1e-07
 40
4.71239
 40
4.71239
 40
4.71816
 40
4.71816
 10
138.0011702088891
 20
107.25
 30
0
 10
138.0011702088891
 20
107.25
 30
0
  0
SPLINE
  5
1B5
100
AcDbEntity
  8
ProjItem001
  6
ByLayer
 62
  256
370
   -1
100
AcDbSpline
210
0
220
0
230
0
 70
    8
 71
    2
 72
    6
 73
    3
 74
    0
 42
1e-07
 43
1e-07
 40
0
 40
0
 40
0
 40
1
 40
1
 40
1
 10
138.0011702088891
 20
107.25
 30
0
 10
138.0041702088891
 20
107.25
 30
0
 10
138.0231702088891
 20
107.25
 30
0
  0
LINE
  5
1B6
100
AcDbEntity
  8
ProjItem001
  6
ByLayer
 62
  256
370
   -1
100
AcDbLine
 10
138.3011702088891
 20
108.65
 11
138.2631702088891
 21
108.65
  0
LINE
  5
1B7
100
AcDbEntity
  8
ProjItem001
  6
ByLayer
 62
  256
370
   -1
100
AcDbLine
 10
138.2631702088891
 20
108.65
 11
138.0231702088891
 21
108.65
  0
SPLINE
  5
1B8
100
AcDbEntity
  8
ProjItem001
  6
ByLayer
 62
  256
370
   -1
100
AcDbSpline
210
0
220
0
230
0
 70
    8
 71
    1
 72
    4
 73
    2
 74
    0
 42
1e-07
 43
1e-07
 40
4.71239
 40
4.71239
 40
4.71816
 40
4.71816
 10
138.0011702088891
 20
108.65
 30
0
 10
138.0011702088891
 20
108.65
 30
0
  0
SPLINE
  5
1B9
100
AcDbEntity
  8
ProjItem001
  6
ByLayer
 62
  256
370
   -1
100
AcDbSpline
210
0
220
0
230
0
 70
    8
 71
    2
 72
    6
 73
    3
 74
    0
 42
1e-07
 43
1e-07
 40
0
 40
0
 40
0
 40
1
 40
1
 40
1
 10
138.0011702088891
 20
108.65
 30
0
 10
138.0041702088891
 20
108.65
 30
0
 10
138.0231702088891
 20
108.65
 30
0
  0
LINE
  5
1BA
100
AcDbEntity
  8
ProjItem001
  6
ByLayer
 62
  256
370
   -1
100
AcDbLine
 10
138.3011702088891
 20
109.15
 11
138.3011702088891
 21
108.65
  0
LINE
  5
1BB
100
AcDbEntity
  8
ProjItem001
  6
ByLayer
 62
  256
370
   -1
100
AcDbLine
 10
138.3011702088891
 20
109.15
 11
138.2631702088891
 21
109.15
  0
LINE
  5
1BC
100
AcDbEntity
  8
ProjItem001
  6
ByLayer
 62
  256
370
   -1
100
AcDbLine
 10
138.2631702088891
 20
109.15
 11
138.0231702088891
 21
109.15
  0
SPLINE
  5
1BD
100
AcDbEntity
  8
ProjItem001
  6
ByLayer
 62
  256
370
   -1
100
AcDbSpline
210
0
220
0
230
0
 70
    8
 71
    1
 72
    4
 73
    2
 74
    0
 42
1e-07
 43
1e-07
 40
4.71239
 40
4.71239
 40
4.71816
 40
4.71816
 10
138.0011702088891
 20
109.15
 30
0
 10
138.0011702088891
 20
109.15
 30
0
  0
SPLINE
  5
1BE
100
AcDbEntity
  8
ProjItem001
  6
ByLayer
 62
  256
370
   -1
100
AcDbSpline
210
0
220
0
230
0
 70
    8
 71
    2
 72
    6
 73
    3
 74
    0
 42
1e-07
 43
1e-07
 40
0
 40
0
 40
0
 40
1
 40
1
 40
1
 10
138.0011702088891
 20
109.15
 30
0
 10
138.0041702088891
 20
109.15
 30
0
 10
138.0231702088891
 20
109.15
 30
0
  0
SPLINE
  5
1BF
100
AcDbEntity
  8
ProjItem001
  6
ByLayer
 62
  256
370
   -1
100
AcDbSpline
210
0
220
0
230
0
 70
    8
 71
    3
 72
   11
 73
    7
 74
    0
 42
1e-07
 43
1e-07
 40
0
 40
0
 40
0
 40
0
 40
0.785398
 40
0.785398
 40
0.785398
 40
1.5708
 40
1.5708
 40
1.5708
 40
1.5708
 10
138.6311702088891
 20
107.95
 30
0
 10
138.6311702088891
 20
107.842
 30
0
 10
138.6311702088891
 20
107.736
 30
0
 10
138.6311702088891
 20
107.66
 30
0
 10
138.6311702088891
 20
107.584
 30
0
 10
138.6311702088891
 20
107.54
 30
0
 10
138.6311702088891
 20
107.54
 30
0
  0
SPLINE
  5
1C0
100
AcDbEntity
  8
ProjItem001
  6
ByLayer
 62
  256
370
   -1
100
AcDbSpline
210
0
220
0
230
0
 70
    8
 71
    3
 72
   11
 73
    7
 74
    0
 42
1e-07
 43
1e-07
 40
4.71239
 40
4.71239
 40
4.71239
 40
4.71239
 40
5.49779
 40
5.49779
 40
5.49779
 40
6.28319
 40
6.28319
 40
6.28319
 40
6.28319
 10
138.6311702088891
 20
108.36
 30
0
 10
138.6311702088891
 20
108.36
 30
0
 10
138.6311702088891
 20
108.316
 30
0
 10
138.6311702088891
 20
108.24
 30
0
 10
138.6311702088891
 20
108.164
 30
0
 10
138.6311702088891
 20
108.058
 30
0
 10
138.6311702088891
 20
107.95
 30
0
  0
LINE
  5
1C1
100
AcDbEntity
  8
ProjItem001
  6
ByLayer
 62
  256
370
   -1
100
AcDbLine
 10
138.2631702088891
 20
106.75
 11
138.2631702088891
 21
107.25
  0
LINE
  5
1C2
100
AcDbEntity
  8
ProjItem001
  6
ByLayer
 62
  256
370
   -1
100
AcDbLine
 10
138.2631702088891
 20
109.15
 11
138.2631702088891
 21
108.65
  0
LINE
  5
1C3
100
AcDbEntity
  8
ProjItem001
  6
ByLayer
 62
  256
370
   -1
100
AcDbLine
 10
138.0011702088891
 20
106.383
 11
138.0011702088891
 21
106.383
  0
SPLINE
  5
1C4
100
AcDbEntity
  8
ProjItem001
  6
ByLayer
 62
  256
370
   -1
100
AcDbSpline
210
0
220
0
230
0
 70
    8
 71
    1
 72
   17
 73
   15
 74
    0
 42
1e-07
 43
1e-07
 40
3.14159
 40
3.14159
 40
3.36599
 40
3.59039
 40
3.81479
 40
4.03919
 40
4.26359
 40
4.48799
 40
4.71239
 40
4.93679
 40
5.16119
 40
5.38559
 40
5.60999
 40
5.83439
 40
6.05879
 40
6.28319
 40
6.28319
 10
138.0011702088891
 20
104.517
 30
0
 10
138.0011702088891
 20
104.54
 30
0
 10
138.0011702088891
 20
104.609
 30
0
 10
138.0011702088891
 20
104.72
 30
0
 10
138.0011702088891
 20
104.868
 30
0
 10
138.0011702088891
 20
105.045
 30
0
 10
138.0011702088891
 20
105.242
 30
0
 10
138.0011702088891
 20
105.45
 30
0
 10
138.0011702088891
 20
105.658
 30
0
 10
138.0011702088891
 20
105.855
 30
0
 10
138.0011702088891
 20
106.032
 30
0
 10
138.0011702088891
 20
106.18
 30
0
 10
138.0011702088891
 20
106.291
 30
0
 10
138.0011702088891
 20
106.36
 30
0
 10
138.0011702088891
 20
106.383
 30
0
  0
SPLINE
  5
1C5
100
AcDbEntity
  8
ProjItem001
  6
ByLayer
 62
  256
370
   -1
100
AcDbSpline
210
0
220
0
230
0
 70
    8
 71
    1
 72
   17
 73
   15
 74
    0
 42
1e-07
 43
1e-07
 40
3.14159
 40
3.14159
 40
3.36599
 40
3.59039
 40
3.81479
 40
4.03919
 40
4.26359
 40
4.48799
 40
4.71239
 40
4.93679
 40
5.16119
 40
5.38559
 40
5.60999
 40
5.83439
 40
6.05879
 40
6.28319
 40
6.28319
 10
138.0011702088891
 20
104.517
 30
0
 10
138.0011702088891
 20
104.54
 30
0
 10
138.0011702088891
 20
104.609
 30
0
 10
138.0011702088891
 20
104.72
 30
0
 10
138.0011702088891
 20
104.868
 30
0
 10
138.0011702088891
 20
105.045
 30
0
 10
138.0011702088891
 20
105.242
 30
0
 10
138.0011702088891
 20
105.45
 30
0
 10
138.0011702088891
 20
105.658
 30
0
 10
138.0011702088891
 20
105.855
 30
0
 10
138.0011702088891
 20
106.032
 30
0
 10
138.0011702088891
 20
106.18
 30
0
 10
138.0011702088891
 20
106.291
 30
0
 10
138.0011702088891
 20
106.36
 30
0
 10
138.0011702088891
 20
106.383
 30
0
  0
LINE
  5
1C6
100
AcDbEntity
  8
ProjItem001
  6
ByLayer
 62
  256
370
   -1
100
AcDbLine
 10
138.0011702088891
 20
109.517
 11
138.0011702088891
 21
109.517
  0
SPLINE
  5
1C7
100
AcDbEntity
  8
ProjItem001
  6
ByLayer
 62
  256
370
   -1
100
AcDbSpline
210
0
220
0
230
0
 70
    8
 71
    1
 72
   17
 73
   15
 74
    0
 42
1e-07
 43
1e-07
 40
0
 40
0
 40
0.224399
 40
0.448799
 40
0.673198
 40
0.897598
 40
1.122
 40
1.3464
 40
1.5708
 40
1.7952
 40
2.0196
 40
2.24399
 40
2.46839
 40
2.69279
 40
2.91719
 40
3.14159
 40
3.14159
 10
138.0011702088891
 20
109.517
 30
0
 10
138.0011702088891
 20
109.54
 30
0
 10
138.0011702088891
 20
109.609
 30
0
 10
138.0011702088891
 20
109.72
 30
0
 10
138.0011702088891
 20
109.868
 30
0
 10
138.0011702088891
 20
110.045
 30
0
 10
138.0011702088891
 20
110.242
 30
0
 10
138.0011702088891
 20
110.45
 30
0
 10
138.0011702088891
 20
110.658
 30
0
 10
138.0011702088891
 20
110.855
 30
0
 10
138.0011702088891
 20
111.032
 30
0
 10
138.0011702088891
 20
111.18
 30
0
 10
138.0011702088891
 20
111.291
 30
0
 10
138.0011702088891
 20
111.36
 30
0
 10
138.0011702088891
 20
111.383
 30
0
  0
SPLINE
  5
1C8
100
AcDbEntity
  8
ProjItem001
  6
ByLayer
 62
  256
370
   -1
100
AcDbSpline
210
0
220
0
230
0
 70
    8
 71
    1
 72
   17
 73
   15
 74
    0
 42
1e-07
 43
1e-07
 40
0
 40
0
 40
0.224399
 40
0.448799
 40
0.673198
 40
0.897598
 40
1.122
 40
1.3464
 40
1.5708
 40
1.7952
 40
2.0196
 40
2.24399
 40
2.46839
 40
2.69279
 40
2.91719
 40
3.14159
 40
3.14159
 10
138.0011702088891
 20
109.517
 30
0
 10
138.0011702088891
 20
109.54
 30
0
 10
138.0011702088891
 20
109.609
 30
0
 10
138.0011702088891
 20
109.72
 30
0
 10
138.0011702088891
 20
109.868
 30
0
 10
138.0011702088891
 20
110.045
 30
0
 10
138.0011702088891
 20
110.242
 30
0
 10
138.0011702088891
 20
110.45
 30
0
 10
138.0011702088891
 20
110.658
 30
0
 10
138.0011702088891
 20
110.855
 30
0
 10
138.0011702088891
 20
111.032
 30
0
 10
138.0011702088891
 20
111.18
 30
0
 10
138.0011702088891
 20
111.291
 30
0
 10
138.0011702088891
 20
111.36
 30
0
 10
138.0011702088891
 20
111.383
 30
0
  0
LINE
  5
1C9
100
AcDbEntity
  8
ProjItem001
  6
ByLayer
 62
  256
370
   -1
100
AcDbLine
 10
138.0011702088891
 20
107.35
 11
138.0011702088891
 21
107.35
  0
SPLINE
  5
1CA
100
AcDbEntity
  8
ProjItem001
  6
ByLayer
 62
  256
370
   -1
100
AcDbSpline
210
0
220
0
230
0
 70
    8
 71
    3
 72
    8
 73
    4
 74
    0
 42
1e-07
 43
1e-07
 40
0
 40
0
 40
0
 40
0
 40
1.5708
 40
1.5708
 40
1.5708
 40
1.5708
 10
138.0011702088891
 20
107.35
 30
0
 10
138.0011702088891
 20
107.351
 30
0
 10
138.0011702088891
 20
107.327
 30
0
 10
138.0011702088891
 20
107.301
 30
0
  0
SPLINE
  5
1CB
100
AcDbEntity
  8
ProjItem001
  6
ByLayer
 62
  256
370
   -1
100
AcDbSpline
210
0
220
0
230
0
 70
    8
 71
    3
 72
    8
 73
    4
 74
    0
 42
1e-07
 43
1e-07
 40
0
 40
0
 40
0
 40
0
 40
1.5708
 40
1.5708
 40
1.5708
 40
1.5708
 10
138.0011702088891
 20
107.35
 30
0
 10
138.0011702088891
 20
107.351
 30
0
 10
138.0011702088891
 20
107.327
 30
0
 10
138.0011702088891
 20
107.301
 30
0
  0
LINE
  5
1CC
100
AcDbEntity
  8
ProjItem001
  6
ByLayer
 62
  256
370
   -1
100
AcDbLine
 10
138.0011702088891
 20
107.301
 11
138.0011702088891
 21
106.699
  0
LINE
  5
1CD
100
AcDbEntity
  8
ProjItem001
  6
ByLayer
 62
  256
370
   -1
100
AcDbLine
 10
138.0011702088891
 20
107.301
 11
138.0011702088891
 21
106.699
  0
SPLINE
  5
1CE
100
AcDbEntity
  8
ProjItem001
  6
ByLayer
 62
  256
370
   -1
100
AcDbSpline
210
0
220
0
230
0
 70
    8
 71
    3
 72
    8
 73
    4
 74
    0
 42
1e-07
 43
1e-07
 40
0
 40
0
 40
0
 40
0
 40
1.5708
 40
1.5708
 40
1.5708
 40
1.5708
 10
138.0011702088891
 20
106.699
 30
0
 10
138.0011702088891
 20
106.673
 30
0
 10
138.0011702088891
 20
106.649
 30
0
 10
138.0011702088891
 20
106.65
 30
0
  0
LINE
  5
1CF
100
AcDbEntity
  8
ProjItem001
  6
ByLayer
 62
  256
370
   -1
100
AcDbLine
 10
138.0011702088891
 20
106.65
 11
138.0011702088891
 21
106.65
  0
SPLINE
  5
1D0
100
AcDbEntity
  8
ProjItem001
  6
ByLayer
 62
  256
370
   -1
100
AcDbSpline
210
0
220
0
230
0
 70
    8
 71
    3
 72
    8
 73
    4
 74
    0
 42
1e-07
 43
1e-07
 40
0
 40
0
 40
0
 40
0
 40
1.5708
 40
1.5708
 40
1.5708
 40
1.5708
 10
138.0011702088891
 20
106.699
 30
0
 10
138.0011702088891
 20
106.673
 30
0
 10
138.0011702088891
 20
106.649
 30
0
 10
138.0011702088891
 20
106.65
 30
0
  0
LINE
  5
1D1
100
AcDbEntity
  8
ProjItem001
  6
ByLayer
 62
  256
370
   -1
100
AcDbLine
 10
138.0011702088891
 20
109.25
 11
138.0011702088891
 21
109.25
  0
SPLINE
  5
1D2
100
AcDbEntity
  8
ProjItem001
  6
ByLayer
 62
  256
370
   -1
100
AcDbSpline
210
0
220
0
230
0
 70
    8
 71
    3
 72
    8
 73
    4
 74
    0
 42
1e-07
 43
1e-07
 40
0
 40
0
 40
0
 40
0
 40
1.5708
 40
1.5708
 40
1.5708
 40
1.5708
 10
138.0011702088891
 20
109.25
 30
0
 10
138.0011702088891
 20
109.251
 30
0
 10
138.0011702088891
 20
109.227
 30
0
 10
138.0011702088891
 20
109.201
 30
0
  0
SPLINE
  5
1D3
100
AcDbEntity
  8
ProjItem001
  6
ByLayer
 62
  256
370
   -1
100
AcDbSpline
210
0
220
0
230
0
 70
    8
 71
    3
 72
    8
 73
    4
 74
    0
 42
1e-07
 43
1e-07
 40
0
 40
0
 40
0
 40
0
 40
1.5708
 40
1.5708
 40
1.5708
 40
1.5708
 10
138.0011702088891
 20
109.25
 30
0
 10
138.0011702088891
 20
109.251
 30
0
 10
138.0011702088891
 20
109.227
 30
0
 10
138.0011702088891
 20
109.201
 30
0
  0
LINE
  5
1D4
100
AcDbEntity
  8
ProjItem001
  6
ByLayer
 62
  256
370
   -1
100
AcDbLine
 10
138.0011702088891
 20
109.201
 11
138.0011702088891
 21
108.599
  0
LINE
  5
1D5
100
AcDbEntity
  8
ProjItem001
  6
ByLayer
 62
  256
370
   -1
100
AcDbLine
 10
138.0011702088891
 20
109.201
 11
138.0011702088891
 21
108.599
  0
SPLINE
  5
1D6
100
AcDbEntity
  8
ProjItem001
  6
ByLayer
 62
  256
370
   -1
100
AcDbSpline
210
0
220
0
230
0
 70
    8
 71
    3
 72
    8
 73
    4
 74
    0
 42
1e-07
 43
1e-07
 40
0
 40
0
 40
0
 40
0
 40
1.5708
 40
1.5708
 40
1.5708
 40
1.5708
 10
138.0011702088891
 20
108.599
 30
0
 10
138.0011702088891
 20
108.573
 30
0
 10
138.0011702088891
 20
108.549
 30
0
 10
138.0011702088891
 20
108.55
 30
0
  0
LINE
  5
1D7
100
AcDbEntity
  8
ProjItem001
  6
ByLayer
 62
  256
370
   -1
100
AcDbLine
 10
138.0011702088891
 20
108.55
 11
138.0011702088891
 21
108.55
  0
SPLINE
  5
1D8
100
AcDbEntity
  8
ProjItem001
  6
ByLayer
 62
  256
370
   -1
100
AcDbSpline
210
0
220
0
230
0
 70
    8
 71
    3
 72
    8
 73
    4
 74
    0
 42
1e-07
 43
1e-07
 40
0
 40
0
 40
0
 40
0
 40
1.5708
 40
1.5708
 40
1.5708
 40
1.5708
 10
138.0011702088891
 20
108.599
 30
0
 10
138.0011702088891
 20
108.573
 30
0
 10
138.0011702088891
 20
108.549
 30
0
 10
138.0011702088891
 20
108.55
 30
0
  0
SPLINE
  5
1D9
100
AcDbEntity
  8
ProjItem001
  6
ByLayer
 62
  256
370
   -1
100
AcDbSpline
210
0
220
0
230
0
 70
    8
 71
    1
 72
   17
 73
   15
 74
    0
 42
1e-07
 43
1e-07
 40
3.14159
 40
3.14159
 40
3.36599
 40
3.59039
 40
3.81479
 40
4.03919
 40
4.26359
 40
4.48799
 40
4.71239
 40
4.93679
 40
5.16119
 40
5.38559
 40
5.60999
 40
5.83439
 40
6.05879
 40
6.28319
 40
6.28319
 10
137.4011702088891
 20
104.517
 30
0
 10
137.4011702088891
 20
104.54
 30
0
 10
137.4011702088891
 20
104.609
 30
0
 10
137.4011702088891
 20
104.72
 30
0
 10
137.4011702088891
 20
104.868
 30
0
 10
137.4011702088891
 20
105.045
 30
0
 10
137.4011702088891
 20
105.242
 30
0
 10
137.4011702088891
 20
105.45
 30
0
 10
137.4011702088891
 20
105.658
 30
0
 10
137.4011702088891
 20
105.855
 30
0
 10
137.4011702088891
 20
106.032
 30
0
 10
137.4011702088891
 20
106.18
 30
0
 10
137.4011702088891
 20
106.291
 30
0
 10
137.4011702088891
 20
106.36
 30
0
 10
137.4011702088891
 20
106.383
 30
0
  0
LINE
  5
1DA
100
AcDbEntity
  8
ProjItem001
  6
ByLayer
 62
  256
370
   -1
100
AcDbLine
 10
137.4011702088891
 20
106.383
 11
137.4011702088891
 21
106.383
  0
SPLINE
  5
1DB
100
AcDbEntity
  8
ProjItem001
  6
ByLayer
 62
  256
370
   -1
100
AcDbSpline
210
0
220
0
230
0
 70
    8
 71
    1
 72
   17
 73
   15
 74
    0
 42
1e-07
 43
1e-07
 40
3.14159
 40
3.14159
 40
3.36599
 40
3.59039
 40
3.81479
 40
4.03919
 40
4.26359
 40
4.48799
 40
4.71239
 40
4.93679
 40
5.16119
 40
5.38559
 40
5.60999
 40
5.83439
 40
6.05879
 40
6.28319
 40
6.28319
 10
137.4011702088891
 20
104.517
 30
0
 10
137.4011702088891
 20
104.54
 30
0
 10
137.4011702088891
 20
104.609
 30
0
 10
137.4011702088891
 20
104.72
 30
0
 10
137.4011702088891
 20
104.868
 30
0
 10
137.4011702088891
 20
105.045
 30
0
 10
137.4011702088891
 20
105.242
 30
0
 10
137.4011702088891
 20
105.45
 30
0
 10
137.4011702088891
 20
105.658
 30
0
 10
137.4011702088891
 20
105.855
 30
0
 10
137.4011702088891
 20
106.032
 30
0
 10
137.4011702088891
 20
106.18
 30
0
 10
137.4011702088891
 20
106.291
 30
0
 10
137.4011702088891
 20
106.36
 30
0
 10
137.4011702088891
 20
106.383
 30
0
  0
SPLINE
  5
1DC
100
AcDbEntity
  8
ProjItem001
  6
ByLayer
 62
  256
370
   -1
100
AcDbSpline
210
0
220
0
230
0
 70
    8
 71
    1
 72
   17
 73
   15
 74
    0
 42
1e-07
 43
1e-07
 40
0
 40
0
 40
0.224399
 40
0.448799
 40
0.673198
 40
0.897598
 40
1.122
 40
1.3464
 40
1.5708
 40
1.7952
 40
2.0196
 40
2.24399
 40
2.46839
 40
2.69279
 40
2.91719
 40
3.14159
 40
3.14159
 10
137.4011702088891
 20
109.517
 30
0
 10
137.4011702088891
 20
109.54
 30
0
 10
137.4011702088891
 20
109.609
 30
0
 10
137.4011702088891
 20
109.72
 30
0
 10
137.4011702088891
 20
109.868
 30
0
 10
137.4011702088891
 20
110.045
 30
0
 10
137.4011702088891
 20
110.242
 30
0
 10
137.4011702088891
 20
110.45
 30
0
 10
137.4011702088891
 20
110.658
 30
0
 10
137.4011702088891
 20
110.855
 30
0
 10
137.4011702088891
 20
111.032
 30
0
 10
137.4011702088891
 20
111.18
 30
0
 10
137.4011702088891
 20
111.291
 30
0
 10
137.4011702088891
 20
111.36
 30
0
 10
137.4011702088891
 20
111.383
 30
0
  0
LINE
  5
1DD
100
AcDbEntity
  8
ProjItem001
  6
ByLayer
 62
  256
370
   -1
100
AcDbLine
 10
137.4011702088891
 20
109.517
 11
137.4011702088891
 21
109.517
  0
SPLINE
  5
1DE
100
AcDbEntity
  8
ProjItem001
  6
ByLayer
 62
  256
370
   -1
100
AcDbSpline
210
0
220
0
230
0
 70
    8
 71
    1
 72
   17
 73
   15
 74
    0
 42
1e-07
 43
1e-07
 40
0
 40
0
 40
0.224399
 40
0.448799
 40
0.673198
 40
0.897598
 40
1.122
 40
1.3464
 40
1.5708
 40
1.7952
 40
2.0196
 40
2.24399
 40
2.46839
 40
2.69279
 40
2.91719
 40
3.14159
 40
3.14159
 10
137.4011702088891
 20
109.517
 30
0
 10
137.4011702088891
 20
109.54
 30
0
 10
137.4011702088891
 20
109.609
 30
0
 10
137.4011702088891
 20
109.72
 30
0
 10
137.4011702088891
 20
109.868
 30
0
 10
137.4011702088891
 20
110.045
 30
0
 10
137.4011702088891
 20
110.242
 30
0
 10
137.4011702088891
 20
110.45
 30
0
 10
137.4011702088891
 20
110.658
 30
0
 10
137.4011702088891
 20
110.855
 30
0
 10
137.4011702088891
 20
111.032
 30
0
 10
137.4011702088891
 20
111.18
 30
0
 10
137.4011702088891
 20
111.291
 30
0
 10
137.4011702088891
 20
111.36
 30
0
 10
137.4011702088891
 20
111.383
 30
0
  0
LINE
  5
1DF
100
AcDbEntity
  8
ProjItem001
  6
ByLayer
 62
  256
370
   -1
100
AcDbLine
 10
138.0011702088891
 20
106.383
 11
138.0011702088891
 21
106.383
  0
SPLINE
  5
1E0
100
AcDbEntity
  8
ProjItem001
  6
ByLayer
 62
  256
370
   -1
100
AcDbSpline
210
0
220
0
230
0
 70
    8
 71
    1
 72
   17
 73
   15
 74
    0
 42
1e-07
 43
1e-07
 40
3.14159
 40
3.14159
 40
3.36599
 40
3.59039
 40
3.81479
 40
4.03919
 40
4.26359
 40
4.48799
 40
4.71239
 40
4.93679
 40
5.16119
 40
5.38559
 40
5.60999
 40
5.83439
 40
6.05879
 40
6.28319
 40
6.28319
 10
138.0011702088891
 20
104.517
 30
0
 10
138.0011702088891
 20
104.54
 30
0
 10
138.0011702088891
 20
104.609
 30
0
 10
138.0011702088891
 20
104.72
 30
0
 10
138.0011702088891
 20
104.868
 30
0
 10
138.0011702088891
 20
105.045
 30
0
 10
138.0011702088891
 20
105.242
 30
0
 10
138.0011702088891
 20
105.45
 30
0
 10
138.0011702088891
 20
105.658
 30
0
 10
138.0011702088891
 20
105.855
 30
0
 10
138.0011702088891
 20
106.032
 30
0
 10
138.0011702088891
 20
106.18
 30
0
 10
138.0011702088891
 20
106.291
 30
0
 10
138.0011702088891
 20
106.36
 30
0
 10
138.0011702088891
 20
106.383
 30
0
  0
SPLINE
  5
1E1
100
AcDbEntity
  8
ProjItem001
  6
ByLayer
 62
  256
370
   -1
100
AcDbSpline
210
0
220
0
230
0
 70
    8
 71
    1
 72
   17
 73
   15
 74
    0
 42
1e-07
 43
1e-07
 40
3.14159
 40
3.14159
 40
3.36599
 40
3.59039
 40
3.81479
 40
4.03919
 40
4.26359
 40
4.48799
 40
4.71239
 40
4.93679
 40
5.16119
 40
5.38559
 40
5.60999
 40
5.83439
 40
6.05879
 40
6.28319
 40
6.28319
 10
138.0011702088891
 20
104.517
 30
0
 10
138.0011702088891
 20
104.54
 30
0
 10
138.0011702088891
 20
104.609
 30
0
 10
138.0011702088891
 20
104.72
 30
0
 10
138.0011702088891
 20
104.868
 30
0
 10
138.0011702088891
 20
105.045
 30
0
 10
138.0011702088891
 20
105.242
 30
0
 10
138.0011702088891
 20
105.45
 30
0
 10
138.0011702088891
 20
105.658
 30
0
 10
138.0011702088891
 20
105.855
 30
0
 10
138.0011702088891
 20
106.032
 30
0
 10
138.0011702088891
 20
106.18
 30
0
 10
138.0011702088891
 20
106.291
 30
0
 10
138.0011702088891
 20
106.36
 30
0
 10
138.0011702088891
 20
106.383
 30
0
  0
LINE
  5
1E2
100
AcDbEntity
  8
ProjItem001
  6
ByLayer
 62
  256
370
   -1
100
AcDbLine
 10
138.0011702088891
 20
109.517
 11
138.0011702088891
 21
109.517
  0
SPLINE
  5
1E3
100
AcDbEntity
  8
ProjItem001
  6
ByLayer
 62
  256
370
   -1
100
AcDbSpline
210
0
220
0
230
0
 70
    8
 71
    1
 72
   17
 73
   15
 74
    0
 42
1e-07
 43
1e-07
 40
0
 40
0
 40
0.224399
 40
0.448799
 40
0.673198
 40
0.897598
 40
1.122
 40
1.3464
 40
1.5708
 40
1.7952
 40
2.0196
 40
2.24399
 40
2.46839
 40
2.69279
 40
2.91719
 40
3.14159
 40
3.14159
 10
138.0011702088891
 20
109.517
 30
0
 10
138.0011702088891
 20
109.54
 30
0
 10
138.0011702088891
 20
109.609
 30
0
 10
138.0011702088891
 20
109.72
 30
0
 10
138.0011702088891
 20
109.868
 30
0
 10
138.0011702088891
 20
110.045
 30
0
 10
138.0011702088891
 20
110.242
 30
0
 10
138.0011702088891
 20
110.45
 30
0
 10
138.0011702088891
 20
110.658
 30
0
 10
138.0011702088891
 20
110.855
 30
0
 10
138.0011702088891
 20
111.032
 30
0
 10
138.0011702088891
 20
111.18
 30
0
 10
138.0011702088891
 20
111.291
 30
0
 10
138.0011702088891
 20
111.36
 30
0
 10
138.0011702088891
 20
111.383
 30
0
  0
SPLINE
  5
1E4
100
AcDbEntity
  8
ProjItem001
  6
ByLayer
 62
  256
370
   -1
100
AcDbSpline
210
0
220
0
230
0
 70
    8
 71
    1
 72
   17
 73
   15
 74
    0
 42
1e-07
 43
1e-07
 40
0
 40
0
 40
0.224399
 40
0.448799
 40
0.673198
 40
0.897598
 40
1.122
 40
1.3464
 40
1.5708
 40
1.7952
 40
2.0196
 40
2.24399
 40
2.46839
 40
2.69279
 40
2.91719
 40
3.14159
 40
3.14159
 10
138.0011702088891
 20
109.517
 30
0
 10
138.0011702088891
 20
109.54
 30
0
 10
138.0011702088891
 20
109.609
 30
0
 10
138.0011702088891
 20
109.72
 30
0
 10
138.0011702088891
 20
109.868
 30
0
 10
138.0011702088891
 20
110.045
 30
0
 10
138.0011702088891
 20
110.242
 30
0
 10
138.0011702088891
 20
110.45
 30
0
 10
138.0011702088891
 20
110.658
 30
0
 10
138.0011702088891
 20
110.855
 30
0
 10
138.0011702088891
 20
111.032
 30
0
 10
138.0011702088891
 20
111.18
 30
0
 10
138.0011702088891
 20
111.291
 30
0
 10
138.0011702088891
 20
111.36
 30
0
 10
138.0011702088891
 20
111.383
 30
0
  0
LINE
  5
1E5
100
AcDbEntity
  8
ProjItem001
  6
ByLayer
 62
  256
370
   -1
100
AcDbLine
 10
138.0011702088891
 20
107.35
 11
138.0011702088891
 21
107.35
  0
SPLINE
  5
1E6
100
AcDbEntity
  8
ProjItem001
  6
ByLayer
 62
  256
370
   -1
100
AcDbSpline
210
0
220
0
230
0
 70
    8
 71
    3
 72
    8
 73
    4
 74
    0
 42
1e-07
 43
1e-07
 40
0
 40
0
 40
0
 40
0
 40
1.5708
 40
1.5708
 40
1.5708
 40
1.5708
 10
138.0011702088891
 20
107.35
 30
0
 10
138.0011702088891
 20
107.351
 30
0
 10
138.0011702088891
 20
107.327
 30
0
 10
138.0011702088891
 20
107.301
 30
0
  0
SPLINE
  5
1E7
100
AcDbEntity
  8
ProjItem001
  6
ByLayer
 62
  256
370
   -1
100
AcDbSpline
210
0
220
0
230
0
 70
    8
 71
    3
 72
    8
 73
    4
 74
    0
 42
1e-07
 43
1e-07
 40
0
 40
0
 40
0
 40
0
 40
1.5708
 40
1.5708
 40
1.5708
 40
1.5708
 10
138.0011702088891
 20
107.35
 30
0
 10
138.0011702088891
 20
107.351
 30
0
 10
138.0011702088891
 20
107.327
 30
0
 10
138.0011702088891
 20
107.301
 30
0
  0
LINE
  5
1E8
100
AcDbEntity
  8
ProjItem001
  6
ByLayer
 62
  256
370
   -1
100
AcDbLine
 10
138.0011702088891
 20
107.301
 11
138.0011702088891
 21
106.699
  0
LINE
  5
1E9
100
AcDbEntity
  8
ProjItem001
  6
ByLayer
 62
  256
370
   -1
100
AcDbLine
 10
138.0011702088891
 20
107.301
 11
138.0011702088891
 21
106.699
  0
SPLINE
  5
1EA
100
AcDbEntity
  8
ProjItem001
  6
ByLayer
 62
  256
370
   -1
100
AcDbSpline
210
0
220
0
230
0
 70
    8
 71
    3
 72
    8
 73
    4
 74
    0
 42
1e-07
 43
1e-07
 40
0
 40
0
 40
0
 40
0
 40
1.5708
 40
1.5708
 40
1.5708
 40
1.5708
 10
138.0011702088891
 20
106.699
 30
0
 10
138.0011702088891
 20
106.673
 30
0
 10
138.0011702088891
 20
106.649
 30
0
 10
138.0011702088891
 20
106.65
 30
0
  0
LINE
  5
1EB
100
AcDbEntity
  8
ProjItem001
  6
ByLayer
 62
  256
370
   -1
100
AcDbLine
 10
138.0011702088891
 20
106.65
 11
138.0011702088891
 21
106.65
  0
SPLINE
  5
1EC
100
AcDbEntity
  8
ProjItem001
  6
ByLayer
 62
  256
370
   -1
100
AcDbSpline
210
0
220
0
230
0
 70
    8
 71
    3
 72
    8
 73
    4
 74
    0
 42
1e-07
 43
1e-07
 40
0
 40
0
 40
0
 40
0
 40
1.5708
 40
1.5708
 40
1.5708
 40
1.5708
 10
138.0011702088891
 20
106.699
 30
0
 10
138.0011702088891
 20
106.673
 30
0
 10
138.0011702088891
 20
106.649
 30
0
 10
138.0011702088891
 20
106.65
 30
0
  0
LINE
  5
1ED
100
AcDbEntity
  8
ProjItem001
  6
ByLayer
 62
  256
370
   -1
100
AcDbLine
 10
138.0011702088891
 20
109.25
 11
138.0011702088891
 21
109.25
  0
SPLINE
  5
1EE
100
AcDbEntity
  8
ProjItem001
  6
ByLayer
 62
  256
370
   -1
100
AcDbSpline
210
0
220
0
230
0
 70
    8
 71
    3
 72
    8
 73
    4
 74
    0
 42
1e-07
 43
1e-07
 40
0
 40
0
 40
0
 40
0
 40
1.5708
 40
1.5708
 40
1.5708
 40
1.5708
 10
138.0011702088891
 20
109.25
 30
0
 10
138.0011702088891
 20
109.251
 30
0
 10
138.0011702088891
 20
109.227
 30
0
 10
138.0011702088891
 20
109.201
 30
0
  0
SPLINE
  5
1EF
100
AcDbEntity
  8
ProjItem001
  6
ByLayer
 62
  256
370
   -1
100
AcDbSpline
210
0
220
0
230
0
 70
    8
 71
    3
 72
    8
 73
    4
 74
    0
 42
1e-07
 43
1e-07
 40
0
 40
0
 40
0
 40
0
 40
1.5708
 40
1.5708
 40
1.5708
 40
1.5708
 10
138.0011702088891
 20
109.25
 30
0
 10
138.0011702088891
 20
109.251
 30
0
 10
138.0011702088891
 20
109.227
 30
0
 10
138.0011702088891
 20
109.201
 30
0
  0
LINE
  5
1F0
100
AcDbEntity
  8
ProjItem001
  6
ByLayer
 62
  256
370
   -1
100
AcDbLine
 10
138.0011702088891
 20
109.201
 11
138.0011702088891
 21
108.599
  0
LINE
  5
1F1
100
AcDbEntity
  8
ProjItem001
  6
ByLayer
 62
  256
370
   -1
100
AcDbLine
 10
138.0011702088891
 20
109.201
 11
138.0011702088891
 21
108.599
  0
SPLINE
  5
1F2
100
AcDbEntity
  8
ProjItem001
  6
ByLayer
 62
  256
370
   -1
100
AcDbSpline
210
0
220
0
230
0
 70
    8
 71
    3
 72
    8
 73
    4
 74
    0
 42
1e-07
 43
1e-07
 40
0
 40
0
 40
0
 40
0
 40
1.5708
 40
1.5708
 40
1.5708
 40
1.5708
 10
138.0011702088891
 20
108.599
 30
0
 10
138.0011702088891
 20
108.573
 30
0
 10
138.0011702088891
 20
108.549
 30
0
 10
138.0011702088891
 20
108.55
 30
0
  0
LINE
  5
1F3
100
AcDbEntity
  8
ProjItem001
  6
ByLayer
 62
  256
370
   -1
100
AcDbLine
 10
138.0011702088891
 20
108.55
 11
138.0011702088891
 21
108.55
  0
SPLINE
  5
1F4
100
AcDbEntity
  8
ProjItem001
  6
ByLayer
 62
  256
370
   -1
100
AcDbSpline
210
0
220
0
230
0
 70
    8
 71
    3
 72
    8
 73
    4
 74
    0
 42
1e-07
 43
1e-07
 40
0
 40
0
 40
0
 40
0
 40
1.5708
 40
1.5708
 40
1.5708
 40
1.5708
 10
138.0011702088891
 20
108.599
 30
0
 10
138.0011702088891
 20
108.573
 30
0
 10
138.0011702088891
 20
108.549
 30
0
 10
138.0011702088891
 20
108.55
 30
0
  0
SPLINE
  5
1F5
100
AcDbEntity
  8
ProjItem001
  6
ByLayer
 62
  256
370
   -1
100
AcDbSpline
210
0
220
0
230
0
 70
    8
 71
    1
 72
   17
 73
   15
 74
    0
 42
1e-07
 43
1e-07
 40
3.14159
 40
3.14159
 40
3.36599
 40
3.59039
 40
3.81479
 40
4.03919
 40
4.26359
 40
4.48799
 40
4.71239
 40
4.93679
 40
5.16119
 40
5.38559
 40
5.60999
 40
5.83439
 40
6.05879
 40
6.28319
 40
6.28319
 10
137.4011702088891
 20
104.517
 30
0
 10
137.4011702088891
 20
104.54
 30
0
 10
137.4011702088891
 20
104.609
 30
0
 10
137.4011702088891
 20
104.72
 30
0
 10
137.4011702088891
 20
104.868
 30
0
 10
137.4011702088891
 20
105.045
 30
0
 10
137.4011702088891
 20
105.242
 30
0
 10
137.4011702088891
 20
105.45
 30
0
 10
137.4011702088891
 20
105.658
 30
0
 10
137.4011702088891
 20
105.855
 30
0
 10
137.4011702088891
 20
106.032
 30
0
 10
137.4011702088891
 20
106.18
 30
0
 10
137.4011702088891
 20
106.291
 30
0
 10
137.4011702088891
 20
106.36
 30
0
 10
137.4011702088891
 20
106.383
 30
0
  0
LINE
  5
1F6
100
AcDbEntity
  8
ProjItem001
  6
ByLayer
 62
  256
370
   -1
100
AcDbLine
 10
137.4011702088891
 20
106.383
 11
137.4011702088891
 21
106.383
  0
SPLINE
  5
1F7
100
AcDbEntity
  8
ProjItem001
  6
ByLayer
 62
  256
370
   -1
100
AcDbSpline
210
0
220
0
230
0
 70
    8
 71
    1
 72
   17
 73
   15
 74
    0
 42
1e-07
 43
1e-07
 40
3.14159
 40
3.14159
 40
3.36599
 40
3.59039
 40
3.81479
 40
4.03919
 40
4.26359
 40
4.48799
 40
4.71239
 40
4.93679
 40
5.16119
 40
5.38559
 40
5.60999
 40
5.83439
 40
6.05879
 40
6.28319
 40
6.28319
 10
137.4011702088891
 20
104.517
 30
0
 10
137.4011702088891
 20
104.54
 30
0
 10
137.4011702088891
 20
104.609
 30
0
 10
137.4011702088891
 20
104.72
 30
0
 10
137.4011702088891
 20
104.868
 30
0
 10
137.4011702088891
 20
105.045
 30
0
 10
137.4011702088891
 20
105.242
 30
0
 10
137.4011702088891
 20
105.45
 30
0
 10
137.4011702088891
 20
105.658
 30
0
 10
137.4011702088891
 20
105.855
 30
0
 10
137.4011702088891
 20
106.032
 30
0
 10
137.4011702088891
 20
106.18
 30
0
 10
137.4011702088891
 20
106.291
 30
0
 10
137.4011702088891
 20
106.36
 30
0
 10
137.4011702088891
 20
106.383
 30
0
  0
SPLINE
  5
1F8
100
AcDbEntity
  8
ProjItem001
  6
ByLayer
 62
  256
370
   -1
100
AcDbSpline
210
0
220
0
230
0
 70
    8
 71
    1
 72
   17
 73
   15
 74
    0
 42
1e-07
 43
1e-07
 40
0
 40
0
 40
0.224399
 40
0.448799
 40
0.673198
 40
0.897598
 40
1.122
 40
1.3464
 40
1.5708
 40
1.7952
 40
2.0196
 40
2.24399
 40
2.46839
 40
2.69279
 40
2.91719
 40
3.14159
 40
3.14159
 10
137.4011702088891
 20
109.517
 30
0
 10
137.4011702088891
 20
109.54
 30
0
 10
137.4011702088891
 20
109.609
 30
0
 10
137.4011702088891
 20
109.72
 30
0
 10
137.4011702088891
 20
109.868
 30
0
 10
137.4011702088891
 20
110.045
 30
0
 10
137.4011702088891
 20
110.242
 30
0
 10
137.4011702088891
 20
110.45
 30
0
 10
137.4011702088891
 20
110.658
 30
0
 10
137.4011702088891
 20
110.855
 30
0
 10
137.4011702088891
 20
111.032
 30
0
 10
137.4011702088891
 20
111.18
 30
0
 10
137.4011702088891
 20
111.291
 30
0
 10
137.4011702088891
 20
111.36
 30
0
 10
137.4011702088891
 20
111.383
 30
0
  0
LINE
  5
1F9
100
AcDbEntity
  8
ProjItem001
  6
ByLayer
 62
  256
370
   -1
100
AcDbLine
 10
137.4011702088891
 20
109.517
 11
137.4011702088891
 21
109.517
  0
SPLINE
  5
1FA
100
AcDbEntity
  8
ProjItem001
  6
ByLayer
 62
  256
370
   -1
100
AcDbSpline
210
0
220
0
230
0
 70
    8
 71
    1
 72
   17
 73
   15
 74
    0
 42
1e-07
 43
1e-07
 40
0
 40
0
 40
0.224399
 40
0.448799
 40
0.673198
 40
0.897598
 40
1.122
 40
1.3464
 40
1.5708
 40
1.7952
 40
2.0196
 40
2.24399
 40
2.46839
 40
2.69279
 40
2.91719
 40
3.14159
 40
3.14159
 10
137.4011702088891
 20
109.517
 30
0
 10
137.4011702088891
 20
109.54
 30
0
 10
137.4011702088891
 20
109.609
 30
0
 10
137.4011702088891
 20
109.72
 30
0
 10
137.4011702088891
 20
109.868
 30
0
 10
137.4011702088891
 20
110.045
 30
0
 10
137.4011702088891
 20
110.242
 30
0
 10
137.4011702088891
 20
110.45
 30
0
 10
137.4011702088891
 20
110.658
 30
0
 10
137.4011702088891
 20
110.855
 30
0
 10
137.4011702088891
 20
111.032
 30
0
 10
137.4011702088891
 20
111.18
 30
0
 10
137.4011702088891
 20
111.291
 30
0
 10
137.4011702088891
 20
111.36
 30
0
 10
137.4011702088891
 20
111.383
 30
0
  0
SPLINE
  5
1FB
100
AcDbEntity
  8
ProjItem001
  6
ByLayer
 62
  256
370
   -1
100
AcDbSpline
210
0
220
0
230
0
 70
    8
 71
    3
 72
   41
 73
   37
 74
    0
 42
1e-07
 43
1e-07
 40
0
 40
0
 40
0
 40
0
 40
0.336599
 40
0.336599
 40
0.336599
 40
0.448799
 40
0.448799
 40
0.448799
 40
0.560999
 40
0.560999
 40
0.560999
 40
0.673198
 40
0.673198
 40
0.673198
 40
0.785398
 40
0.785398
 40
0.785398
 40
0.897598
 40
0.897598
 40
0.897598
 40
1.0098
 40
1.0098
 40
1.0098
 40
1.122
 40
1.122
 40
1.122
 40
1.2342
 40
1.2342
 40
1.2342
 40
1.3464
 40
1.3464
 40
1.3464
 40
1.4586
 40
1.4586
 40
1.4586
 40
1.5708
 40
1.5708
 40
1.5708
 40
1.5708
 10
138.0011702088891
 20
109.55
 30
0
 10
138.0011702088891
 20
109.775
 30
0
 10
138.0011702088891
 20
109.997
 30
0
 10
138.0011702088891
 20
110.211
 30
0
 10
138.0011702088891
 20
110.28
 30
0
 10
138.0011702088891
 20
110.349
 30
0
 10
138.0011702088891
 20
110.418
 30
0
 10
138.0011702088891
 20
110.483
 30
0
 10
138.0011702088891
 20
110.549
 30
0
 10
138.0011702088891
 20
110.614
 30
0
 10
138.0011702088891
 20
110.675
 30
0
 10
138.0011702088891
 20
110.736
 30
0
 10
138.0011702088891
 20
110.797
 30
0
 10
138.0011702088891
 20
110.853
 30
0
 10
138.0011702088891
 20
110.908
 30
0
 10
138.0011702088891
 20
110.964
 30
0
 10
138.0011702088891
 20
111.014
 30
0
 10
138.0011702088891
 20
111.064
 30
0
 10
138.0011702088891
 20
111.114
 30
0
 10
138.0011702088891
 20
111.157
 30
0
 10
138.0011702088891
 20
111.2
 30
0
 10
138.0011702088891
 20
111.243
 30
0
 10
138.0011702088891
 20
111.28
 30
0
 10
138.0011702088891
 20
111.316
 30
0
 10
138.0011702088891
 20
111.352
 30
0
 10
138.0011702088891
 20
111.381
 30
0
 10
138.0011702088891
 20
111.409
 30
0
 10
138.0011702088891
 20
111.438
 30
0
 10
138.0011702088891
 20
111.458
 30
0
 10
138.0011702088891
 20
111.479
 30
0
 10
138.0011702088891
 20
111.5
 30
0
 10
138.0011702088891
 20
111.512
 30
0
 10
138.0011702088891
 20
111.525
 30
0
 10
138.0011702088891
 20
111.537
 30
0
 10
138.0011702088891
 20
111.542
 30
0
 10
138.0011702088891
 20
111.546
 30
0
 10
138.0011702088891
 20
111.55
 30
0
  0
SPLINE
  5
1FC
100
AcDbEntity
  8
ProjItem001
  6
ByLayer
 62
  256
370
   -1
100
AcDbSpline
210
0
220
0
230
0
 70
    8
 71
    3
 72
   41
 73
   37
 74
    0
 42
1e-07
 43
1e-07
 40
0
 40
0
 40
0
 40
0
 40
0.336599
 40
0.336599
 40
0.336599
 40
0.448799
 40
0.448799
 40
0.448799
 40
0.560999
 40
0.560999
 40
0.560999
 40
0.673198
 40
0.673198
 40
0.673198
 40
0.785398
 40
0.785398
 40
0.785398
 40
0.897598
 40
0.897598
 40
0.897598
 40
1.0098
 40
1.0098
 40
1.0098
 40
1.122
 40
1.122
 40
1.122
 40
1.2342
 40
1.2342
 40
1.2342
 40
1.3464
 40
1.3464
 40
1.3464
 40
1.4586
 40
1.4586
 40
1.4586
 40
1.5708
 40
1.5708
 40
1.5708
 40
1.5708
 10
137.4011702088891
 20
109.55
 30
0
 10
137.4011702088891
 20
109.775
 30
0
 10
137.4011702088891
 20
109.997
 30
0
 10
137.4011702088891
 20
110.211
 30
0
 10
137.4011702088891
 20
110.28
 30
0
 10
137.4011702088891
 20
110.349
 30
0
 10
137.4011702088891
 20
110.418
 30
0
 10
137.4011702088891
 20
110.483
 30
0
 10
137.4011702088891
 20
110.549
 30
0
 10
137.4011702088891
 20
110.614
 30
0
 10
137.4011702088891
 20
110.675
 30
0
 10
137.4011702088891
 20
110.736
 30
0
 10
137.4011702088891
 20
110.797
 30
0
 10
137.4011702088891
 20
110.853
 30
0
 10
137.4011702088891
 20
110.908
 30
0
 10
137.4011702088891
 20
110.964
 30
0
 10
137.4011702088891
 20
111.014
 30
0
 10
137.4011702088891
 20
111.064
 30
0
 10
137.4011702088891
 20
111.114
 30
0
 10
137.4011702088891
 20
111.157
 30
0
 10
137.4011702088891
 20
111.2
 30
0
 10
137.4011702088891
 20
111.243
 30
0
 10
137.4011702088891
 20
111.28
 30
0
 10
137.4011702088891
 20
111.316
 30
0
 10
137.4011702088891
 20
111.352
 30
0
 10
137.4011702088891
 20
111.381
 30
0
 10
137.4011702088891
 20
111.409
 30
0
 10
137.4011702088891
 20
111.438
 30
0
 10
137.4011702088891
 20
111.458
 30
0
 10
137.4011702088891
 20
111.479
 30
0
 10
137.4011702088891
 20
111.5
 30
0
 10
137.4011702088891
 20
111.512
 30
0
 10
137.4011702088891
 20
111.525
 30
0
 10
137.4011702088891
 20
111.537
 30
0
 10
137.4011702088891
 20
111.542
 30
0
 10
137.4011702088891
 20
111.546
 30
0
 10
137.4011702088891
 20
111.55
 30
0
  0
SPLINE
  5
1FD
100
AcDbEntity
  8
ProjItem001
  6
ByLayer
 62
  256
370
   -1
100
AcDbSpline
210
0
220
0
230
0
 70
    8
 71
    2
 72
   30
 73
   27
 74
    0
 42
1e-07
 43
1e-07
 40
0
 40
0
 40
0
 40
0.04
 40
0.08
 40
0.12
 40
0.16
 40
0.2
 40
0.24
 40
0.28
 40
0.32
 40
0.36
 40
0.4
 40
0.44
 40
0.48
 40
0.52
 40
0.5600000000000001
 40
0.6
 40
0.64
 40
0.68
 40
0.72
 40
0.76
 40
0.8
 40
0.84
 40
0.88
 40
0.92
 40
0.96
 40
1
 40
1
 40
1
 10
138.0011702088891
 20
104.35
 30
0
 10
138.0011702088891
 20
104.356
 30
0
 10
138.0011702088891
 20
104.363
 30
0
 10
138.0011702088891
 20
104.381
 30
0
 10
138.0011702088891
 20
104.4
 30
0
 10
138.0011702088891
 20
104.431
 30
0
 10
138.0011702088891
 20
104.462
 30
0
 10
138.0011702088891
 20
104.505
 30
0
 10
138.0011702088891
 20
104.548
 30
0
 10
138.0011702088891
 20
104.602
 30
0
 10
138.0011702088891
 20
104.657
 30
0
 10
138.0011702088891
 20
104.721
 30
0
 10
138.0011702088891
 20
104.786
 30
0
 10
138.0011702088891
 20
104.861
 30
0
 10
138.0011702088891
 20
104.936
 30
0
 10
138.0011702088891
 20
105.019
 30
0
 10
138.0011702088891
 20
105.103
 30
0
 10
138.0011702088891
 20
105.194
 30
0
 10
138.0011702088891
 20
105.286
 30
0
 10
138.0011702088891
 20
105.384
 30
0
 10
138.0011702088891
 20
105.482
 30
0
 10
138.0011702088891
 20
105.586
 30
0
 10
138.0011702088891
 20
105.689
 30
0
 10
138.0011702088891
 20
105.797
 30
0
 10
138.0011702088891
 20
105.905
 30
0
 10
138.0011702088891
 20
106.125
 30
0
 10
138.0011702088891
 20
106.35
 30
0
  0
SPLINE
  5
1FE
100
AcDbEntity
  8
ProjItem001
  6
ByLayer
 62
  256
370
   -1
100
AcDbSpline
210
0
220
0
230
0
 70
    8
 71
    2
 72
   30
 73
   27
 74
    0
 42
1e-07
 43
1e-07
 40
0
 40
0
 40
0
 40
0.04
 40
0.08
 40
0.12
 40
0.16
 40
0.2
 40
0.24
 40
0.28
 40
0.32
 40
0.36
 40
0.4
 40
0.44
 40
0.48
 40
0.52
 40
0.5600000000000001
 40
0.6
 40
0.64
 40
0.68
 40
0.72
 40
0.76
 40
0.8
 40
0.84
 40
0.88
 40
0.92
 40
0.96
 40
1
 40
1
 40
1
 10
137.4011702088891
 20
104.35
 30
0
 10
137.4011702088891
 20
104.356
 30
0
 10
137.4011702088891
 20
104.363
 30
0
 10
137.4011702088891
 20
104.381
 30
0
 10
137.4011702088891
 20
104.4
 30
0
 10
137.4011702088891
 20
104.431
 30
0
 10
137.4011702088891
 20
104.462
 30
0
 10
137.4011702088891
 20
104.505
 30
0
 10
137.4011702088891
 20
104.548
 30
0
 10
137.4011702088891
 20
104.602
 30
0
 10
137.4011702088891
 20
104.657
 30
0
 10
137.4011702088891
 20
104.721
 30
0
 10
137.4011702088891
 20
104.786
 30
0
 10
137.4011702088891
 20
104.861
 30
0
 10
137.4011702088891
 20
104.936
 30
0
 10
137.4011702088891
 20
105.019
 30
0
 10
137.4011702088891
 20
105.103
 30
0
 10
137.4011702088891
 20
105.194
 30
0
 10
137.4011702088891
 20
105.286
 30
0
 10
137.4011702088891
 20
105.384
 30
0
 10
137.4011702088891
 20
105.482
 30
0
 10
137.4011702088891
 20
105.586
 30
0
 10
137.4011702088891
 20
105.689
 30
0
 10
137.4011702088891
 20
105.797
 30
0
 10
137.4011702088891
 20
105.905
 30
0
 10
137.4011702088891
 20
106.125
 30
0
 10
137.4011702088891
 20
106.35
 30
0
  0
LINE
  5
1FF
100
AcDbEntity
  8
ProjItem001
  6
ByLayer
 62
  256
370
   -1
100
AcDbLine
 10
138.0011702088891
 20
106.35
 11
138.0011702088891
 21
109.55
  0
LINE
  5
200
100
AcDbEntity
  8
ProjItem001
  6
ByLayer
 62
  256
370
   -1
100
AcDbLine
 10
137.4011702088891
 20
106.35
 11
137.4011702088891
 21
109.55
  0
SPLINE
  5
201
100
AcDbEntity
  8
ProjItem001
  6
ByLayer
 62
  256
370
   -1
100
AcDbSpline
210
0
220
0
230
0
 70
    8
 71
    3
 72
   41
 73
   37
 74
    0
 42
1e-07
 43
1e-07
 40
0
 40
0
 40
0
 40
0
 40
0.336599
 40
0.336599
 40
0.336599
 40
0.448799
 40
0.448799
 40
0.448799
 40
0.560999
 40
0.560999
 40
0.560999
 40
0.673198
 40
0.673198
 40
0.673198
 40
0.785398
 40
0.785398
 40
0.785398
 40
0.897598
 40
0.897598
 40
0.897598
 40
1.0098
 40
1.0098
 40
1.0098
 40
1.122
 40
1.122
 40
1.122
 40
1.2342
 40
1.2342
 40
1.2342
 40
1.3464
 40
1.3464
 40
1.3464
 40
1.4586
 40
1.4586
 40
1.4586
 40
1.5708
 40
1.5708
 40
1.5708
 40
1.5708
 10
138.0011702088891
 20
109.55
 30
0
 10
138.0011702088891
 20
109.775
 30
0
 10
138.0011702088891
 20
109.997
 30
0
 10
138.0011702088891
 20
110.211
 30
0
 10
138.0011702088891
 20
110.28
 30
0
 10
138.0011702088891
 20
110.349
 30
0
 10
138.0011702088891
 20
110.418
 30
0
 10
138.0011702088891
 20
110.483
 30
0
 10
138.0011702088891
 20
110.549
 30
0
 10
138.0011702088891
 20
110.614
 30
0
 10
138.0011702088891
 20
110.675
 30
0
 10
138.0011702088891
 20
110.736
 30
0
 10
138.0011702088891
 20
110.797
 30
0
 10
138.0011702088891
 20
110.853
 30
0
 10
138.0011702088891
 20
110.908
 30
0
 10
138.0011702088891
 20
110.964
 30
0
 10
138.0011702088891
 20
111.014
 30
0
 10
138.0011702088891
 20
111.064
 30
0
 10
138.0011702088891
 20
111.114
 30
0
 10
138.0011702088891
 20
111.157
 30
0
 10
138.0011702088891
 20
111.2
 30
0
 10
138.0011702088891
 20
111.243
 30
0
 10
138.0011702088891
 20
111.28
 30
0
 10
138.0011702088891
 20
111.316
 30
0
 10
138.0011702088891
 20
111.352
 30
0
 10
138.0011702088891
 20
111.381
 30
0
 10
138.0011702088891
 20
111.409
 30
0
 10
138.0011702088891
 20
111.438
 30
0
 10
138.0011702088891
 20
111.458
 30
0
 10
138.0011702088891
 20
111.479
 30
0
 10
138.0011702088891
 20
111.5
 30
0
 10
138.0011702088891
 20
111.512
 30
0
 10
138.0011702088891
 20
111.525
 30
0
 10
138.0011702088891
 20
111.537
 30
0
 10
138.0011702088891
 20
111.542
 30
0
 10
138.0011702088891
 20
111.546
 30
0
 10
138.0011702088891
 20
111.55
 30
0
  0
SPLINE
  5
202
100
AcDbEntity
  8
ProjItem001
  6
ByLayer
 62
  256
370
   -1
100
AcDbSpline
210
0
220
0
230
0
 70
    8
 71
    3
 72
   41
 73
   37
 74
    0
 42
1e-07
 43
1e-07
 40
0
 40
0
 40
0
 40
0
 40
0.336599
 40
0.336599
 40
0.336599
 40
0.448799
 40
0.448799
 40
0.448799
 40
0.560999
 40
0.560999
 40
0.560999
 40
0.673198
 40
0.673198
 40
0.673198
 40
0.785398
 40
0.785398
 40
0.785398
 40
0.897598
 40
0.897598
 40
0.897598
 40
1.0098
 40
1.0098
 40
1.0098
 40
1.122
 40
1.122
 40
1.122
 40
1.2342
 40
1.2342
 40
1.2342
 40
1.3464
 40
1.3464
 40
1.3464
 40
1.4586
 40
1.4586
 40
1.4586
 40
1.5708
 40
1.5708
 40
1.5708
 40
1.5708
 10
137.4011702088891
 20
109.55
 30
0
 10
137.4011702088891
 20
109.775
 30
0
 10
137.4011702088891
 20
109.997
 30
0
 10
137.4011702088891
 20
110.211
 30
0
 10
137.4011702088891
 20
110.28
 30
0
 10
137.4011702088891
 20
110.349
 30
0
 10
137.4011702088891
 20
110.418
 30
0
 10
137.4011702088891
 20
110.483
 30
0
 10
137.4011702088891
 20
110.549
 30
0
 10
137.4011702088891
 20
110.614
 30
0
 10
137.4011702088891
 20
110.675
 30
0
 10
137.4011702088891
 20
110.736
 30
0
 10
137.4011702088891
 20
110.797
 30
0
 10
137.4011702088891
 20
110.853
 30
0
 10
137.4011702088891
 20
110.908
 30
0
 10
137.4011702088891
 20
110.964
 30
0
 10
137.4011702088891
 20
111.014
 30
0
 10
137.4011702088891
 20
111.064
 30
0
 10
137.4011702088891
 20
111.114
 30
0
 10
137.4011702088891
 20
111.157
 30
0
 10
137.4011702088891
 20
111.2
 30
0
 10
137.4011702088891
 20
111.243
 30
0
 10
137.4011702088891
 20
111.28
 30
0
 10
137.4011702088891
 20
111.316
 30
0
 10
137.4011702088891
 20
111.352
 30
0
 10
137.4011702088891
 20
111.381
 30
0
 10
137.4011702088891
 20
111.409
 30
0
 10
137.4011702088891
 20
111.438
 30
0
 10
137.4011702088891
 20
111.458
 30
0
 10
137.4011702088891
 20
111.479
 30
0
 10
137.4011702088891
 20
111.5
 30
0
 10
137.4011702088891
 20
111.512
 30
0
 10
137.4011702088891
 20
111.525
 30
0
 10
137.4011702088891
 20
111.537
 30
0
 10
137.4011702088891
 20
111.542
 30
0
 10
137.4011702088891
 20
111.546
 30
0
 10
137.4011702088891
 20
111.55
 30
0
  0
SPLINE
  5
203
100
AcDbEntity
  8
ProjItem001
  6
ByLayer
 62
  256
370
   -1
100
AcDbSpline
210
0
220
0
230
0
 70
    8
 71
    2
 72
   30
 73
   27
 74
    0
 42
1e-07
 43
1e-07
 40
0
 40
0
 40
0
 40
0.04
 40
0.08
 40
0.12
 40
0.16
 40
0.2
 40
0.24
 40
0.28
 40
0.32
 40
0.36
 40
0.4
 40
0.44
 40
0.48
 40
0.52
 40
0.5600000000000001
 40
0.6
 40
0.64
 40
0.68
 40
0.72
 40
0.76
 40
0.8
 40
0.84
 40
0.88
 40
0.92
 40
0.96
 40
1
 40
1
 40
1
 10
138.0011702088891
 20
104.35
 30
0
 10
138.0011702088891
 20
104.356
 30
0
 10
138.0011702088891
 20
104.363
 30
0
 10
138.0011702088891
 20
104.381
 30
0
 10
138.0011702088891
 20
104.4
 30
0
 10
138.0011702088891
 20
104.431
 30
0
 10
138.0011702088891
 20
104.462
 30
0
 10
138.0011702088891
 20
104.505
 30
0
 10
138.0011702088891
 20
104.548
 30
0
 10
138.0011702088891
 20
104.602
 30
0
 10
138.0011702088891
 20
104.657
 30
0
 10
138.0011702088891
 20
104.721
 30
0
 10
138.0011702088891
 20
104.786
 30
0
 10
138.0011702088891
 20
104.861
 30
0
 10
138.0011702088891
 20
104.936
 30
0
 10
138.0011702088891
 20
105.019
 30
0
 10
138.0011702088891
 20
105.103
 30
0
 10
138.0011702088891
 20
105.194
 30
0
 10
138.0011702088891
 20
105.286
 30
0
 10
138.0011702088891
 20
105.384
 30
0
 10
138.0011702088891
 20
105.482
 30
0
 10
138.0011702088891
 20
105.586
 30
0
 10
138.0011702088891
 20
105.689
 30
0
 10
138.0011702088891
 20
105.797
 30
0
 10
138.0011702088891
 20
105.905
 30
0
 10
138.0011702088891
 20
106.125
 30
0
 10
138.0011702088891
 20
106.35
 30
0
  0
SPLINE
  5
204
100
AcDbEntity
  8
ProjItem001
  6
ByLayer
 62
  256
370
   -1
100
AcDbSpline
210
0
220
0
230
0
 70
    8
 71
    2
 72
   30
 73
   27
 74
    0
 42
1e-07
 43
1e-07
 40
0
 40
0
 40
0
 40
0.04
 40
0.08
 40
0.12
 40
0.16
 40
0.2
 40
0.24
 40
0.28
 40
0.32
 40
0.36
 40
0.4
 40
0.44
 40
0.48
 40
0.52
 40
0.5600000000000001
 40
0.6
 40
0.64
 40
0.68
 40
0.72
 40
0.76
 40
0.8
 40
0.84
 40
0.88
 40
0.92
 40
0.96
 40
1
 40
1
 40
1
 10
137.4011702088891
 20
104.35
 30
0
 10
137.4011702088891
 20
104.356
 30
0
 10
137.4011702088891
 20
104.363
 30
0
 10
137.4011702088891
 20
104.381
 30
0
 10
137.4011702088891
 20
104.4
 30
0
 10
137.4011702088891
 20
104.431
 30
0
 10
137.4011702088891
 20
104.462
 30
0
 10
137.4011702088891
 20
104.505
 30
0
 10
137.4011702088891
 20
104.548
 30
0
 10
137.4011702088891
 20
104.602
 30
0
 10
137.4011702088891
 20
104.657
 30
0
 10
137.4011702088891
 20
104.721
 30
0
 10
137.4011702088891
 20
104.786
 30
0
 10
137.4011702088891
 20
104.861
 30
0
 10
137.4011702088891
 20
104.936
 30
0
 10
137.4011702088891
 20
105.019
 30
0
 10
137.4011702088891
 20
105.103
 30
0
 10
137.4011702088891
 20
105.194
 30
0
 10
137.4011702088891
 20
105.286
 30
0
 10
137.4011702088891
 20
105.384
 30
0
 10
137.4011702088891
 20
105.482
 30
0
 10
137.4011702088891
 20
105.586
 30
0
 10
137.4011702088891
 20
105.689
 30
0
 10
137.4011702088891
 20
105.797
 30
0
 10
137.4011702088891
 20
105.905
 30
0
 10
137.4011702088891
 20
106.125
 30
0
 10
137.4011702088891
 20
106.35
 30
0
  0
LINE
  5
205
100
AcDbEntity
  8
ProjItem001
  6
ByLayer
 62
  256
370
   -1
100
AcDbLine
 10
138.0011702088891
 20
106.35
 11
138.0011702088891
 21
109.55
  0
LINE
  5
206
100
AcDbEntity
  8
ProjItem001
  6
ByLayer
 62
  256
370
   -1
100
AcDbLine
 10
137.4011702088891
 20
106.35
 11
137.4011702088891
 21
109.55
  0
LINE
  5
207
100
AcDbEntity
  8
ProjItem001
  6
ByLayer
 62
  256
370
   -1
100
AcDbLine
 10
138.6311702088891
 20
108.36
 11
138.4611702088891
 21
109
  0
LINE
  5
208
100
AcDbEntity
  8
ProjItem001
  6
ByLayer
 62
  256
370
   -1
100
AcDbLine
 10
138.6311702088891
 20
107.54
 11
138.4611702088891
 21
106.9
  0
LINE
  5
209
100
AcDbEntity
  8
ProjItem001
  6
ByLayer
 62
  256
370
   -1
100
AcDbLine
 10
138.0011702088891
 20
104.517
 11
138.0011702088891
 21
104.517
  0
LINE
  5
20A
100
AcDbEntity
  8
ProjItem001
  6
ByLayer
 62
  256
370
   -1
100
AcDbLine
 10
138.0011702088891
 20
111.383
 11
138.0011702088891
 21
111.383
  0
LINE
  5
20B
100
AcDbEntity
  8
ProjItem001
  6
ByLayer
 62
  256
370
   -1
100
AcDbLine
 10
137.4011702088891
 20
104.517
 11
137.4011702088891
 21
104.517
  0
LINE
  5
20C
100
AcDbEntity
  8
ProjItem001
  6
ByLayer
 62
  256
370
   -1
100
AcDbLine
 10
137.4011702088891
 20
111.383
 11
137.4011702088891
 21
111.383
  0
LINE
  5
20D
100
AcDbEntity
  8
ProjItem001
  6
ByLayer
 62
  256
370
   -1
100
AcDbLine
 10
138.0011702088891
 20
104.517
 11
138.0011702088891
 21
104.517
  0
LINE
  5
20E
100
AcDbEntity
  8
ProjItem001
  6
ByLayer
 62
  256
370
   -1
100
AcDbLine
 10
138.0011702088891
 20
111.383
 11
138.0011702088891
 21
111.383
  0
LINE
  5
20F
100
AcDbEntity
  8
ProjItem001
  6
ByLayer
 62
  256
370
   -1
100
AcDbLine
 10
137.4011702088891
 20
104.517
 11
137.4011702088891
 21
104.517
  0
LINE
  5
210
100
AcDbEntity
  8
ProjItem001
  6
ByLayer
 62
  256
370
   -1
100
AcDbLine
 10
137.4011702088891
 20
111.383
 11
137.4011702088891
 21
111.383
  0
LINE
  5
211
100
AcDbEntity
  8
ProjItem001
  6
ByLayer
 62
  256
370
   -1
100
AcDbLine
 10
138.0011702088891
 20
111.55
 11
137.4011702088891
 21
111.55
  0
LINE
  5
212
100
AcDbEntity
  8
ProjItem001
  6
ByLayer
 62
  256
370
   -1
100
AcDbLine
 10
138.0011702088891
 20
104.35
 11
137.4011702088891
 21
104.35
  0
LINE
  5
213
100
AcDbEntity
  8
ProjItem001
  6
ByLayer
 62
  256
370
   -1
100
AcDbLine
 10
138.0011702088891
 20
111.55
 11
137.4011702088891
 21
111.55
  0
LINE
  5
214
100
AcDbEntity
  8
ProjItem001
  6
ByLayer
 62
  256
370
   -1
100
AcDbLine
 10
138.0011702088891
 20
104.35
 11
137.4011702088891
 21
104.35
  0
LINE
  5
215
100
AcDbEntity
  8
ProjItem001
  6
ByLayer
 62
  256
370
   -1
100
AcDbLine
 10
138.0231702088891
 20
106.75
 11
138.0231702088891
 21
107.25
  0
LINE
  5
216
100
AcDbEntity
  8
ProjItem001
  6
ByLayer
 62
  256
370
   -1
100
AcDbLine
 10
138.0231702088891
 20
109.15
 11
138.0231702088891
 21
108.65
  0
LINE
  5
217
100
AcDbEntity
  8
ProjItem001
  6
ByLayer
 62
  256
370
   -1
100
AcDbLine
 10
138.0011702088891
 20
107.301
 11
138.0011702088891
 21
107.301
  0
LINE
  5
218
100
AcDbEntity
  8
ProjItem001
  6
ByLayer
 62
  256
370
   -1
100
AcDbLine
 10
138.0011702088891
 20
106.699
 11
138.0011702088891
 21
106.699
  0
LINE
  5
219
100
AcDbEntity
  8
ProjItem001
  6
ByLayer
 62
  256
370
   -1
100
AcDbLine
 10
138.0011702088891
 20
109.201
 11
138.0011702088891
 21
109.201
  0
LINE
  5
21A
100
AcDbEntity
  8
ProjItem001
  6
ByLayer
 62
  256
370
   -1
100
AcDbLine
 10
138.0011702088891
 20
108.599
 11
138.0011702088891
 21
108.599
  0
LINE
  5
21B
100
AcDbEntity
  8
ProjItem001
  6
ByLayer
 62
  256
370
   -1
100
AcDbLine
 10
138.0011702088891
 20
107.301
 11
138.0011702088891
 21
107.301
  0
LINE
  5
21C
100
AcDbEntity
  8
ProjItem001
  6
ByLayer
 62
  256
370
   -1
100
AcDbLine
 10
138.0011702088891
 20
106.699
 11
138.0011702088891
 21
106.699
  0
LINE
  5
21D
100
AcDbEntity
  8
ProjItem001
  6
ByLayer
 62
  256
370
   -1
100
AcDbLine
 10
138.0011702088891
 20
109.201
 11
138.0011702088891
 21
109.201
  0
LINE
  5
21E
100
AcDbEntity
  8
ProjItem001
  6
ByLayer
 62
  256
370
   -1
100
AcDbLine
 10
138.0011702088891
 20
108.599
 11
138.0011702088891
 21
108.599
  0
LINE
  5
21F
100
AcDbEntity
  8
ProjItem001
  6
ByLayer
 62
  256
370
   -1
100
AcDbLine
 10
137.4011702088891
 20
109.55
 11
138.0011702088891
 21
109.55
  0
LINE
  5
220
100
AcDbEntity
  8
ProjItem001
  6
ByLayer
 62
  256
370
   -1
100
AcDbLine
 10
137.4011702088891
 20
106.35
 11
138.0011702088891
 21
106.35
  0
LINE
  5
221
100
AcDbEntity
  8
ProjItem001
  6
ByLayer
 62
  256
370
   -1
100
AcDbLine
 10
137.4011702088891
 20
109.55
 11
138.0011702088891
 21
109.55
  0
LINE
  5
222
100
AcDbEntity
  8
ProjItem001
  6
ByLayer
 62
  256
370
   -1
100
AcDbLine
 10
137.4011702088891
 20
106.35
 11
138.0011702088891
 21
106.35
  0
SPLINE
  5
223
100
AcDbEntity
  8
ProjItem001
  6
ByLayer
 62
  256
370
   -1
100
AcDbSpline
210
0
220
0
230
0
 70
    8
 71
    1
 72
    4
 73
    2
 74
    0
 42
1e-07
 43
1e-07
 40
0
 40
0
 40
1
 40
1
 10
138.4611702088891
 20
107.95
 30
0
 10
138.6311702088891
 20
107.95
 30
0
  0
LINE
  5
224
100
AcDbEntity
  8
leader
  6
ByLayer
 62
  256
370
   -1
100
AcDbLine
 10
138.6311702088891
 20
107.95
 11
138.0011702088891
 21
107.95
  0
DIMENSION
  5
225
100
AcDbEntity
  8
dim
  6
ByLayer
 62
  256
370
   -1
100
AcDbDimension
  2
*D1
 10
136
 20
107.95
 30
0
 11
135.0625
 21
109.75
 31
0
 70
   32
 71
    5
 72
    0
  3
Standard
 53
0
210
0
220
0
230
1
100
AcDbAlignedDimension
 13
138.0011702088891
 23
111.55
 33
0
 14
138.6311702088891
 24
107.95
 34
0
 50
90
100
AcDbRotatedDimension
  0
DIMENSION
  5
226
100
AcDbEntity
  8
dim
  6
ByLayer
 62
  256
370
   -1
100
AcDbDimension
  2
*D2
 10
138.6311702088891
 20
113
 30
0
 11
138.0161702088891
 21
113.9375
 31
0
 70
   32
 71
    5
 72
    0
  3
Standard
 53
0
210
0
220
0
230
1
100
AcDbAlignedDimension
 13
137.4011702088891
 23
111.55
 33
0
 14
138.6311702088891
 24
107.95
 34
0
100
AcDbRotatedDimension
  0
DIMENSION
  5
227
100
AcDbEntity
  8
dim
  6
ByLayer
 62
  256
370
   -1
100
AcDbDimension
  2
*D3
 10
138.0011702088891
 20
103
 30
0
 11
137.7011702088891
 21
103.9375
 31
0
 70
   32
 71
    5
 72
    0
  3
Standard
 53
0
210
0
220
0
230
1
100
AcDbAlignedDimension
 13
137.4011702088891
 23
104.35
 33
0
 14
138.0011702088891
 24
104.35
 34
0
100
AcDbRotatedDimension
  0
MTEXT
  5
228
100
AcDbEntity
  8
0
  6
ByLayer
 62
  256
370
   -1
100
AcDbMText
 10
134.5389095665434
 20
98
 30
0
 40
1
 41
6.638888676886801
 71
    1
 72
    1
  1
SIDE VIEW
  7
standard
210
0
220
0
230
1
 50
0
 73
    2
 44
1
  0
LINE
  5
229
100
AcDbEntity
  8
ProjItem
  6
ByLayer
 62
  256
370
   -1
100
AcDbLine
 10
129.5399511751014
 20
106.65
 11
126.5399511751014
 21
106.65
  0
LINE
  5
22A
100
AcDbEntity
  8
ProjItem
  6
ByLayer
 62
  256
370
   -1
100
AcDbLine
 10
129.5399511751014
 20
109.25
 11
129.5399511751014
 21
106.65
  0
LINE
  5
22B
100
AcDbEntity
  8
ProjItem
  6
ByLayer
 62
  256
370
   -1
100
AcDbLine
 10
126.5399511751014
 20
106.65
 11
126.5399511751014
 21
109.25
  0
LINE
  5
22C
100
AcDbEntity
  8
ProjItem
  6
ByLayer
 62
  256
370
   -1
100
AcDbLine
 10
126.5399511751014
 20
109.25
 11
129.5399511751014
 21
109.25
  0
CIRCLE
  5
22D
100
AcDbEntity
  8
ProjItem
  6
ByLayer
 62
  256
370
   -1
100
AcDbCircle
 10
128.0399511751014
 20
107.95
 40
1.05
  0
LINE
  5
22E
100
AcDbEntity
  8
ProjItem
  6
ByLayer
 62
  256
370
   -1
100
AcDbLine
 10
129.5399511751014
 20
109.15
 11
129.7399511751014
 21
109.15
  0
LINE
  5
22F
100
AcDbEntity
  8
ProjItem
  6
ByLayer
 62
  256
370
   -1
100
AcDbLine
 10
129.7399511751014
 20
109.15
 11
129.7859511751014
 21
109.15
  0
LINE
  5
230
100
AcDbEntity
  8
ProjItem
  6
ByLayer
 62
  256
370
   -1
100
AcDbLine
 10
129.5399511751014
 20
108.65
 11
129.7399511751014
 21
108.65
  0
LINE
  5
231
100
AcDbEntity
  8
ProjItem
  6
ByLayer
 62
  256
370
   -1
100
AcDbLine
 10
129.7399511751014
 20
109.15
 11
129.7399511751014
 21
108.65
  0
LINE
  5
232
100
AcDbEntity
  8
ProjItem
  6
ByLayer
 62
  256
370
   -1
100
AcDbLine
 10
129.7399511751014
 20
108.65
 11
129.7859511751014
 21
108.65
  0
LINE
  5
233
100
AcDbEntity
  8
ProjItem
  6
ByLayer
 62
  256
370
   -1
100
AcDbLine
 10
129.5399511751014
 20
107.25
 11
129.7399511751014
 21
107.25
  0
LINE
  5
234
100
AcDbEntity
  8
ProjItem
  6
ByLayer
 62
  256
370
   -1
100
AcDbLine
 10
129.7399511751014
 20
107.25
 11
129.7859511751014
 21
107.25
  0
LINE
  5
235
100
AcDbEntity
  8
ProjItem
  6
ByLayer
 62
  256
370
   -1
100
AcDbLine
 10
129.7399511751014
 20
106.75
 11
129.7399511751014
 21
107.25
  0
LINE
  5
236
100
AcDbEntity
  8
ProjItem
  6
ByLayer
 62
  256
370
   -1
100
AcDbLine
 10
129.5399511751014
 20
106.75
 11
129.7399511751014
 21
106.75
  0
LINE
  5
237
100
AcDbEntity
  8
ProjItem
  6
ByLayer
 62
  256
370
   -1
100
AcDbLine
 10
129.7399511751014
 20
106.75
 11
129.7859511751014
 21
106.75
  0
LINE
  5
238
100
AcDbEntity
  8
ProjItem
  6
ByLayer
 62
  256
370
   -1
100
AcDbLine
 10
126.5399511751014
 20
106.75
 11
126.3399511751014
 21
106.75
  0
LINE
  5
239
100
AcDbEntity
  8
ProjItem
  6
ByLayer
 62
  256
370
   -1
100
AcDbLine
 10
126.3399511751014
 20
106.75
 11
126.2939511751014
 21
106.75
  0
LINE
  5
23A
100
AcDbEntity
  8
ProjItem
  6
ByLayer
 62
  256
370
   -1
100
AcDbLine
 10
126.5399511751014
 20
107.25
 11
126.3399511751014
 21
107.25
  0
LINE
  5
23B
100
AcDbEntity
  8
ProjItem
  6
ByLayer
 62
  256
370
   -1
100
AcDbLine
 10
126.3399511751014
 20
106.75
 11
126.3399511751014
 21
107.25
  0
LINE
  5
23C
100
AcDbEntity
  8
ProjItem
  6
ByLayer
 62
  256
370
   -1
100
AcDbLine
 10
126.3399511751014
 20
107.25
 11
126.2939511751014
 21
107.25
  0
LINE
  5
23D
100
AcDbEntity
  8
ProjItem
  6
ByLayer
 62
  256
370
   -1
100
AcDbLine
 10
126.5399511751014
 20
108.65
 11
126.3399511751014
 21
108.65
  0
LINE
  5
23E
100
AcDbEntity
  8
ProjItem
  6
ByLayer
 62
  256
370
   -1
100
AcDbLine
 10
126.3399511751014
 20
108.65
 11
126.2939511751014
 21
108.65
  0
LINE
  5
23F
100
AcDbEntity
  8
ProjItem
  6
ByLayer
 62
  256
370
   -1
100
AcDbLine
 10
126.3399511751014
 20
109.15
 11
126.3399511751014
 21
108.65
  0
LINE
  5
240
100
AcDbEntity
  8
ProjItem
  6
ByLayer
 62
  256
370
   -1
100
AcDbLine
 10
126.5399511751014
 20
109.15
 11
126.3399511751014
 21
109.15
  0
LINE
  5
241
100
AcDbEntity
  8
ProjItem
  6
ByLayer
 62
  256
370
   -1
100
AcDbLine
 10
126.3399511751014
 20
109.15
 11
126.2939511751014
 21
109.15
  0
CIRCLE
  5
242
100
AcDbEntity
  8
ProjItem
  6
ByLayer
 62
  256
370
   -1
100
AcDbCircle
 10
128.0399511751014
 20
107.95
 40
0.41
  0
LINE
  5
243
100
AcDbEntity
  8
ProjItem
  6
ByLayer
 62
  256
370
   -1
100
AcDbLine
 10
129.7859511751014
 20
109.15
 11
129.7859511751014
 21
108.65
  0
LINE
  5
244
100
AcDbEntity
  8
ProjItem
  6
ByLayer
 62
  256
370
   -1
100
AcDbLine
 10
129.7859511751014
 20
106.75
 11
129.7859511751014
 21
107.25
  0
LINE
  5
245
100
AcDbEntity
  8
ProjItem
  6
ByLayer
 62
  256
370
   -1
100
AcDbLine
 10
126.2939511751014
 20
106.75
 11
126.2939511751014
 21
107.25
  0
LINE
  5
246
100
AcDbEntity
  8
ProjItem
  6
ByLayer
 62
  256
370
   -1
100
AcDbLine
 10
126.2939511751014
 20
109.15
 11
126.2939511751014
 21
108.65
  0
CIRCLE
  5
247
100
AcDbEntity
  8
ProjItem
  6
ByLayer
 62
  256
370
   -1
100
AcDbCircle
 10
128.0399511751014
 20
105.45
 40
0.93345
  0
CIRCLE
  5
248
100
AcDbEntity
  8
ProjItem
  6
ByLayer
 62
  256
370
   -1
100
AcDbCircle
 10
128.0399511751014
 20
105.45
 40
0.601
  0
CIRCLE
  5
249
100
AcDbEntity
  8
ProjItem
  6
ByLayer
 62
  256
370
   -1
100
AcDbCircle
 10
128.0399511751014
 20
110.45
 40
0.93345
  0
CIRCLE
  5
24A
100
AcDbEntity
  8
ProjItem
  6
ByLayer
 62
  256
370
   -1
100
AcDbCircle
 10
128.0399511751014
 20
110.45
 40
0.601
  0
LINE
  5
24B
100
AcDbEntity
  8
ProjItem
  6
ByLayer
 62
  256
370
   -1
100
AcDbLine
 10
129.7909511751014
 20
107.35
 11
129.5399511751014
 21
107.35
  0
LINE
  5
24C
100
AcDbEntity
  8
ProjItem
  6
ByLayer
 62
  256
370
   -1
100
AcDbLine
 10
129.5399511751014
 20
106.65
 11
129.7909511751014
 21
106.65
  0
ARC
  5
24D
100
AcDbEntity
  8
ProjItem
  6
ByLayer
 62
  256
370
   -1
100
AcDbCircle
 10
129.7909511751014
 20
106.699
 40
0.04875
100
AcDbArc
 50
270
 51
0
  0
LINE
  5
24E
100
AcDbEntity
  8
ProjItem
  6
ByLayer
 62
  256
370
   -1
100
AcDbLine
 10
129.8399511751014
 20
106.699
 11
129.8399511751014
 21
107.301
  0
ARC
  5
24F
100
AcDbEntity
  8
ProjItem
  6
ByLayer
 62
  256
370
   -1
100
AcDbCircle
 10
129.7909511751014
 20
107.301
 40
0.04875
100
AcDbArc
 50
1.669155096832054e-11
 51
90
  0
LINE
  5
250
100
AcDbEntity
  8
ProjItem
  6
ByLayer
 62
  256
370
   -1
100
AcDbLine
 10
126.5399511751014
 20
107.35
 11
126.2889511751014
 21
107.35
  0
ARC
  5
251
100
AcDbEntity
  8
ProjItem
  6
ByLayer
 62
  256
370
   -1
100
AcDbCircle
 10
126.2889511751014
 20
107.301
 40
0.04875
100
AcDbArc
 50
90
 51
180
  0
LINE
  5
252
100
AcDbEntity
  8
ProjItem
  6
ByLayer
 62
  256
370
   -1
100
AcDbLine
 10
126.2399511751014
 20
107.301
 11
126.2399511751014
 21
106.699
  0
ARC
  5
253
100
AcDbEntity
  8
ProjItem
  6
ByLayer
 62
  256
370
   -1
100
AcDbCircle
 10
126.2889511751014
 20
106.699
 40
0.04875
100
AcDbArc
 50
180
 51
270
  0
LINE
  5
254
100
AcDbEntity
  8
ProjItem
  6
ByLayer
 62
  256
370
   -1
100
AcDbLine
 10
126.2889511751014
 20
106.65
 11
126.5399511751014
 21
106.65
  0
LINE
  5
255
100
AcDbEntity
  8
ProjItem
  6
ByLayer
 62
  256
370
   -1
100
AcDbLine
 10
129.7909511751014
 20
109.25
 11
129.5399511751014
 21
109.25
  0
LINE
  5
256
100
AcDbEntity
  8
ProjItem
  6
ByLayer
 62
  256
370
   -1
100
AcDbLine
 10
129.5399511751014
 20
108.55
 11
129.7909511751014
 21
108.55
  0
ARC
  5
257
100
AcDbEntity
  8
ProjItem
  6
ByLayer
 62
  256
370
   -1
100
AcDbCircle
 10
129.7909511751014
 20
108.599
 40
0.04875
100
AcDbArc
 50
270
 51
0
  0
LINE
  5
258
100
AcDbEntity
  8
ProjItem
  6
ByLayer
 62
  256
370
   -1
100
AcDbLine
 10
129.8399511751014
 20
108.599
 11
129.8399511751014
 21
109.201
  0
ARC
  5
259
100
AcDbEntity
  8
ProjItem
  6
ByLayer
 62
  256
370
   -1
100
AcDbCircle
 10
129.7909511751014
 20
109.201
 40
0.04875
100
AcDbArc
 50
0
 51
90
  0
LINE
  5
25A
100
AcDbEntity
  8
ProjItem
  6
ByLayer
 62
  256
370
   -1
100
AcDbLine
 10
126.5399511751014
 20
109.25
 11
126.2889511751014
 21
109.25
  0
ARC
  5
25B
100
AcDbEntity
  8
ProjItem
  6
ByLayer
 62
  256
370
   -1
100
AcDbCircle
 10
126.2889511751014
 20
109.201
 40
0.04875
100
AcDbArc
 50
90
 51
180
  0
LINE
  5
25C
100
AcDbEntity
  8
ProjItem
  6
ByLayer
 62
  256
370
   -1
100
AcDbLine
 10
126.2399511751014
 20
109.201
 11
126.2399511751014
 21
108.599
  0
ARC
  5
25D
100
AcDbEntity
  8
ProjItem
  6
ByLayer
 62
  256
370
   -1
100
AcDbCircle
 10
126.2889511751014
 20
108.599
 40
0.04875
100
AcDbArc
 50
180
 51
270
  0
LINE
  5
25E
100
AcDbEntity
  8
ProjItem
  6
ByLayer
 62
  256
370
   -1
100
AcDbLine
 10
126.2889511751014
 20
108.55
 11
126.5399511751014
 21
108.55
  0
CIRCLE
  5
25F
100
AcDbEntity
  8
ProjItem
  6
ByLayer
 62
  256
370
   -1
100
AcDbCircle
 10
128.0399511751014
 20
105.45
 40
0.93345
  0
CIRCLE
  5
260
100
AcDbEntity
  8
ProjItem
  6
ByLayer
 62
  256
370
   -1
100
AcDbCircle
 10
128.0399511751014
 20
105.45
 40
0.601
  0
CIRCLE
  5
261
100
AcDbEntity
  8
ProjItem
  6
ByLayer
 62
  256
370
   -1
100
AcDbCircle
 10
128.0399511751014
 20
110.45
 40
0.93345
  0
CIRCLE
  5
262
100
AcDbEntity
  8
ProjItem
  6
ByLayer
 62
  256
370
   -1
100
AcDbCircle
 10
128.0399511751014
 20
110.45
 40
0.601
  0
LINE
  5
263
100
AcDbEntity
  8
ProjItem
  6
ByLayer
 62
  256
370
   -1
100
AcDbLine
 10
129.7909511751014
 20
107.35
 11
129.5399511751014
 21
107.35
  0
LINE
  5
264
100
AcDbEntity
  8
ProjItem
  6
ByLayer
 62
  256
370
   -1
100
AcDbLine
 10
129.5399511751014
 20
106.65
 11
129.7909511751014
 21
106.65
  0
ARC
  5
265
100
AcDbEntity
  8
ProjItem
  6
ByLayer
 62
  256
370
   -1
100
AcDbCircle
 10
129.7909511751014
 20
106.699
 40
0.04875
100
AcDbArc
 50
270
 51
0
  0
LINE
  5
266
100
AcDbEntity
  8
ProjItem
  6
ByLayer
 62
  256
370
   -1
100
AcDbLine
 10
129.8399511751014
 20
106.699
 11
129.8399511751014
 21
107.301
  0
ARC
  5
267
100
AcDbEntity
  8
ProjItem
  6
ByLayer
 62
  256
370
   -1
100
AcDbCircle
 10
129.7909511751014
 20
107.301
 40
0.04875
100
AcDbArc
 50
1.669155096832054e-11
 51
90
  0
LINE
  5
268
100
AcDbEntity
  8
ProjItem
  6
ByLayer
 62
  256
370
   -1
100
AcDbLine
 10
126.5399511751014
 20
107.35
 11
126.2889511751014
 21
107.35
  0
ARC
  5
269
100
AcDbEntity
  8
ProjItem
  6
ByLayer
 62
  256
370
   -1
100
AcDbCircle
 10
126.2889511751014
 20
107.301
 40
0.04875
100
AcDbArc
 50
90
 51
180
  0
LINE
  5
26A
100
AcDbEntity
  8
ProjItem
  6
ByLayer
 62
  256
370
   -1
100
AcDbLine
 10
126.2399511751014
 20
107.301
 11
126.2399511751014
 21
106.699
  0
ARC
  5
26B
100
AcDbEntity
  8
ProjItem
  6
ByLayer
 62
  256
370
   -1
100
AcDbCircle
 10
126.2889511751014
 20
106.699
 40
0.04875
100
AcDbArc
 50
180
 51
270
  0
LINE
  5
26C
100
AcDbEntity
  8
ProjItem
  6
ByLayer
 62
  256
370
   -1
100
AcDbLine
 10
126.2889511751014
 20
106.65
 11
126.5399511751014
 21
106.65
  0
LINE
  5
26D
100
AcDbEntity
  8
ProjItem
  6
ByLayer
 62
  256
370
   -1
100
AcDbLine
 10
129.7909511751014
 20
109.25
 11
129.5399511751014
 21
109.25
  0
LINE
  5
26E
100
AcDbEntity
  8
ProjItem
  6
ByLayer
 62
  256
370
   -1
100
AcDbLine
 10
129.5399511751014
 20
108.55
 11
129.7909511751014
 21
108.55
  0
ARC
  5
26F
100
AcDbEntity
  8
ProjItem
  6
ByLayer
 62
  256
370
   -1
100
AcDbCircle
 10
129.7909511751014
 20
108.599
 40
0.04875
100
AcDbArc
 50
270
 51
0
  0
LINE
  5
270
100
AcDbEntity
  8
ProjItem
  6
ByLayer
 62
  256
370
   -1
100
AcDbLine
 10
129.8399511751014
 20
108.599
 11
129.8399511751014
 21
109.201
  0
ARC
  5
271
100
AcDbEntity
  8
ProjItem
  6
ByLayer
 62
  256
370
   -1
100
AcDbCircle
 10
129.7909511751014
 20
109.201
 40
0.04875
100
AcDbArc
 50
0
 51
90
  0
LINE
  5
272
100
AcDbEntity
  8
ProjItem
  6
ByLayer
 62
  256
370
   -1
100
AcDbLine
 10
126.5399511751014
 20
109.25
 11
126.2889511751014
 21
109.25
  0
ARC
  5
273
100
AcDbEntity
  8
ProjItem
  6
ByLayer
 62
  256
370
   -1
100
AcDbCircle
 10
126.2889511751014
 20
109.201
 40
0.04875
100
AcDbArc
 50
90
 51
180
  0
LINE
  5
274
100
AcDbEntity
  8
ProjItem
  6
ByLayer
 62
  256
370
   -1
100
AcDbLine
 10
126.2399511751014
 20
109.201
 11
126.2399511751014
 21
108.599
  0
ARC
  5
275
100
AcDbEntity
  8
ProjItem
  6
ByLayer
 62
  256
370
   -1
100
AcDbCircle
 10
126.2889511751014
 20
108.599
 40
0.04875
100
AcDbArc
 50
180
 51
270
  0
LINE
  5
276
100
AcDbEntity
  8
ProjItem
  6
ByLayer
 62
  256
370
   -1
100
AcDbLine
 10
126.2889511751014
 20
108.55
 11
126.5399511751014
 21
108.55
  0
LINE
  5
277
100
AcDbEntity
  8
ProjItem
  6
ByLayer
 62
  256
370
   -1
100
AcDbLine
 10
130.0399511751014
 20
109.55
 11
130.0399511751014
 21
106.35
  0
ARC
  5
278
100
AcDbEntity
  8
ProjItem
  6
ByLayer
 62
  256
370
   -1
100
AcDbCircle
 10
128.0399511751014
 20
109.55
 40
2
100
AcDbArc
 50
4.071109992273301e-13
 51
180
  0
ARC
  5
279
100
AcDbEntity
  8
ProjItem
  6
ByLayer
 62
  256
370
   -1
100
AcDbCircle
 10
128.0399511751014
 20
106.35
 40
2
100
AcDbArc
 50
180
 51
0
  0
LINE
  5
27A
100
AcDbEntity
  8
ProjItem
  6
ByLayer
 62
  256
370
   -1
100
AcDbLine
 10
126.0399511751014
 20
106.35
 11
126.0399511751014
 21
109.55
  0
LINE
  5
27B
100
AcDbEntity
  8
ProjItem
  6
ByLayer
 62
  256
370
   -1
100
AcDbLine
 10
130.0399511751014
 20
109.55
 11
130.0399511751014
 21
106.35
  0
ARC
  5
27C
100
AcDbEntity
  8
ProjItem
  6
ByLayer
 62
  256
370
   -1
100
AcDbCircle
 10
128.0399511751014
 20
109.55
 40
2
100
AcDbArc
 50
4.071109992273301e-13
 51
180
  0
ARC
  5
27D
100
AcDbEntity
  8
ProjItem
  6
ByLayer
 62
  256
370
   -1
100
AcDbCircle
 10
128.0399511751014
 20
106.35
 40
2
100
AcDbArc
 50
180
 51
0
  0
LINE
  5
27E
100
AcDbEntity
  8
ProjItem
  6
ByLayer
 62
  256
370
   -1
100
AcDbLine
 10
126.0399511751014
 20
106.35
 11
126.0399511751014
 21
109.55
  0
SPLINE
  5
27F
100
AcDbEntity
  8
ProjItem
  6
ByLayer
 62
  256
370
   -1
100
AcDbSpline
210
0
220
0
230
0
 70
    8
 71
    1
 72
    4
 73
    2
 74
    0
 42
1e-07
 43
1e-07
 40
0
 40
0
 40
1
 40
1
 10
126.9899511751014
 20
107.95
 30
0
 10
127.6299511751014
 20
107.95
 30
0
  0
LINE
  5
280
100
AcDbEntity
  8
leader
  6
ByLayer
 62
  256
370
   -1
100
AcDbLine
 10
128.0399511751014
 20
109.25
 11
128.0399511751014
 21
106.65
  0
DIMENSION
  5
281
100
AcDbEntity
  8
dim
  6
ByLayer
 62
  256
370
   -1
100
AcDbDimension
  2
*D4
 10
128.0399511751014
 20
113
 30
0
 11
127.0399511751014
 21
113.9375
 31
0
 70
   32
 71
    5
 72
    0
  3
Standard
 53
0
210
0
220
0
230
1
100
AcDbAlignedDimension
 13
126.0399511751014
 23
109.55
 33
0
 14
128.0399511751014
 24
109.25
 34
0
100
AcDbRotatedDimension
  0
DIMENSION
  5
282
100
AcDbEntity
  8
dim
  6
ByLayer
 62
  256
370
   -1
100
AcDbDimension
  2
*D5
 10
124.3399511751014
 20
106.65
 30
0
 11
123.4024511751014
 21
107.95
 31
0
 70
   32
 71
    5
 72
    0
  3
Standard
 53
0
210
0
220
0
230
1
100
AcDbAlignedDimension
 13
126.5399511751014
 23
109.25
 33
0
 14
126.5399511751014
 24
106.65
 34
0
 50
90
100
AcDbRotatedDimension
  0
DIMENSION
  5
283
100
AcDbEntity
  8
dim
  6
ByLayer
 62
  256
370
   -1
100
AcDbDimension
  2
*D6
 10
129.5399511751014
 20
102
 30
0
 11
128.0399511751014
 21
102.9375
 31
0
 70
   32
 71
    5
 72
    0
  3
Standard
 53
0
210
0
220
0
230
1
100
AcDbAlignedDimension
 13
126.5399511751014
 23
106.65
 33
0
 14
129.5399511751014
 24
106.65
 34
0
100
AcDbRotatedDimension
  0
CIRCLE
  5
284
100
AcDbEntity
  8
ProjItem002
  6
ByLayer
 62
  256
370
   -1
100
AcDbCircle
 10
148.315
 20
105.45
 40
0.93345
  0
CIRCLE
  5
285
100
AcDbEntity
  8
ProjItem002
  6
ByLayer
 62
  256
370
   -1
100
AcDbCircle
 10
148.315
 20
105.45
 40
0.601
  0
CIRCLE
  5
286
100
AcDbEntity
  8
ProjItem002
  6
ByLayer
 62
  256
370
   -1
100
AcDbCircle
 10
148.315
 20
110.45
 40
0.93345
  0
CIRCLE
  5
287
100
AcDbEntity
  8
ProjItem002
  6
ByLayer
 62
  256
370
   -1
100
AcDbCircle
 10
148.315
 20
110.45
 40
0.601
  0
CIRCLE
  5
288
100
AcDbEntity
  8
ProjItem002
  6
ByLayer
 62
  256
370
   -1
100
AcDbCircle
 10
148.315
 20
105.45
 40
0.93345
  0
CIRCLE
  5
289
100
AcDbEntity
  8
ProjItem002
  6
ByLayer
 62
  256
370
   -1
100
AcDbCircle
 10
148.315
 20
105.45
 40
0.601
  0
CIRCLE
  5
28A
100
AcDbEntity
  8
ProjItem002
  6
ByLayer
 62
  256
370
   -1
100
AcDbCircle
 10
148.315
 20
110.45
 40
0.93345
  0
CIRCLE
  5
28B
100
AcDbEntity
  8
ProjItem002
  6
ByLayer
 62
  256
370
   -1
100
AcDbCircle
 10
148.315
 20
110.45
 40
0.601
  0
LINE
  5
28C
100
AcDbEntity
  8
ProjItem002
  6
ByLayer
 62
  256
370
   -1
100
AcDbLine
 10
146.315
 20
109.55
 11
146.315
 21
106.35
  0
ARC
  5
28D
100
AcDbEntity
  8
ProjItem002
  6
ByLayer
 62
  256
370
   -1
100
AcDbCircle
 10
148.315
 20
109.55
 40
2
100
AcDbArc
 50
0
 51
180
  0
ARC
  5
28E
100
AcDbEntity
  8
ProjItem002
  6
ByLayer
 62
  256
370
   -1
100
AcDbCircle
 10
148.315
 20
106.35
 40
2
100
AcDbArc
 50
180
 51
359.9999999999996
  0
LINE
  5
28F
100
AcDbEntity
  8
ProjItem002
  6
ByLayer
 62
  256
370
   -1
100
AcDbLine
 10
150.315
 20
106.35
 11
150.315
 21
109.55
  0
LINE
  5
290
100
AcDbEntity
  8
ProjItem002
  6
ByLayer
 62
  256
370
   -1
100
AcDbLine
 10
146.315
 20
109.55
 11
146.315
 21
106.35
  0
ARC
  5
291
100
AcDbEntity
  8
ProjItem002
  6
ByLayer
 62
  256
370
   -1
100
AcDbCircle
 10
148.315
 20
109.55
 40
2
100
AcDbArc
 50
0
 51
180
  0
ARC
  5
292
100
AcDbEntity
  8
ProjItem002
  6
ByLayer
 62
  256
370
   -1
100
AcDbCircle
 10
148.315
 20
106.35
 40
2
100
AcDbArc
 50
180
 51
359.9999999999996
  0
LINE
  5
293
100
AcDbEntity
  8
ProjItem002
  6
ByLayer
 62
  256
370
   -1
100
AcDbLine
 10
150.315
 20
106.35
 11
150.315
 21
109.55
  0
LINE
  5
294
100
AcDbEntity
  8
leader
  6
ByLayer
 62
  256
370
   -1
100
AcDbLine
 10
148.315
 20
111.55
 11
148.315
 21
104.35
  0
DIMENSION
  5
295
100
AcDbEntity
  8
dim
  6
ByLayer
 62
  256
370
   -1
100
AcDbDimension
  2
*D7
 10
148.315
 20
113
 30
0
 11
147.315
 21
113.9375
 31
0
 70
   32
 71
    5
 72
    0
  3
Standard
 53
0
210
0
220
0
230
1
100
AcDbAlignedDimension
 13
146.315
 23
109.55
 33
0
 14
148.315
 24
111.55
 34
0
100
AcDbRotatedDimension
  0
DIMENSION
  5
296
100
AcDbEntity
  8
dim
  6
ByLayer
 62
  256
370
   -1
100
AcDbDimension
  2
*D8
 10
152
 20
105.45
 30
0
 11
151.0625
 21
107.95
 31
0
 70
   32
 71
    5
 72
    0
  3
Standard
 53
0
210
0
220
0
230
1
100
AcDbAlignedDimension
 13
148.315
 23
110.45
 33
0
 14
148.315
 24
105.45
 34
0
 50
90
100
AcDbRotatedDimension
  0
DIMENSION
  5
297
100
AcDbEntity
  8
dim
  6
ByLayer
 62
  256
370
   -1
100
AcDbDimension
  2
*D9
 10
155
 20
104.35
 30
0
 11
154.0625
 21
107.95
 31
0
 70
   32
 71
    5
 72
    0
  3
Standard
 53
0
210
0
220
0
230
1
100
AcDbAlignedDimension
 13
148.315
 23
111.55
 33
0
 14
148.315
 24
104.35
 34
0
 50
90
100
AcDbRotatedDimension
  0
DIMENSION
  5
298
100
AcDbEntity
  8
dim
  6
ByLayer
 62
  256
370
   -1
100
AcDbDimension
  2
*D10
 10
150.315
 20
102
 30
0
 11
148.315
 21
102.9375
 31
0
 70
   32
 71
    5
 72
    0
  3
Standard
 53
0
210
0
220
0
230
1
100
AcDbAlignedDimension
 13
146.315
 23
106.35
 33
0
 14
150.315
 24
106.35
 34
0
100
AcDbRotatedDimension
  0
DIMENSION
  5
299
100
AcDbEntity
  8
dim
  6
ByLayer
 62
  256
370
   -1
100
AcDbDimension
  2
*D11
 10
145
 20
110.45
 30
0
 11
144
 21
109
 31
0
 70
   32
 71
    5
 72
    0
  3
Standard
 53
0
210
0
220
0
230
1
100
AcDbAlignedDimension
 13
148.315
 23
111.55
 33
0
 14
148.315
 24
110.45
 34
0
 50
90
100
AcDbRotatedDimension
  0
MTEXT
  5
29A
100
AcDbEntity
  8
0
  6
ByLayer
 62
  256
370
   -1
100
AcDbMText
 10
125
 20
98
 30
0
 40
1
 41
6.416666666666666
 71
    1
 72
    1
  1
TOP VIEW
  7
standard
210
0
220
0
230
1
 50
0
 73
    2
 44
1
  0
MTEXT
  5
29B
100
AcDbEntity
  8
0
  6
ByLayer
 62
  256
370
   -1
100
AcDbMText
 10
143.9299455833061
 20
98
 30
0
 40
1
 41
9.194444444444445
 71
    1
 72
    1
  1
BOTTOM VIEW
  7
standard
210
0
220
0
230
1
 50
0
 73
    2
 44
1
  0
MTEXT
  5
29C
100
AcDbEntity
  8
0
  6
ByLayer
 62
  256
370
   -1
100
AcDbMText
 10
135.6513535055664
 20
117.9683830628848
 30
0
 40
1
 41
5.750000000000092
 71
    1
 72
    1
  1
UNIT: mm
  7
standard
210
0
220
0
230
1
 50
0
 73
    2
 44
1
  0
MTEXT
  5
29D
100
AcDbEntity
  8
0
  6
ByLayer
 62
  256
370
   -1
100
AcDbMText
 10
230.622678000926
 20
55.14118519194523
 30
0
 40
4.25
 41
48.5208324323242
 71
    5
 72
    1
  1
TINYLILY SWITCH
  7
standard
210
0
220
0
230
1
 50
0
 73
    2
 44
1
  0
MTEXT
  5
29E
100
AcDbEntity
  8
0
  6
ByLayer
 62
  256
370
   -1
100
AcDbMText
 10
231.6634056522993
 20
46.17498974250736
 30
0
 40
4
 41
19.11111026310251
 71
    5
 72
    1
  1
ASL1101
  7
standard
210
0
220
0
230
1
 50
0
 73
    2
 44
1
  0
MTEXT
  5
29F
100
AcDbEntity
  8
0
  6
ByLayer
 62
  256
370
   -1
100
AcDbMText
 10
240.2022845263945
 20
27.80828678588498
 30
0
 40
2
 41
19.94444402044014
 71
    4
 72
    1
  1
SCALE: 1:1\P\PUNIT: mm\P\PREVISION: Rev2
  7
standard
210
0
220
0
230
1
 50
0
 73
    2
 44
1
  0
MTEXT
  5
2A0
100
AcDbEntity
  8
0
  6
ByLayer
 62
  256
370
   -1
100
AcDbMText
 10
195.113259
 20
27.58106258447588
 30
0
 40
2
 41
40.05555658413045
 71
    4
 72
    1
  1
PROJECT: TinyLily\P\PDATE: 8/20/2020\P\PAUTHOR NAME: Jason Marcum
  7
standard
210
0
220
0
230
1
 50
0
 73
    2
 44
1
  0
ENDSEC
  0
SECTION
  2
OBJECTS
  0
DICTIONARY
  5
C
330
0
100
AcDbDictionary
281
    1
  3
ACAD_GROUP
350
D
  0
DICTIONARY
  5
D
330
C
100
AcDbDictionary
281
    1
  0
PLOTSETTINGS
  5
2A1
  6
1x1
 40
0
 41
0
 42
0
 43
0
  0
ENDSEC
  0
EOF
